%TF.GenerationSoftware,KiCad,Pcbnew,7.0.6*%
%TF.CreationDate,2023-08-10T11:03:40+03:00*%
%TF.ProjectId,2023-staj-projesi,32303233-2d73-4746-916a-2d70726f6a65,1.0*%
%TF.SameCoordinates,Original*%
%TF.FileFunction,Paste,Top*%
%TF.FilePolarity,Positive*%
%FSLAX46Y46*%
G04 Gerber Fmt 4.6, Leading zero omitted, Abs format (unit mm)*
G04 Created by KiCad (PCBNEW 7.0.6) date 2023-08-10 11:03:40*
%MOMM*%
%LPD*%
G01*
G04 APERTURE LIST*
G04 Aperture macros list*
%AMRoundRect*
0 Rectangle with rounded corners*
0 $1 Rounding radius*
0 $2 $3 $4 $5 $6 $7 $8 $9 X,Y pos of 4 corners*
0 Add a 4 corners polygon primitive as box body*
4,1,4,$2,$3,$4,$5,$6,$7,$8,$9,$2,$3,0*
0 Add four circle primitives for the rounded corners*
1,1,$1+$1,$2,$3*
1,1,$1+$1,$4,$5*
1,1,$1+$1,$6,$7*
1,1,$1+$1,$8,$9*
0 Add four rect primitives between the rounded corners*
20,1,$1+$1,$2,$3,$4,$5,0*
20,1,$1+$1,$4,$5,$6,$7,0*
20,1,$1+$1,$6,$7,$8,$9,0*
20,1,$1+$1,$8,$9,$2,$3,0*%
G04 Aperture macros list end*
%ADD10RoundRect,0.225000X-0.250000X0.225000X-0.250000X-0.225000X0.250000X-0.225000X0.250000X0.225000X0*%
%ADD11RoundRect,0.250000X0.300000X-2.050000X0.300000X2.050000X-0.300000X2.050000X-0.300000X-2.050000X0*%
%ADD12RoundRect,0.250000X2.375000X-2.025000X2.375000X2.025000X-2.375000X2.025000X-2.375000X-2.025000X0*%
%ADD13RoundRect,0.250000X-0.325000X-0.650000X0.325000X-0.650000X0.325000X0.650000X-0.325000X0.650000X0*%
%ADD14RoundRect,0.250000X1.500000X0.550000X-1.500000X0.550000X-1.500000X-0.550000X1.500000X-0.550000X0*%
%ADD15RoundRect,0.200000X0.275000X-0.200000X0.275000X0.200000X-0.275000X0.200000X-0.275000X-0.200000X0*%
%ADD16RoundRect,0.250000X0.475000X-0.250000X0.475000X0.250000X-0.475000X0.250000X-0.475000X-0.250000X0*%
%ADD17RoundRect,0.225000X-0.225000X-0.250000X0.225000X-0.250000X0.225000X0.250000X-0.225000X0.250000X0*%
%ADD18RoundRect,0.250000X-0.900000X1.000000X-0.900000X-1.000000X0.900000X-1.000000X0.900000X1.000000X0*%
%ADD19RoundRect,0.250000X-0.625000X0.375000X-0.625000X-0.375000X0.625000X-0.375000X0.625000X0.375000X0*%
%ADD20RoundRect,0.225000X0.225000X0.250000X-0.225000X0.250000X-0.225000X-0.250000X0.225000X-0.250000X0*%
%ADD21RoundRect,0.200000X-0.200000X-0.275000X0.200000X-0.275000X0.200000X0.275000X-0.200000X0.275000X0*%
%ADD22RoundRect,0.225000X0.250000X-0.225000X0.250000X0.225000X-0.250000X0.225000X-0.250000X-0.225000X0*%
%ADD23RoundRect,0.250000X-1.400000X-1.000000X1.400000X-1.000000X1.400000X1.000000X-1.400000X1.000000X0*%
%ADD24RoundRect,0.200000X-0.275000X0.200000X-0.275000X-0.200000X0.275000X-0.200000X0.275000X0.200000X0*%
%ADD25R,2.500000X0.500000*%
%ADD26R,2.500000X2.000000*%
%ADD27RoundRect,0.250000X1.000000X-1.400000X1.000000X1.400000X-1.000000X1.400000X-1.000000X-1.400000X0*%
%ADD28RoundRect,0.250000X1.000000X-1.950000X1.000000X1.950000X-1.000000X1.950000X-1.000000X-1.950000X0*%
%ADD29R,1.050000X0.650000*%
%ADD30RoundRect,0.250000X0.250000X0.475000X-0.250000X0.475000X-0.250000X-0.475000X0.250000X-0.475000X0*%
%ADD31RoundRect,0.150000X-0.587500X-0.150000X0.587500X-0.150000X0.587500X0.150000X-0.587500X0.150000X0*%
%ADD32RoundRect,0.250000X-0.650000X0.325000X-0.650000X-0.325000X0.650000X-0.325000X0.650000X0.325000X0*%
%ADD33RoundRect,0.250000X-0.250000X-0.475000X0.250000X-0.475000X0.250000X0.475000X-0.250000X0.475000X0*%
%ADD34R,5.207000X2.311400*%
%ADD35R,2.311400X5.207000*%
%ADD36RoundRect,0.250000X-0.550000X1.500000X-0.550000X-1.500000X0.550000X-1.500000X0.550000X1.500000X0*%
%ADD37RoundRect,0.250000X1.000000X0.650000X-1.000000X0.650000X-1.000000X-0.650000X1.000000X-0.650000X0*%
%ADD38R,2.000000X4.500000*%
%ADD39RoundRect,0.250000X1.950000X1.000000X-1.950000X1.000000X-1.950000X-1.000000X1.950000X-1.000000X0*%
%ADD40O,4.450000X1.520000*%
%ADD41RoundRect,0.250000X2.050000X0.300000X-2.050000X0.300000X-2.050000X-0.300000X2.050000X-0.300000X0*%
%ADD42RoundRect,0.250000X2.025000X2.375000X-2.025000X2.375000X-2.025000X-2.375000X2.025000X-2.375000X0*%
%ADD43RoundRect,0.075000X-0.662500X-0.075000X0.662500X-0.075000X0.662500X0.075000X-0.662500X0.075000X0*%
%ADD44RoundRect,0.075000X-0.075000X-0.662500X0.075000X-0.662500X0.075000X0.662500X-0.075000X0.662500X0*%
%ADD45RoundRect,0.218750X0.256250X-0.218750X0.256250X0.218750X-0.256250X0.218750X-0.256250X-0.218750X0*%
%ADD46RoundRect,0.200000X0.200000X0.275000X-0.200000X0.275000X-0.200000X-0.275000X0.200000X-0.275000X0*%
%ADD47RoundRect,0.150000X-0.150000X0.512500X-0.150000X-0.512500X0.150000X-0.512500X0.150000X0.512500X0*%
G04 APERTURE END LIST*
D10*
%TO.C,C30*%
X77100000Y-58650000D03*
X77100000Y-60200000D03*
%TD*%
D11*
%TO.C,U1*%
X79275000Y-103275000D03*
X80975000Y-103275000D03*
X82675000Y-103275000D03*
D12*
X79900000Y-96550000D03*
X85450000Y-96550000D03*
X79900000Y-91700000D03*
X85450000Y-91700000D03*
D11*
X84375000Y-103275000D03*
X86075000Y-103275000D03*
%TD*%
D13*
%TO.C,C7*%
X165380000Y-99900000D03*
X168330000Y-99900000D03*
%TD*%
D14*
%TO.C,C12*%
X97000000Y-96100000D03*
X91600000Y-96100000D03*
%TD*%
D10*
%TO.C,C22*%
X128350000Y-97950000D03*
X128350000Y-99500000D03*
%TD*%
D15*
%TO.C,R6*%
X90215000Y-61450000D03*
X90215000Y-59800000D03*
%TD*%
D16*
%TO.C,C10*%
X159200000Y-82550000D03*
X159200000Y-80650000D03*
%TD*%
D17*
%TO.C,C20*%
X116850000Y-101100000D03*
X118400000Y-101100000D03*
%TD*%
D18*
%TO.C,D2*%
X83400000Y-129800000D03*
X83400000Y-134100000D03*
%TD*%
D17*
%TO.C,C21*%
X118200000Y-83000000D03*
X119750000Y-83000000D03*
%TD*%
D13*
%TO.C,C2*%
X92525000Y-121700000D03*
X95475000Y-121700000D03*
%TD*%
D19*
%TO.C,F1*%
X76454000Y-124460000D03*
X76454000Y-127260000D03*
%TD*%
D20*
%TO.C,C26*%
X119350000Y-88270000D03*
X117800000Y-88270000D03*
%TD*%
D21*
%TO.C,R4*%
X118125000Y-84700000D03*
X119775000Y-84700000D03*
%TD*%
D17*
%TO.C,C19*%
X131850000Y-89050000D03*
X133400000Y-89050000D03*
%TD*%
D22*
%TO.C,C24*%
X122850000Y-85350000D03*
X122850000Y-83800000D03*
%TD*%
D23*
%TO.C,D4*%
X84100000Y-107800000D03*
X84100000Y-114600000D03*
%TD*%
D21*
%TO.C,R16*%
X98200000Y-73800000D03*
X99850000Y-73800000D03*
%TD*%
D24*
%TO.C,R14*%
X78800000Y-61800000D03*
X78800000Y-63450000D03*
%TD*%
D21*
%TO.C,R3*%
X154350000Y-89300000D03*
X156000000Y-89300000D03*
%TD*%
D14*
%TO.C,C13*%
X139475000Y-118075000D03*
X134075000Y-118075000D03*
%TD*%
D25*
%TO.C,J5*%
X166675000Y-124800000D03*
X166675000Y-124000000D03*
X166675000Y-123200000D03*
X166675000Y-122400000D03*
X166675000Y-121600000D03*
D26*
X166675000Y-127600000D03*
X172175000Y-127600000D03*
X166675000Y-118800000D03*
X172175000Y-118800000D03*
%TD*%
D27*
%TO.C,D5*%
X166100000Y-95000000D03*
X172900000Y-95000000D03*
%TD*%
D21*
%TO.C,R8*%
X95908332Y-50260000D03*
X97558332Y-50260000D03*
%TD*%
D28*
%TO.C,C5*%
X112775000Y-129075000D03*
X112775000Y-120675000D03*
%TD*%
D29*
%TO.C,SW2*%
X94805952Y-54000000D03*
X98955952Y-54000000D03*
X94805952Y-56150000D03*
X98930952Y-56150000D03*
%TD*%
D30*
%TO.C,C9*%
X100800000Y-100800000D03*
X98900000Y-100800000D03*
%TD*%
D27*
%TO.C,D5*%
X166100000Y-95000000D03*
X172900000Y-95000000D03*
%TD*%
D15*
%TO.C,R9*%
X124850000Y-85350000D03*
X124850000Y-83700000D03*
%TD*%
D28*
%TO.C,C3*%
X70800000Y-107100000D03*
X70800000Y-98700000D03*
%TD*%
D21*
%TO.C,R2*%
X150600000Y-89300000D03*
X152250000Y-89300000D03*
%TD*%
D31*
%TO.C,Q1*%
X98225000Y-77050000D03*
X98225000Y-78950000D03*
X100100000Y-78000000D03*
%TD*%
D32*
%TO.C,C6*%
X79275000Y-107080000D03*
X79275000Y-110030000D03*
%TD*%
D22*
%TO.C,C18*%
X115200000Y-97050000D03*
X115200000Y-95500000D03*
%TD*%
D33*
%TO.C,C11*%
X140425000Y-122775000D03*
X142325000Y-122775000D03*
%TD*%
D34*
%TO.C,L2*%
X166800000Y-79608900D03*
X166800000Y-89591100D03*
%TD*%
D35*
%TO.C,L1*%
X100091100Y-108500000D03*
X90108900Y-108500000D03*
%TD*%
D10*
%TO.C,C16*%
X130000000Y-97950000D03*
X130000000Y-99500000D03*
%TD*%
D32*
%TO.C,C8*%
X121075000Y-129055000D03*
X121075000Y-132005000D03*
%TD*%
D36*
%TO.C,C14*%
X154400000Y-80500000D03*
X154400000Y-85900000D03*
%TD*%
D37*
%TO.C,D1*%
X83400000Y-126400000D03*
X79400000Y-126400000D03*
%TD*%
D38*
%TO.C,Y2*%
X111600000Y-97300000D03*
X111600000Y-88800000D03*
%TD*%
D15*
%TO.C,R7*%
X86800000Y-61425000D03*
X86800000Y-59775000D03*
%TD*%
D10*
%TO.C,C27*%
X96257500Y-59850000D03*
X96257500Y-61400000D03*
%TD*%
D39*
%TO.C,C4*%
X165400000Y-108900000D03*
X157000000Y-108900000D03*
%TD*%
D21*
%TO.C,R2*%
X150600000Y-89300000D03*
X152250000Y-89300000D03*
%TD*%
D24*
%TO.C,R13*%
X78800000Y-58600000D03*
X78800000Y-60250000D03*
%TD*%
D16*
%TO.C,C10*%
X159200000Y-82550000D03*
X159200000Y-80650000D03*
%TD*%
D29*
%TO.C,SW1*%
X86730952Y-54000000D03*
X90880952Y-54000000D03*
X86730952Y-56150000D03*
X90855952Y-56150000D03*
%TD*%
D21*
%TO.C,R5*%
X89241666Y-50260000D03*
X90891666Y-50260000D03*
%TD*%
D34*
%TO.C,L2*%
X166800000Y-79608900D03*
X166800000Y-89591100D03*
%TD*%
D20*
%TO.C,C31*%
X82450000Y-63100000D03*
X80900000Y-63100000D03*
%TD*%
D40*
%TO.C,T1*%
X92535000Y-125495000D03*
X92535000Y-135905000D03*
X100915000Y-125495000D03*
X100915000Y-135905000D03*
%TD*%
D17*
%TO.C,C23*%
X116850000Y-99500000D03*
X118400000Y-99500000D03*
%TD*%
D15*
%TO.C,R11*%
X94550000Y-61450000D03*
X94550000Y-59800000D03*
%TD*%
D23*
%TO.C,D6*%
X125875000Y-129775000D03*
X125875000Y-136575000D03*
%TD*%
D22*
%TO.C,C15*%
X118500000Y-104400000D03*
X118500000Y-102850000D03*
%TD*%
D10*
%TO.C,C25*%
X88507500Y-59825000D03*
X88507500Y-61375000D03*
%TD*%
D41*
%TO.C,U2*%
X161575000Y-100475000D03*
X161575000Y-98775000D03*
X161575000Y-97075000D03*
D42*
X154850000Y-99850000D03*
X154850000Y-94300000D03*
X150000000Y-99850000D03*
X150000000Y-94300000D03*
D41*
X161575000Y-95375000D03*
X161575000Y-93675000D03*
%TD*%
D39*
%TO.C,C4*%
X165400000Y-108900000D03*
X157000000Y-108900000D03*
%TD*%
D21*
%TO.C,R12*%
X102575000Y-50260000D03*
X104225000Y-50260000D03*
%TD*%
%TO.C,R1*%
X82575000Y-50260000D03*
X84225000Y-50260000D03*
%TD*%
D36*
%TO.C,C14*%
X154400000Y-80500000D03*
X154400000Y-85900000D03*
%TD*%
D43*
%TO.C,U4*%
X121437500Y-89050000D03*
X121437500Y-89550000D03*
X121437500Y-90050000D03*
X121437500Y-90550000D03*
X121437500Y-91050000D03*
X121437500Y-91550000D03*
X121437500Y-92050000D03*
X121437500Y-92550000D03*
X121437500Y-93050000D03*
X121437500Y-93550000D03*
X121437500Y-94050000D03*
X121437500Y-94550000D03*
D44*
X122850000Y-95962500D03*
X123350000Y-95962500D03*
X123850000Y-95962500D03*
X124350000Y-95962500D03*
X124850000Y-95962500D03*
X125350000Y-95962500D03*
X125850000Y-95962500D03*
X126350000Y-95962500D03*
X126850000Y-95962500D03*
X127350000Y-95962500D03*
X127850000Y-95962500D03*
X128350000Y-95962500D03*
D43*
X129762500Y-94550000D03*
X129762500Y-94050000D03*
X129762500Y-93550000D03*
X129762500Y-93050000D03*
X129762500Y-92550000D03*
X129762500Y-92050000D03*
X129762500Y-91550000D03*
X129762500Y-91050000D03*
X129762500Y-90550000D03*
X129762500Y-90050000D03*
X129762500Y-89550000D03*
X129762500Y-89050000D03*
D44*
X128350000Y-87637500D03*
X127850000Y-87637500D03*
X127350000Y-87637500D03*
X126850000Y-87637500D03*
X126350000Y-87637500D03*
X125850000Y-87637500D03*
X125350000Y-87637500D03*
X124850000Y-87637500D03*
X124350000Y-87637500D03*
X123850000Y-87637500D03*
X123350000Y-87637500D03*
X122850000Y-87637500D03*
%TD*%
D35*
%TO.C,L3*%
X141975000Y-130475000D03*
X131992800Y-130475000D03*
%TD*%
D41*
%TO.C,U2*%
X161575000Y-100475000D03*
X161575000Y-98775000D03*
X161575000Y-97075000D03*
D42*
X154850000Y-99850000D03*
X154850000Y-94300000D03*
X150000000Y-99850000D03*
X150000000Y-94300000D03*
D41*
X161575000Y-95375000D03*
X161575000Y-93675000D03*
%TD*%
D13*
%TO.C,C7*%
X165380000Y-99900000D03*
X168330000Y-99900000D03*
%TD*%
D15*
%TO.C,R10*%
X97965000Y-61450000D03*
X97965000Y-59800000D03*
%TD*%
D45*
%TO.C,FB1*%
X116850000Y-104400000D03*
X116850000Y-102825000D03*
%TD*%
D11*
%TO.C,U3*%
X121200000Y-125250000D03*
X122900000Y-125250000D03*
X124600000Y-125250000D03*
D12*
X121825000Y-118525000D03*
X127375000Y-118525000D03*
X121825000Y-113675000D03*
X127375000Y-113675000D03*
D11*
X126300000Y-125250000D03*
X128000000Y-125250000D03*
%TD*%
D17*
%TO.C,C28*%
X169595000Y-74970000D03*
X171145000Y-74970000D03*
%TD*%
%TO.C,C29*%
X169570000Y-76670000D03*
X171120000Y-76670000D03*
%TD*%
D10*
%TO.C,C17*%
X115200000Y-89050000D03*
X115200000Y-90600000D03*
%TD*%
D46*
%TO.C,R15*%
X99875000Y-75400000D03*
X98225000Y-75400000D03*
%TD*%
D47*
%TO.C,U6*%
X82450000Y-58900000D03*
X81500000Y-58900000D03*
X80550000Y-58900000D03*
X80550000Y-61175000D03*
X82450000Y-61175000D03*
%TD*%
D21*
%TO.C,R3*%
X154350000Y-89300000D03*
X156000000Y-89300000D03*
%TD*%
D32*
%TO.C,C1*%
X87100000Y-129080000D03*
X87100000Y-132030000D03*
%TD*%
M02*
