%TF.GenerationSoftware,KiCad,Pcbnew,7.0.6*%
%TF.CreationDate,2023-08-10T11:02:31+03:00*%
%TF.ProjectId,2023-staj-projesi,32303233-2d73-4746-916a-2d70726f6a65,1.0*%
%TF.SameCoordinates,Original*%
%TF.FileFunction,Drillmap*%
%TF.FilePolarity,Positive*%
%FSLAX45Y45*%
G04 Gerber Fmt 4.5, Leading zero omitted, Abs format (unit mm)*
G04 Created by KiCad (PCBNEW 7.0.6) date 2023-08-10 11:02:31*
%MOMM*%
%LPD*%
G01*
G04 APERTURE LIST*
%ADD10C,0.100000*%
%ADD11C,0.200000*%
%ADD12C,0.090000*%
%ADD13C,0.250000*%
G04 APERTURE END LIST*
D10*
X6350000Y-4318000D02*
X6350000Y-13716000D01*
X17526000Y-4318000D02*
G75*
G03*
X17272000Y-4064000I-254000J0D01*
G01*
X17526000Y-13716000D02*
X17526000Y-4318000D01*
X6350000Y-13716000D02*
G75*
G03*
X6604000Y-13970000I254000J0D01*
G01*
X17272000Y-4064000D02*
X6604000Y-4064000D01*
X17272000Y-13970000D02*
G75*
G03*
X17526000Y-13716000I0J254000D01*
G01*
X6604000Y-4064000D02*
G75*
G03*
X6350000Y-4318000I0J-254000D01*
G01*
X6604000Y-13970000D02*
X17272000Y-13970000D01*
D11*
D12*
X16882500Y-12055000D02*
X16972500Y-12145000D01*
X16972500Y-12055000D02*
X16882500Y-12145000D01*
X16882500Y-12495000D02*
X16972500Y-12585000D01*
X16972500Y-12495000D02*
X16882500Y-12585000D01*
D13*
X12014500Y-4390500D02*
G75*
G03*
X12014500Y-4390500I-125000J0D01*
G01*
X12014500Y-6590500D02*
G75*
G03*
X12014500Y-6590500I-125000J0D01*
G01*
X14214500Y-4390500D02*
G75*
G03*
X14214500Y-4390500I-125000J0D01*
G01*
X14214500Y-6590500D02*
G75*
G03*
X14214500Y-6590500I-125000J0D01*
G01*
D11*
X6605777Y-14286484D02*
X6605777Y-14086484D01*
X6605777Y-14086484D02*
X6653396Y-14086484D01*
X6653396Y-14086484D02*
X6681967Y-14096008D01*
X6681967Y-14096008D02*
X6701015Y-14115055D01*
X6701015Y-14115055D02*
X6710539Y-14134103D01*
X6710539Y-14134103D02*
X6720062Y-14172198D01*
X6720062Y-14172198D02*
X6720062Y-14200769D01*
X6720062Y-14200769D02*
X6710539Y-14238865D01*
X6710539Y-14238865D02*
X6701015Y-14257912D01*
X6701015Y-14257912D02*
X6681967Y-14276960D01*
X6681967Y-14276960D02*
X6653396Y-14286484D01*
X6653396Y-14286484D02*
X6605777Y-14286484D01*
X6805777Y-14286484D02*
X6805777Y-14153150D01*
X6805777Y-14191246D02*
X6815301Y-14172198D01*
X6815301Y-14172198D02*
X6824824Y-14162674D01*
X6824824Y-14162674D02*
X6843872Y-14153150D01*
X6843872Y-14153150D02*
X6862920Y-14153150D01*
X6929586Y-14286484D02*
X6929586Y-14153150D01*
X6929586Y-14086484D02*
X6920062Y-14096008D01*
X6920062Y-14096008D02*
X6929586Y-14105531D01*
X6929586Y-14105531D02*
X6939110Y-14096008D01*
X6939110Y-14096008D02*
X6929586Y-14086484D01*
X6929586Y-14086484D02*
X6929586Y-14105531D01*
X7053396Y-14286484D02*
X7034348Y-14276960D01*
X7034348Y-14276960D02*
X7024824Y-14257912D01*
X7024824Y-14257912D02*
X7024824Y-14086484D01*
X7158158Y-14286484D02*
X7139110Y-14276960D01*
X7139110Y-14276960D02*
X7129586Y-14257912D01*
X7129586Y-14257912D02*
X7129586Y-14086484D01*
X7386729Y-14286484D02*
X7386729Y-14086484D01*
X7386729Y-14086484D02*
X7453396Y-14229341D01*
X7453396Y-14229341D02*
X7520062Y-14086484D01*
X7520062Y-14086484D02*
X7520062Y-14286484D01*
X7701015Y-14286484D02*
X7701015Y-14181722D01*
X7701015Y-14181722D02*
X7691491Y-14162674D01*
X7691491Y-14162674D02*
X7672443Y-14153150D01*
X7672443Y-14153150D02*
X7634348Y-14153150D01*
X7634348Y-14153150D02*
X7615301Y-14162674D01*
X7701015Y-14276960D02*
X7681967Y-14286484D01*
X7681967Y-14286484D02*
X7634348Y-14286484D01*
X7634348Y-14286484D02*
X7615301Y-14276960D01*
X7615301Y-14276960D02*
X7605777Y-14257912D01*
X7605777Y-14257912D02*
X7605777Y-14238865D01*
X7605777Y-14238865D02*
X7615301Y-14219817D01*
X7615301Y-14219817D02*
X7634348Y-14210293D01*
X7634348Y-14210293D02*
X7681967Y-14210293D01*
X7681967Y-14210293D02*
X7701015Y-14200769D01*
X7796253Y-14153150D02*
X7796253Y-14353150D01*
X7796253Y-14162674D02*
X7815301Y-14153150D01*
X7815301Y-14153150D02*
X7853396Y-14153150D01*
X7853396Y-14153150D02*
X7872443Y-14162674D01*
X7872443Y-14162674D02*
X7881967Y-14172198D01*
X7881967Y-14172198D02*
X7891491Y-14191246D01*
X7891491Y-14191246D02*
X7891491Y-14248388D01*
X7891491Y-14248388D02*
X7881967Y-14267436D01*
X7881967Y-14267436D02*
X7872443Y-14276960D01*
X7872443Y-14276960D02*
X7853396Y-14286484D01*
X7853396Y-14286484D02*
X7815301Y-14286484D01*
X7815301Y-14286484D02*
X7796253Y-14276960D01*
X7977205Y-14267436D02*
X7986729Y-14276960D01*
X7986729Y-14276960D02*
X7977205Y-14286484D01*
X7977205Y-14286484D02*
X7967682Y-14276960D01*
X7967682Y-14276960D02*
X7977205Y-14267436D01*
X7977205Y-14267436D02*
X7977205Y-14286484D01*
X7977205Y-14162674D02*
X7986729Y-14172198D01*
X7986729Y-14172198D02*
X7977205Y-14181722D01*
X7977205Y-14181722D02*
X7967682Y-14172198D01*
X7967682Y-14172198D02*
X7977205Y-14162674D01*
X7977205Y-14162674D02*
X7977205Y-14181722D01*
D12*
X6255000Y-14570000D02*
X6345000Y-14660000D01*
X6345000Y-14570000D02*
X6255000Y-14660000D01*
D11*
X6643872Y-14506484D02*
X6662920Y-14506484D01*
X6662920Y-14506484D02*
X6681967Y-14516008D01*
X6681967Y-14516008D02*
X6691491Y-14525531D01*
X6691491Y-14525531D02*
X6701015Y-14544579D01*
X6701015Y-14544579D02*
X6710539Y-14582674D01*
X6710539Y-14582674D02*
X6710539Y-14630293D01*
X6710539Y-14630293D02*
X6701015Y-14668388D01*
X6701015Y-14668388D02*
X6691491Y-14687436D01*
X6691491Y-14687436D02*
X6681967Y-14696960D01*
X6681967Y-14696960D02*
X6662920Y-14706484D01*
X6662920Y-14706484D02*
X6643872Y-14706484D01*
X6643872Y-14706484D02*
X6624824Y-14696960D01*
X6624824Y-14696960D02*
X6615301Y-14687436D01*
X6615301Y-14687436D02*
X6605777Y-14668388D01*
X6605777Y-14668388D02*
X6596253Y-14630293D01*
X6596253Y-14630293D02*
X6596253Y-14582674D01*
X6596253Y-14582674D02*
X6605777Y-14544579D01*
X6605777Y-14544579D02*
X6615301Y-14525531D01*
X6615301Y-14525531D02*
X6624824Y-14516008D01*
X6624824Y-14516008D02*
X6643872Y-14506484D01*
X6796253Y-14687436D02*
X6805777Y-14696960D01*
X6805777Y-14696960D02*
X6796253Y-14706484D01*
X6796253Y-14706484D02*
X6786729Y-14696960D01*
X6786729Y-14696960D02*
X6796253Y-14687436D01*
X6796253Y-14687436D02*
X6796253Y-14706484D01*
X6901015Y-14706484D02*
X6939110Y-14706484D01*
X6939110Y-14706484D02*
X6958158Y-14696960D01*
X6958158Y-14696960D02*
X6967682Y-14687436D01*
X6967682Y-14687436D02*
X6986729Y-14658865D01*
X6986729Y-14658865D02*
X6996253Y-14620769D01*
X6996253Y-14620769D02*
X6996253Y-14544579D01*
X6996253Y-14544579D02*
X6986729Y-14525531D01*
X6986729Y-14525531D02*
X6977205Y-14516008D01*
X6977205Y-14516008D02*
X6958158Y-14506484D01*
X6958158Y-14506484D02*
X6920062Y-14506484D01*
X6920062Y-14506484D02*
X6901015Y-14516008D01*
X6901015Y-14516008D02*
X6891491Y-14525531D01*
X6891491Y-14525531D02*
X6881967Y-14544579D01*
X6881967Y-14544579D02*
X6881967Y-14592198D01*
X6881967Y-14592198D02*
X6891491Y-14611246D01*
X6891491Y-14611246D02*
X6901015Y-14620769D01*
X6901015Y-14620769D02*
X6920062Y-14630293D01*
X6920062Y-14630293D02*
X6958158Y-14630293D01*
X6958158Y-14630293D02*
X6977205Y-14620769D01*
X6977205Y-14620769D02*
X6986729Y-14611246D01*
X6986729Y-14611246D02*
X6996253Y-14592198D01*
X7120062Y-14506484D02*
X7139110Y-14506484D01*
X7139110Y-14506484D02*
X7158158Y-14516008D01*
X7158158Y-14516008D02*
X7167682Y-14525531D01*
X7167682Y-14525531D02*
X7177205Y-14544579D01*
X7177205Y-14544579D02*
X7186729Y-14582674D01*
X7186729Y-14582674D02*
X7186729Y-14630293D01*
X7186729Y-14630293D02*
X7177205Y-14668388D01*
X7177205Y-14668388D02*
X7167682Y-14687436D01*
X7167682Y-14687436D02*
X7158158Y-14696960D01*
X7158158Y-14696960D02*
X7139110Y-14706484D01*
X7139110Y-14706484D02*
X7120062Y-14706484D01*
X7120062Y-14706484D02*
X7101015Y-14696960D01*
X7101015Y-14696960D02*
X7091491Y-14687436D01*
X7091491Y-14687436D02*
X7081967Y-14668388D01*
X7081967Y-14668388D02*
X7072443Y-14630293D01*
X7072443Y-14630293D02*
X7072443Y-14582674D01*
X7072443Y-14582674D02*
X7081967Y-14544579D01*
X7081967Y-14544579D02*
X7091491Y-14525531D01*
X7091491Y-14525531D02*
X7101015Y-14516008D01*
X7101015Y-14516008D02*
X7120062Y-14506484D01*
X7310539Y-14506484D02*
X7329586Y-14506484D01*
X7329586Y-14506484D02*
X7348634Y-14516008D01*
X7348634Y-14516008D02*
X7358158Y-14525531D01*
X7358158Y-14525531D02*
X7367682Y-14544579D01*
X7367682Y-14544579D02*
X7377205Y-14582674D01*
X7377205Y-14582674D02*
X7377205Y-14630293D01*
X7377205Y-14630293D02*
X7367682Y-14668388D01*
X7367682Y-14668388D02*
X7358158Y-14687436D01*
X7358158Y-14687436D02*
X7348634Y-14696960D01*
X7348634Y-14696960D02*
X7329586Y-14706484D01*
X7329586Y-14706484D02*
X7310539Y-14706484D01*
X7310539Y-14706484D02*
X7291491Y-14696960D01*
X7291491Y-14696960D02*
X7281967Y-14687436D01*
X7281967Y-14687436D02*
X7272443Y-14668388D01*
X7272443Y-14668388D02*
X7262920Y-14630293D01*
X7262920Y-14630293D02*
X7262920Y-14582674D01*
X7262920Y-14582674D02*
X7272443Y-14544579D01*
X7272443Y-14544579D02*
X7281967Y-14525531D01*
X7281967Y-14525531D02*
X7291491Y-14516008D01*
X7291491Y-14516008D02*
X7310539Y-14506484D01*
X7462920Y-14706484D02*
X7462920Y-14573150D01*
X7462920Y-14592198D02*
X7472443Y-14582674D01*
X7472443Y-14582674D02*
X7491491Y-14573150D01*
X7491491Y-14573150D02*
X7520063Y-14573150D01*
X7520063Y-14573150D02*
X7539110Y-14582674D01*
X7539110Y-14582674D02*
X7548634Y-14601722D01*
X7548634Y-14601722D02*
X7548634Y-14706484D01*
X7548634Y-14601722D02*
X7558158Y-14582674D01*
X7558158Y-14582674D02*
X7577205Y-14573150D01*
X7577205Y-14573150D02*
X7605777Y-14573150D01*
X7605777Y-14573150D02*
X7624824Y-14582674D01*
X7624824Y-14582674D02*
X7634348Y-14601722D01*
X7634348Y-14601722D02*
X7634348Y-14706484D01*
X7729586Y-14706484D02*
X7729586Y-14573150D01*
X7729586Y-14592198D02*
X7739110Y-14582674D01*
X7739110Y-14582674D02*
X7758158Y-14573150D01*
X7758158Y-14573150D02*
X7786729Y-14573150D01*
X7786729Y-14573150D02*
X7805777Y-14582674D01*
X7805777Y-14582674D02*
X7815301Y-14601722D01*
X7815301Y-14601722D02*
X7815301Y-14706484D01*
X7815301Y-14601722D02*
X7824824Y-14582674D01*
X7824824Y-14582674D02*
X7843872Y-14573150D01*
X7843872Y-14573150D02*
X7872443Y-14573150D01*
X7872443Y-14573150D02*
X7891491Y-14582674D01*
X7891491Y-14582674D02*
X7901015Y-14601722D01*
X7901015Y-14601722D02*
X7901015Y-14706484D01*
X8291491Y-14496960D02*
X8120063Y-14754103D01*
X8548634Y-14506484D02*
X8567682Y-14506484D01*
X8567682Y-14506484D02*
X8586729Y-14516008D01*
X8586729Y-14516008D02*
X8596253Y-14525531D01*
X8596253Y-14525531D02*
X8605777Y-14544579D01*
X8605777Y-14544579D02*
X8615301Y-14582674D01*
X8615301Y-14582674D02*
X8615301Y-14630293D01*
X8615301Y-14630293D02*
X8605777Y-14668388D01*
X8605777Y-14668388D02*
X8596253Y-14687436D01*
X8596253Y-14687436D02*
X8586729Y-14696960D01*
X8586729Y-14696960D02*
X8567682Y-14706484D01*
X8567682Y-14706484D02*
X8548634Y-14706484D01*
X8548634Y-14706484D02*
X8529587Y-14696960D01*
X8529587Y-14696960D02*
X8520063Y-14687436D01*
X8520063Y-14687436D02*
X8510539Y-14668388D01*
X8510539Y-14668388D02*
X8501015Y-14630293D01*
X8501015Y-14630293D02*
X8501015Y-14582674D01*
X8501015Y-14582674D02*
X8510539Y-14544579D01*
X8510539Y-14544579D02*
X8520063Y-14525531D01*
X8520063Y-14525531D02*
X8529587Y-14516008D01*
X8529587Y-14516008D02*
X8548634Y-14506484D01*
X8701015Y-14687436D02*
X8710539Y-14696960D01*
X8710539Y-14696960D02*
X8701015Y-14706484D01*
X8701015Y-14706484D02*
X8691491Y-14696960D01*
X8691491Y-14696960D02*
X8701015Y-14687436D01*
X8701015Y-14687436D02*
X8701015Y-14706484D01*
X8834348Y-14506484D02*
X8853396Y-14506484D01*
X8853396Y-14506484D02*
X8872444Y-14516008D01*
X8872444Y-14516008D02*
X8881968Y-14525531D01*
X8881968Y-14525531D02*
X8891491Y-14544579D01*
X8891491Y-14544579D02*
X8901015Y-14582674D01*
X8901015Y-14582674D02*
X8901015Y-14630293D01*
X8901015Y-14630293D02*
X8891491Y-14668388D01*
X8891491Y-14668388D02*
X8881968Y-14687436D01*
X8881968Y-14687436D02*
X8872444Y-14696960D01*
X8872444Y-14696960D02*
X8853396Y-14706484D01*
X8853396Y-14706484D02*
X8834348Y-14706484D01*
X8834348Y-14706484D02*
X8815301Y-14696960D01*
X8815301Y-14696960D02*
X8805777Y-14687436D01*
X8805777Y-14687436D02*
X8796253Y-14668388D01*
X8796253Y-14668388D02*
X8786729Y-14630293D01*
X8786729Y-14630293D02*
X8786729Y-14582674D01*
X8786729Y-14582674D02*
X8796253Y-14544579D01*
X8796253Y-14544579D02*
X8805777Y-14525531D01*
X8805777Y-14525531D02*
X8815301Y-14516008D01*
X8815301Y-14516008D02*
X8834348Y-14506484D01*
X8967682Y-14506484D02*
X9091491Y-14506484D01*
X9091491Y-14506484D02*
X9024825Y-14582674D01*
X9024825Y-14582674D02*
X9053396Y-14582674D01*
X9053396Y-14582674D02*
X9072444Y-14592198D01*
X9072444Y-14592198D02*
X9081968Y-14601722D01*
X9081968Y-14601722D02*
X9091491Y-14620769D01*
X9091491Y-14620769D02*
X9091491Y-14668388D01*
X9091491Y-14668388D02*
X9081968Y-14687436D01*
X9081968Y-14687436D02*
X9072444Y-14696960D01*
X9072444Y-14696960D02*
X9053396Y-14706484D01*
X9053396Y-14706484D02*
X8996253Y-14706484D01*
X8996253Y-14706484D02*
X8977206Y-14696960D01*
X8977206Y-14696960D02*
X8967682Y-14687436D01*
X9272444Y-14506484D02*
X9177206Y-14506484D01*
X9177206Y-14506484D02*
X9167682Y-14601722D01*
X9167682Y-14601722D02*
X9177206Y-14592198D01*
X9177206Y-14592198D02*
X9196253Y-14582674D01*
X9196253Y-14582674D02*
X9243872Y-14582674D01*
X9243872Y-14582674D02*
X9262920Y-14592198D01*
X9262920Y-14592198D02*
X9272444Y-14601722D01*
X9272444Y-14601722D02*
X9281968Y-14620769D01*
X9281968Y-14620769D02*
X9281968Y-14668388D01*
X9281968Y-14668388D02*
X9272444Y-14687436D01*
X9272444Y-14687436D02*
X9262920Y-14696960D01*
X9262920Y-14696960D02*
X9243872Y-14706484D01*
X9243872Y-14706484D02*
X9196253Y-14706484D01*
X9196253Y-14706484D02*
X9177206Y-14696960D01*
X9177206Y-14696960D02*
X9167682Y-14687436D01*
X9453396Y-14573150D02*
X9453396Y-14706484D01*
X9405777Y-14496960D02*
X9358158Y-14639817D01*
X9358158Y-14639817D02*
X9481968Y-14639817D01*
X9548634Y-14506484D02*
X9548634Y-14544579D01*
X9624825Y-14506484D02*
X9624825Y-14544579D01*
X9920063Y-14782674D02*
X9910539Y-14773150D01*
X9910539Y-14773150D02*
X9891491Y-14744579D01*
X9891491Y-14744579D02*
X9881968Y-14725531D01*
X9881968Y-14725531D02*
X9872444Y-14696960D01*
X9872444Y-14696960D02*
X9862920Y-14649341D01*
X9862920Y-14649341D02*
X9862920Y-14611246D01*
X9862920Y-14611246D02*
X9872444Y-14563627D01*
X9872444Y-14563627D02*
X9881968Y-14535055D01*
X9881968Y-14535055D02*
X9891491Y-14516008D01*
X9891491Y-14516008D02*
X9910539Y-14487436D01*
X9910539Y-14487436D02*
X9920063Y-14477912D01*
X9986730Y-14525531D02*
X9996253Y-14516008D01*
X9996253Y-14516008D02*
X10015301Y-14506484D01*
X10015301Y-14506484D02*
X10062920Y-14506484D01*
X10062920Y-14506484D02*
X10081968Y-14516008D01*
X10081968Y-14516008D02*
X10091491Y-14525531D01*
X10091491Y-14525531D02*
X10101015Y-14544579D01*
X10101015Y-14544579D02*
X10101015Y-14563627D01*
X10101015Y-14563627D02*
X10091491Y-14592198D01*
X10091491Y-14592198D02*
X9977206Y-14706484D01*
X9977206Y-14706484D02*
X10101015Y-14706484D01*
X10339111Y-14706484D02*
X10339111Y-14506484D01*
X10424825Y-14706484D02*
X10424825Y-14601722D01*
X10424825Y-14601722D02*
X10415301Y-14582674D01*
X10415301Y-14582674D02*
X10396253Y-14573150D01*
X10396253Y-14573150D02*
X10367682Y-14573150D01*
X10367682Y-14573150D02*
X10348634Y-14582674D01*
X10348634Y-14582674D02*
X10339111Y-14592198D01*
X10548634Y-14706484D02*
X10529587Y-14696960D01*
X10529587Y-14696960D02*
X10520063Y-14687436D01*
X10520063Y-14687436D02*
X10510539Y-14668388D01*
X10510539Y-14668388D02*
X10510539Y-14611246D01*
X10510539Y-14611246D02*
X10520063Y-14592198D01*
X10520063Y-14592198D02*
X10529587Y-14582674D01*
X10529587Y-14582674D02*
X10548634Y-14573150D01*
X10548634Y-14573150D02*
X10577206Y-14573150D01*
X10577206Y-14573150D02*
X10596253Y-14582674D01*
X10596253Y-14582674D02*
X10605777Y-14592198D01*
X10605777Y-14592198D02*
X10615301Y-14611246D01*
X10615301Y-14611246D02*
X10615301Y-14668388D01*
X10615301Y-14668388D02*
X10605777Y-14687436D01*
X10605777Y-14687436D02*
X10596253Y-14696960D01*
X10596253Y-14696960D02*
X10577206Y-14706484D01*
X10577206Y-14706484D02*
X10548634Y-14706484D01*
X10729587Y-14706484D02*
X10710539Y-14696960D01*
X10710539Y-14696960D02*
X10701015Y-14677912D01*
X10701015Y-14677912D02*
X10701015Y-14506484D01*
X10881968Y-14696960D02*
X10862920Y-14706484D01*
X10862920Y-14706484D02*
X10824825Y-14706484D01*
X10824825Y-14706484D02*
X10805777Y-14696960D01*
X10805777Y-14696960D02*
X10796253Y-14677912D01*
X10796253Y-14677912D02*
X10796253Y-14601722D01*
X10796253Y-14601722D02*
X10805777Y-14582674D01*
X10805777Y-14582674D02*
X10824825Y-14573150D01*
X10824825Y-14573150D02*
X10862920Y-14573150D01*
X10862920Y-14573150D02*
X10881968Y-14582674D01*
X10881968Y-14582674D02*
X10891492Y-14601722D01*
X10891492Y-14601722D02*
X10891492Y-14620769D01*
X10891492Y-14620769D02*
X10796253Y-14639817D01*
X10967682Y-14696960D02*
X10986730Y-14706484D01*
X10986730Y-14706484D02*
X11024825Y-14706484D01*
X11024825Y-14706484D02*
X11043873Y-14696960D01*
X11043873Y-14696960D02*
X11053396Y-14677912D01*
X11053396Y-14677912D02*
X11053396Y-14668388D01*
X11053396Y-14668388D02*
X11043873Y-14649341D01*
X11043873Y-14649341D02*
X11024825Y-14639817D01*
X11024825Y-14639817D02*
X10996253Y-14639817D01*
X10996253Y-14639817D02*
X10977206Y-14630293D01*
X10977206Y-14630293D02*
X10967682Y-14611246D01*
X10967682Y-14611246D02*
X10967682Y-14601722D01*
X10967682Y-14601722D02*
X10977206Y-14582674D01*
X10977206Y-14582674D02*
X10996253Y-14573150D01*
X10996253Y-14573150D02*
X11024825Y-14573150D01*
X11024825Y-14573150D02*
X11043873Y-14582674D01*
X11120063Y-14782674D02*
X11129587Y-14773150D01*
X11129587Y-14773150D02*
X11148634Y-14744579D01*
X11148634Y-14744579D02*
X11158158Y-14725531D01*
X11158158Y-14725531D02*
X11167682Y-14696960D01*
X11167682Y-14696960D02*
X11177206Y-14649341D01*
X11177206Y-14649341D02*
X11177206Y-14611246D01*
X11177206Y-14611246D02*
X11167682Y-14563627D01*
X11167682Y-14563627D02*
X11158158Y-14535055D01*
X11158158Y-14535055D02*
X11148634Y-14516008D01*
X11148634Y-14516008D02*
X11129587Y-14487436D01*
X11129587Y-14487436D02*
X11120063Y-14477912D01*
X11481968Y-14782674D02*
X11472444Y-14773150D01*
X11472444Y-14773150D02*
X11453396Y-14744579D01*
X11453396Y-14744579D02*
X11443872Y-14725531D01*
X11443872Y-14725531D02*
X11434349Y-14696960D01*
X11434349Y-14696960D02*
X11424825Y-14649341D01*
X11424825Y-14649341D02*
X11424825Y-14611246D01*
X11424825Y-14611246D02*
X11434349Y-14563627D01*
X11434349Y-14563627D02*
X11443872Y-14535055D01*
X11443872Y-14535055D02*
X11453396Y-14516008D01*
X11453396Y-14516008D02*
X11472444Y-14487436D01*
X11472444Y-14487436D02*
X11481968Y-14477912D01*
X11558158Y-14573150D02*
X11558158Y-14706484D01*
X11558158Y-14592198D02*
X11567682Y-14582674D01*
X11567682Y-14582674D02*
X11586730Y-14573150D01*
X11586730Y-14573150D02*
X11615301Y-14573150D01*
X11615301Y-14573150D02*
X11634349Y-14582674D01*
X11634349Y-14582674D02*
X11643872Y-14601722D01*
X11643872Y-14601722D02*
X11643872Y-14706484D01*
X11767682Y-14706484D02*
X11748634Y-14696960D01*
X11748634Y-14696960D02*
X11739111Y-14687436D01*
X11739111Y-14687436D02*
X11729587Y-14668388D01*
X11729587Y-14668388D02*
X11729587Y-14611246D01*
X11729587Y-14611246D02*
X11739111Y-14592198D01*
X11739111Y-14592198D02*
X11748634Y-14582674D01*
X11748634Y-14582674D02*
X11767682Y-14573150D01*
X11767682Y-14573150D02*
X11796253Y-14573150D01*
X11796253Y-14573150D02*
X11815301Y-14582674D01*
X11815301Y-14582674D02*
X11824825Y-14592198D01*
X11824825Y-14592198D02*
X11834349Y-14611246D01*
X11834349Y-14611246D02*
X11834349Y-14668388D01*
X11834349Y-14668388D02*
X11824825Y-14687436D01*
X11824825Y-14687436D02*
X11815301Y-14696960D01*
X11815301Y-14696960D02*
X11796253Y-14706484D01*
X11796253Y-14706484D02*
X11767682Y-14706484D01*
X11891492Y-14573150D02*
X11967682Y-14573150D01*
X11920063Y-14506484D02*
X11920063Y-14677912D01*
X11920063Y-14677912D02*
X11929587Y-14696960D01*
X11929587Y-14696960D02*
X11948634Y-14706484D01*
X11948634Y-14706484D02*
X11967682Y-14706484D01*
X12186730Y-14573150D02*
X12186730Y-14773150D01*
X12186730Y-14582674D02*
X12205777Y-14573150D01*
X12205777Y-14573150D02*
X12243873Y-14573150D01*
X12243873Y-14573150D02*
X12262920Y-14582674D01*
X12262920Y-14582674D02*
X12272444Y-14592198D01*
X12272444Y-14592198D02*
X12281968Y-14611246D01*
X12281968Y-14611246D02*
X12281968Y-14668388D01*
X12281968Y-14668388D02*
X12272444Y-14687436D01*
X12272444Y-14687436D02*
X12262920Y-14696960D01*
X12262920Y-14696960D02*
X12243873Y-14706484D01*
X12243873Y-14706484D02*
X12205777Y-14706484D01*
X12205777Y-14706484D02*
X12186730Y-14696960D01*
X12396253Y-14706484D02*
X12377206Y-14696960D01*
X12377206Y-14696960D02*
X12367682Y-14677912D01*
X12367682Y-14677912D02*
X12367682Y-14506484D01*
X12558158Y-14706484D02*
X12558158Y-14601722D01*
X12558158Y-14601722D02*
X12548634Y-14582674D01*
X12548634Y-14582674D02*
X12529587Y-14573150D01*
X12529587Y-14573150D02*
X12491492Y-14573150D01*
X12491492Y-14573150D02*
X12472444Y-14582674D01*
X12558158Y-14696960D02*
X12539111Y-14706484D01*
X12539111Y-14706484D02*
X12491492Y-14706484D01*
X12491492Y-14706484D02*
X12472444Y-14696960D01*
X12472444Y-14696960D02*
X12462920Y-14677912D01*
X12462920Y-14677912D02*
X12462920Y-14658865D01*
X12462920Y-14658865D02*
X12472444Y-14639817D01*
X12472444Y-14639817D02*
X12491492Y-14630293D01*
X12491492Y-14630293D02*
X12539111Y-14630293D01*
X12539111Y-14630293D02*
X12558158Y-14620769D01*
X12624825Y-14573150D02*
X12701015Y-14573150D01*
X12653396Y-14506484D02*
X12653396Y-14677912D01*
X12653396Y-14677912D02*
X12662920Y-14696960D01*
X12662920Y-14696960D02*
X12681968Y-14706484D01*
X12681968Y-14706484D02*
X12701015Y-14706484D01*
X12843873Y-14696960D02*
X12824825Y-14706484D01*
X12824825Y-14706484D02*
X12786730Y-14706484D01*
X12786730Y-14706484D02*
X12767682Y-14696960D01*
X12767682Y-14696960D02*
X12758158Y-14677912D01*
X12758158Y-14677912D02*
X12758158Y-14601722D01*
X12758158Y-14601722D02*
X12767682Y-14582674D01*
X12767682Y-14582674D02*
X12786730Y-14573150D01*
X12786730Y-14573150D02*
X12824825Y-14573150D01*
X12824825Y-14573150D02*
X12843873Y-14582674D01*
X12843873Y-14582674D02*
X12853396Y-14601722D01*
X12853396Y-14601722D02*
X12853396Y-14620769D01*
X12853396Y-14620769D02*
X12758158Y-14639817D01*
X13024825Y-14706484D02*
X13024825Y-14506484D01*
X13024825Y-14696960D02*
X13005777Y-14706484D01*
X13005777Y-14706484D02*
X12967682Y-14706484D01*
X12967682Y-14706484D02*
X12948634Y-14696960D01*
X12948634Y-14696960D02*
X12939111Y-14687436D01*
X12939111Y-14687436D02*
X12929587Y-14668388D01*
X12929587Y-14668388D02*
X12929587Y-14611246D01*
X12929587Y-14611246D02*
X12939111Y-14592198D01*
X12939111Y-14592198D02*
X12948634Y-14582674D01*
X12948634Y-14582674D02*
X12967682Y-14573150D01*
X12967682Y-14573150D02*
X13005777Y-14573150D01*
X13005777Y-14573150D02*
X13024825Y-14582674D01*
X13101015Y-14782674D02*
X13110539Y-14773150D01*
X13110539Y-14773150D02*
X13129587Y-14744579D01*
X13129587Y-14744579D02*
X13139111Y-14725531D01*
X13139111Y-14725531D02*
X13148634Y-14696960D01*
X13148634Y-14696960D02*
X13158158Y-14649341D01*
X13158158Y-14649341D02*
X13158158Y-14611246D01*
X13158158Y-14611246D02*
X13148634Y-14563627D01*
X13148634Y-14563627D02*
X13139111Y-14535055D01*
X13139111Y-14535055D02*
X13129587Y-14516008D01*
X13129587Y-14516008D02*
X13110539Y-14487436D01*
X13110539Y-14487436D02*
X13101015Y-14477912D01*
X6345000Y-14879000D02*
G75*
G03*
X6345000Y-14879000I-100000J0D01*
G01*
X6596253Y-14789531D02*
X6605777Y-14780008D01*
X6605777Y-14780008D02*
X6624824Y-14770484D01*
X6624824Y-14770484D02*
X6672443Y-14770484D01*
X6672443Y-14770484D02*
X6691491Y-14780008D01*
X6691491Y-14780008D02*
X6701015Y-14789531D01*
X6701015Y-14789531D02*
X6710539Y-14808579D01*
X6710539Y-14808579D02*
X6710539Y-14827627D01*
X6710539Y-14827627D02*
X6701015Y-14856198D01*
X6701015Y-14856198D02*
X6586729Y-14970484D01*
X6586729Y-14970484D02*
X6710539Y-14970484D01*
X6796253Y-14951436D02*
X6805777Y-14960960D01*
X6805777Y-14960960D02*
X6796253Y-14970484D01*
X6796253Y-14970484D02*
X6786729Y-14960960D01*
X6786729Y-14960960D02*
X6796253Y-14951436D01*
X6796253Y-14951436D02*
X6796253Y-14970484D01*
X6986729Y-14770484D02*
X6891491Y-14770484D01*
X6891491Y-14770484D02*
X6881967Y-14865722D01*
X6881967Y-14865722D02*
X6891491Y-14856198D01*
X6891491Y-14856198D02*
X6910539Y-14846674D01*
X6910539Y-14846674D02*
X6958158Y-14846674D01*
X6958158Y-14846674D02*
X6977205Y-14856198D01*
X6977205Y-14856198D02*
X6986729Y-14865722D01*
X6986729Y-14865722D02*
X6996253Y-14884769D01*
X6996253Y-14884769D02*
X6996253Y-14932388D01*
X6996253Y-14932388D02*
X6986729Y-14951436D01*
X6986729Y-14951436D02*
X6977205Y-14960960D01*
X6977205Y-14960960D02*
X6958158Y-14970484D01*
X6958158Y-14970484D02*
X6910539Y-14970484D01*
X6910539Y-14970484D02*
X6891491Y-14960960D01*
X6891491Y-14960960D02*
X6881967Y-14951436D01*
X7120062Y-14770484D02*
X7139110Y-14770484D01*
X7139110Y-14770484D02*
X7158158Y-14780008D01*
X7158158Y-14780008D02*
X7167682Y-14789531D01*
X7167682Y-14789531D02*
X7177205Y-14808579D01*
X7177205Y-14808579D02*
X7186729Y-14846674D01*
X7186729Y-14846674D02*
X7186729Y-14894293D01*
X7186729Y-14894293D02*
X7177205Y-14932388D01*
X7177205Y-14932388D02*
X7167682Y-14951436D01*
X7167682Y-14951436D02*
X7158158Y-14960960D01*
X7158158Y-14960960D02*
X7139110Y-14970484D01*
X7139110Y-14970484D02*
X7120062Y-14970484D01*
X7120062Y-14970484D02*
X7101015Y-14960960D01*
X7101015Y-14960960D02*
X7091491Y-14951436D01*
X7091491Y-14951436D02*
X7081967Y-14932388D01*
X7081967Y-14932388D02*
X7072443Y-14894293D01*
X7072443Y-14894293D02*
X7072443Y-14846674D01*
X7072443Y-14846674D02*
X7081967Y-14808579D01*
X7081967Y-14808579D02*
X7091491Y-14789531D01*
X7091491Y-14789531D02*
X7101015Y-14780008D01*
X7101015Y-14780008D02*
X7120062Y-14770484D01*
X7310539Y-14770484D02*
X7329586Y-14770484D01*
X7329586Y-14770484D02*
X7348634Y-14780008D01*
X7348634Y-14780008D02*
X7358158Y-14789531D01*
X7358158Y-14789531D02*
X7367682Y-14808579D01*
X7367682Y-14808579D02*
X7377205Y-14846674D01*
X7377205Y-14846674D02*
X7377205Y-14894293D01*
X7377205Y-14894293D02*
X7367682Y-14932388D01*
X7367682Y-14932388D02*
X7358158Y-14951436D01*
X7358158Y-14951436D02*
X7348634Y-14960960D01*
X7348634Y-14960960D02*
X7329586Y-14970484D01*
X7329586Y-14970484D02*
X7310539Y-14970484D01*
X7310539Y-14970484D02*
X7291491Y-14960960D01*
X7291491Y-14960960D02*
X7281967Y-14951436D01*
X7281967Y-14951436D02*
X7272443Y-14932388D01*
X7272443Y-14932388D02*
X7262920Y-14894293D01*
X7262920Y-14894293D02*
X7262920Y-14846674D01*
X7262920Y-14846674D02*
X7272443Y-14808579D01*
X7272443Y-14808579D02*
X7281967Y-14789531D01*
X7281967Y-14789531D02*
X7291491Y-14780008D01*
X7291491Y-14780008D02*
X7310539Y-14770484D01*
X7462920Y-14970484D02*
X7462920Y-14837150D01*
X7462920Y-14856198D02*
X7472443Y-14846674D01*
X7472443Y-14846674D02*
X7491491Y-14837150D01*
X7491491Y-14837150D02*
X7520063Y-14837150D01*
X7520063Y-14837150D02*
X7539110Y-14846674D01*
X7539110Y-14846674D02*
X7548634Y-14865722D01*
X7548634Y-14865722D02*
X7548634Y-14970484D01*
X7548634Y-14865722D02*
X7558158Y-14846674D01*
X7558158Y-14846674D02*
X7577205Y-14837150D01*
X7577205Y-14837150D02*
X7605777Y-14837150D01*
X7605777Y-14837150D02*
X7624824Y-14846674D01*
X7624824Y-14846674D02*
X7634348Y-14865722D01*
X7634348Y-14865722D02*
X7634348Y-14970484D01*
X7729586Y-14970484D02*
X7729586Y-14837150D01*
X7729586Y-14856198D02*
X7739110Y-14846674D01*
X7739110Y-14846674D02*
X7758158Y-14837150D01*
X7758158Y-14837150D02*
X7786729Y-14837150D01*
X7786729Y-14837150D02*
X7805777Y-14846674D01*
X7805777Y-14846674D02*
X7815301Y-14865722D01*
X7815301Y-14865722D02*
X7815301Y-14970484D01*
X7815301Y-14865722D02*
X7824824Y-14846674D01*
X7824824Y-14846674D02*
X7843872Y-14837150D01*
X7843872Y-14837150D02*
X7872443Y-14837150D01*
X7872443Y-14837150D02*
X7891491Y-14846674D01*
X7891491Y-14846674D02*
X7901015Y-14865722D01*
X7901015Y-14865722D02*
X7901015Y-14970484D01*
X8291491Y-14760960D02*
X8120063Y-15018103D01*
X8548634Y-14770484D02*
X8567682Y-14770484D01*
X8567682Y-14770484D02*
X8586729Y-14780008D01*
X8586729Y-14780008D02*
X8596253Y-14789531D01*
X8596253Y-14789531D02*
X8605777Y-14808579D01*
X8605777Y-14808579D02*
X8615301Y-14846674D01*
X8615301Y-14846674D02*
X8615301Y-14894293D01*
X8615301Y-14894293D02*
X8605777Y-14932388D01*
X8605777Y-14932388D02*
X8596253Y-14951436D01*
X8596253Y-14951436D02*
X8586729Y-14960960D01*
X8586729Y-14960960D02*
X8567682Y-14970484D01*
X8567682Y-14970484D02*
X8548634Y-14970484D01*
X8548634Y-14970484D02*
X8529587Y-14960960D01*
X8529587Y-14960960D02*
X8520063Y-14951436D01*
X8520063Y-14951436D02*
X8510539Y-14932388D01*
X8510539Y-14932388D02*
X8501015Y-14894293D01*
X8501015Y-14894293D02*
X8501015Y-14846674D01*
X8501015Y-14846674D02*
X8510539Y-14808579D01*
X8510539Y-14808579D02*
X8520063Y-14789531D01*
X8520063Y-14789531D02*
X8529587Y-14780008D01*
X8529587Y-14780008D02*
X8548634Y-14770484D01*
X8701015Y-14951436D02*
X8710539Y-14960960D01*
X8710539Y-14960960D02*
X8701015Y-14970484D01*
X8701015Y-14970484D02*
X8691491Y-14960960D01*
X8691491Y-14960960D02*
X8701015Y-14951436D01*
X8701015Y-14951436D02*
X8701015Y-14970484D01*
X8834348Y-14770484D02*
X8853396Y-14770484D01*
X8853396Y-14770484D02*
X8872444Y-14780008D01*
X8872444Y-14780008D02*
X8881968Y-14789531D01*
X8881968Y-14789531D02*
X8891491Y-14808579D01*
X8891491Y-14808579D02*
X8901015Y-14846674D01*
X8901015Y-14846674D02*
X8901015Y-14894293D01*
X8901015Y-14894293D02*
X8891491Y-14932388D01*
X8891491Y-14932388D02*
X8881968Y-14951436D01*
X8881968Y-14951436D02*
X8872444Y-14960960D01*
X8872444Y-14960960D02*
X8853396Y-14970484D01*
X8853396Y-14970484D02*
X8834348Y-14970484D01*
X8834348Y-14970484D02*
X8815301Y-14960960D01*
X8815301Y-14960960D02*
X8805777Y-14951436D01*
X8805777Y-14951436D02*
X8796253Y-14932388D01*
X8796253Y-14932388D02*
X8786729Y-14894293D01*
X8786729Y-14894293D02*
X8786729Y-14846674D01*
X8786729Y-14846674D02*
X8796253Y-14808579D01*
X8796253Y-14808579D02*
X8805777Y-14789531D01*
X8805777Y-14789531D02*
X8815301Y-14780008D01*
X8815301Y-14780008D02*
X8834348Y-14770484D01*
X8996253Y-14970484D02*
X9034348Y-14970484D01*
X9034348Y-14970484D02*
X9053396Y-14960960D01*
X9053396Y-14960960D02*
X9062920Y-14951436D01*
X9062920Y-14951436D02*
X9081968Y-14922865D01*
X9081968Y-14922865D02*
X9091491Y-14884769D01*
X9091491Y-14884769D02*
X9091491Y-14808579D01*
X9091491Y-14808579D02*
X9081968Y-14789531D01*
X9081968Y-14789531D02*
X9072444Y-14780008D01*
X9072444Y-14780008D02*
X9053396Y-14770484D01*
X9053396Y-14770484D02*
X9015301Y-14770484D01*
X9015301Y-14770484D02*
X8996253Y-14780008D01*
X8996253Y-14780008D02*
X8986729Y-14789531D01*
X8986729Y-14789531D02*
X8977206Y-14808579D01*
X8977206Y-14808579D02*
X8977206Y-14856198D01*
X8977206Y-14856198D02*
X8986729Y-14875246D01*
X8986729Y-14875246D02*
X8996253Y-14884769D01*
X8996253Y-14884769D02*
X9015301Y-14894293D01*
X9015301Y-14894293D02*
X9053396Y-14894293D01*
X9053396Y-14894293D02*
X9072444Y-14884769D01*
X9072444Y-14884769D02*
X9081968Y-14875246D01*
X9081968Y-14875246D02*
X9091491Y-14856198D01*
X9205777Y-14856198D02*
X9186729Y-14846674D01*
X9186729Y-14846674D02*
X9177206Y-14837150D01*
X9177206Y-14837150D02*
X9167682Y-14818103D01*
X9167682Y-14818103D02*
X9167682Y-14808579D01*
X9167682Y-14808579D02*
X9177206Y-14789531D01*
X9177206Y-14789531D02*
X9186729Y-14780008D01*
X9186729Y-14780008D02*
X9205777Y-14770484D01*
X9205777Y-14770484D02*
X9243872Y-14770484D01*
X9243872Y-14770484D02*
X9262920Y-14780008D01*
X9262920Y-14780008D02*
X9272444Y-14789531D01*
X9272444Y-14789531D02*
X9281968Y-14808579D01*
X9281968Y-14808579D02*
X9281968Y-14818103D01*
X9281968Y-14818103D02*
X9272444Y-14837150D01*
X9272444Y-14837150D02*
X9262920Y-14846674D01*
X9262920Y-14846674D02*
X9243872Y-14856198D01*
X9243872Y-14856198D02*
X9205777Y-14856198D01*
X9205777Y-14856198D02*
X9186729Y-14865722D01*
X9186729Y-14865722D02*
X9177206Y-14875246D01*
X9177206Y-14875246D02*
X9167682Y-14894293D01*
X9167682Y-14894293D02*
X9167682Y-14932388D01*
X9167682Y-14932388D02*
X9177206Y-14951436D01*
X9177206Y-14951436D02*
X9186729Y-14960960D01*
X9186729Y-14960960D02*
X9205777Y-14970484D01*
X9205777Y-14970484D02*
X9243872Y-14970484D01*
X9243872Y-14970484D02*
X9262920Y-14960960D01*
X9262920Y-14960960D02*
X9272444Y-14951436D01*
X9272444Y-14951436D02*
X9281968Y-14932388D01*
X9281968Y-14932388D02*
X9281968Y-14894293D01*
X9281968Y-14894293D02*
X9272444Y-14875246D01*
X9272444Y-14875246D02*
X9262920Y-14865722D01*
X9262920Y-14865722D02*
X9243872Y-14856198D01*
X9453396Y-14837150D02*
X9453396Y-14970484D01*
X9405777Y-14760960D02*
X9358158Y-14903817D01*
X9358158Y-14903817D02*
X9481968Y-14903817D01*
X9548634Y-14770484D02*
X9548634Y-14808579D01*
X9624825Y-14770484D02*
X9624825Y-14808579D01*
X9920063Y-15046674D02*
X9910539Y-15037150D01*
X9910539Y-15037150D02*
X9891491Y-15008579D01*
X9891491Y-15008579D02*
X9881968Y-14989531D01*
X9881968Y-14989531D02*
X9872444Y-14960960D01*
X9872444Y-14960960D02*
X9862920Y-14913341D01*
X9862920Y-14913341D02*
X9862920Y-14875246D01*
X9862920Y-14875246D02*
X9872444Y-14827627D01*
X9872444Y-14827627D02*
X9881968Y-14799055D01*
X9881968Y-14799055D02*
X9891491Y-14780008D01*
X9891491Y-14780008D02*
X9910539Y-14751436D01*
X9910539Y-14751436D02*
X9920063Y-14741912D01*
X10081968Y-14837150D02*
X10081968Y-14970484D01*
X10034349Y-14760960D02*
X9986730Y-14903817D01*
X9986730Y-14903817D02*
X10110539Y-14903817D01*
X10339111Y-14970484D02*
X10339111Y-14770484D01*
X10424825Y-14970484D02*
X10424825Y-14865722D01*
X10424825Y-14865722D02*
X10415301Y-14846674D01*
X10415301Y-14846674D02*
X10396253Y-14837150D01*
X10396253Y-14837150D02*
X10367682Y-14837150D01*
X10367682Y-14837150D02*
X10348634Y-14846674D01*
X10348634Y-14846674D02*
X10339111Y-14856198D01*
X10548634Y-14970484D02*
X10529587Y-14960960D01*
X10529587Y-14960960D02*
X10520063Y-14951436D01*
X10520063Y-14951436D02*
X10510539Y-14932388D01*
X10510539Y-14932388D02*
X10510539Y-14875246D01*
X10510539Y-14875246D02*
X10520063Y-14856198D01*
X10520063Y-14856198D02*
X10529587Y-14846674D01*
X10529587Y-14846674D02*
X10548634Y-14837150D01*
X10548634Y-14837150D02*
X10577206Y-14837150D01*
X10577206Y-14837150D02*
X10596253Y-14846674D01*
X10596253Y-14846674D02*
X10605777Y-14856198D01*
X10605777Y-14856198D02*
X10615301Y-14875246D01*
X10615301Y-14875246D02*
X10615301Y-14932388D01*
X10615301Y-14932388D02*
X10605777Y-14951436D01*
X10605777Y-14951436D02*
X10596253Y-14960960D01*
X10596253Y-14960960D02*
X10577206Y-14970484D01*
X10577206Y-14970484D02*
X10548634Y-14970484D01*
X10729587Y-14970484D02*
X10710539Y-14960960D01*
X10710539Y-14960960D02*
X10701015Y-14941912D01*
X10701015Y-14941912D02*
X10701015Y-14770484D01*
X10881968Y-14960960D02*
X10862920Y-14970484D01*
X10862920Y-14970484D02*
X10824825Y-14970484D01*
X10824825Y-14970484D02*
X10805777Y-14960960D01*
X10805777Y-14960960D02*
X10796253Y-14941912D01*
X10796253Y-14941912D02*
X10796253Y-14865722D01*
X10796253Y-14865722D02*
X10805777Y-14846674D01*
X10805777Y-14846674D02*
X10824825Y-14837150D01*
X10824825Y-14837150D02*
X10862920Y-14837150D01*
X10862920Y-14837150D02*
X10881968Y-14846674D01*
X10881968Y-14846674D02*
X10891492Y-14865722D01*
X10891492Y-14865722D02*
X10891492Y-14884769D01*
X10891492Y-14884769D02*
X10796253Y-14903817D01*
X10967682Y-14960960D02*
X10986730Y-14970484D01*
X10986730Y-14970484D02*
X11024825Y-14970484D01*
X11024825Y-14970484D02*
X11043873Y-14960960D01*
X11043873Y-14960960D02*
X11053396Y-14941912D01*
X11053396Y-14941912D02*
X11053396Y-14932388D01*
X11053396Y-14932388D02*
X11043873Y-14913341D01*
X11043873Y-14913341D02*
X11024825Y-14903817D01*
X11024825Y-14903817D02*
X10996253Y-14903817D01*
X10996253Y-14903817D02*
X10977206Y-14894293D01*
X10977206Y-14894293D02*
X10967682Y-14875246D01*
X10967682Y-14875246D02*
X10967682Y-14865722D01*
X10967682Y-14865722D02*
X10977206Y-14846674D01*
X10977206Y-14846674D02*
X10996253Y-14837150D01*
X10996253Y-14837150D02*
X11024825Y-14837150D01*
X11024825Y-14837150D02*
X11043873Y-14846674D01*
X11120063Y-15046674D02*
X11129587Y-15037150D01*
X11129587Y-15037150D02*
X11148634Y-15008579D01*
X11148634Y-15008579D02*
X11158158Y-14989531D01*
X11158158Y-14989531D02*
X11167682Y-14960960D01*
X11167682Y-14960960D02*
X11177206Y-14913341D01*
X11177206Y-14913341D02*
X11177206Y-14875246D01*
X11177206Y-14875246D02*
X11167682Y-14827627D01*
X11167682Y-14827627D02*
X11158158Y-14799055D01*
X11158158Y-14799055D02*
X11148634Y-14780008D01*
X11148634Y-14780008D02*
X11129587Y-14751436D01*
X11129587Y-14751436D02*
X11120063Y-14741912D01*
X11481968Y-15046674D02*
X11472444Y-15037150D01*
X11472444Y-15037150D02*
X11453396Y-15008579D01*
X11453396Y-15008579D02*
X11443872Y-14989531D01*
X11443872Y-14989531D02*
X11434349Y-14960960D01*
X11434349Y-14960960D02*
X11424825Y-14913341D01*
X11424825Y-14913341D02*
X11424825Y-14875246D01*
X11424825Y-14875246D02*
X11434349Y-14827627D01*
X11434349Y-14827627D02*
X11443872Y-14799055D01*
X11443872Y-14799055D02*
X11453396Y-14780008D01*
X11453396Y-14780008D02*
X11472444Y-14751436D01*
X11472444Y-14751436D02*
X11481968Y-14741912D01*
X11558158Y-14837150D02*
X11558158Y-14970484D01*
X11558158Y-14856198D02*
X11567682Y-14846674D01*
X11567682Y-14846674D02*
X11586730Y-14837150D01*
X11586730Y-14837150D02*
X11615301Y-14837150D01*
X11615301Y-14837150D02*
X11634349Y-14846674D01*
X11634349Y-14846674D02*
X11643872Y-14865722D01*
X11643872Y-14865722D02*
X11643872Y-14970484D01*
X11767682Y-14970484D02*
X11748634Y-14960960D01*
X11748634Y-14960960D02*
X11739111Y-14951436D01*
X11739111Y-14951436D02*
X11729587Y-14932388D01*
X11729587Y-14932388D02*
X11729587Y-14875246D01*
X11729587Y-14875246D02*
X11739111Y-14856198D01*
X11739111Y-14856198D02*
X11748634Y-14846674D01*
X11748634Y-14846674D02*
X11767682Y-14837150D01*
X11767682Y-14837150D02*
X11796253Y-14837150D01*
X11796253Y-14837150D02*
X11815301Y-14846674D01*
X11815301Y-14846674D02*
X11824825Y-14856198D01*
X11824825Y-14856198D02*
X11834349Y-14875246D01*
X11834349Y-14875246D02*
X11834349Y-14932388D01*
X11834349Y-14932388D02*
X11824825Y-14951436D01*
X11824825Y-14951436D02*
X11815301Y-14960960D01*
X11815301Y-14960960D02*
X11796253Y-14970484D01*
X11796253Y-14970484D02*
X11767682Y-14970484D01*
X11891492Y-14837150D02*
X11967682Y-14837150D01*
X11920063Y-14770484D02*
X11920063Y-14941912D01*
X11920063Y-14941912D02*
X11929587Y-14960960D01*
X11929587Y-14960960D02*
X11948634Y-14970484D01*
X11948634Y-14970484D02*
X11967682Y-14970484D01*
X12186730Y-14837150D02*
X12186730Y-15037150D01*
X12186730Y-14846674D02*
X12205777Y-14837150D01*
X12205777Y-14837150D02*
X12243873Y-14837150D01*
X12243873Y-14837150D02*
X12262920Y-14846674D01*
X12262920Y-14846674D02*
X12272444Y-14856198D01*
X12272444Y-14856198D02*
X12281968Y-14875246D01*
X12281968Y-14875246D02*
X12281968Y-14932388D01*
X12281968Y-14932388D02*
X12272444Y-14951436D01*
X12272444Y-14951436D02*
X12262920Y-14960960D01*
X12262920Y-14960960D02*
X12243873Y-14970484D01*
X12243873Y-14970484D02*
X12205777Y-14970484D01*
X12205777Y-14970484D02*
X12186730Y-14960960D01*
X12396253Y-14970484D02*
X12377206Y-14960960D01*
X12377206Y-14960960D02*
X12367682Y-14941912D01*
X12367682Y-14941912D02*
X12367682Y-14770484D01*
X12558158Y-14970484D02*
X12558158Y-14865722D01*
X12558158Y-14865722D02*
X12548634Y-14846674D01*
X12548634Y-14846674D02*
X12529587Y-14837150D01*
X12529587Y-14837150D02*
X12491492Y-14837150D01*
X12491492Y-14837150D02*
X12472444Y-14846674D01*
X12558158Y-14960960D02*
X12539111Y-14970484D01*
X12539111Y-14970484D02*
X12491492Y-14970484D01*
X12491492Y-14970484D02*
X12472444Y-14960960D01*
X12472444Y-14960960D02*
X12462920Y-14941912D01*
X12462920Y-14941912D02*
X12462920Y-14922865D01*
X12462920Y-14922865D02*
X12472444Y-14903817D01*
X12472444Y-14903817D02*
X12491492Y-14894293D01*
X12491492Y-14894293D02*
X12539111Y-14894293D01*
X12539111Y-14894293D02*
X12558158Y-14884769D01*
X12624825Y-14837150D02*
X12701015Y-14837150D01*
X12653396Y-14770484D02*
X12653396Y-14941912D01*
X12653396Y-14941912D02*
X12662920Y-14960960D01*
X12662920Y-14960960D02*
X12681968Y-14970484D01*
X12681968Y-14970484D02*
X12701015Y-14970484D01*
X12843873Y-14960960D02*
X12824825Y-14970484D01*
X12824825Y-14970484D02*
X12786730Y-14970484D01*
X12786730Y-14970484D02*
X12767682Y-14960960D01*
X12767682Y-14960960D02*
X12758158Y-14941912D01*
X12758158Y-14941912D02*
X12758158Y-14865722D01*
X12758158Y-14865722D02*
X12767682Y-14846674D01*
X12767682Y-14846674D02*
X12786730Y-14837150D01*
X12786730Y-14837150D02*
X12824825Y-14837150D01*
X12824825Y-14837150D02*
X12843873Y-14846674D01*
X12843873Y-14846674D02*
X12853396Y-14865722D01*
X12853396Y-14865722D02*
X12853396Y-14884769D01*
X12853396Y-14884769D02*
X12758158Y-14903817D01*
X13024825Y-14970484D02*
X13024825Y-14770484D01*
X13024825Y-14960960D02*
X13005777Y-14970484D01*
X13005777Y-14970484D02*
X12967682Y-14970484D01*
X12967682Y-14970484D02*
X12948634Y-14960960D01*
X12948634Y-14960960D02*
X12939111Y-14951436D01*
X12939111Y-14951436D02*
X12929587Y-14932388D01*
X12929587Y-14932388D02*
X12929587Y-14875246D01*
X12929587Y-14875246D02*
X12939111Y-14856198D01*
X12939111Y-14856198D02*
X12948634Y-14846674D01*
X12948634Y-14846674D02*
X12967682Y-14837150D01*
X12967682Y-14837150D02*
X13005777Y-14837150D01*
X13005777Y-14837150D02*
X13024825Y-14846674D01*
X13101015Y-15046674D02*
X13110539Y-15037150D01*
X13110539Y-15037150D02*
X13129587Y-15008579D01*
X13129587Y-15008579D02*
X13139111Y-14989531D01*
X13139111Y-14989531D02*
X13148634Y-14960960D01*
X13148634Y-14960960D02*
X13158158Y-14913341D01*
X13158158Y-14913341D02*
X13158158Y-14875246D01*
X13158158Y-14875246D02*
X13148634Y-14827627D01*
X13148634Y-14827627D02*
X13139111Y-14799055D01*
X13139111Y-14799055D02*
X13129587Y-14780008D01*
X13129587Y-14780008D02*
X13110539Y-14751436D01*
X13110539Y-14751436D02*
X13101015Y-14741912D01*
M02*
