%TF.GenerationSoftware,KiCad,Pcbnew,7.0.6*%
%TF.CreationDate,2023-08-10T11:03:41+03:00*%
%TF.ProjectId,2023-staj-projesi,32303233-2d73-4746-916a-2d70726f6a65,1.0*%
%TF.SameCoordinates,Original*%
%TF.FileFunction,Soldermask,Bot*%
%TF.FilePolarity,Negative*%
%FSLAX46Y46*%
G04 Gerber Fmt 4.6, Leading zero omitted, Abs format (unit mm)*
G04 Created by KiCad (PCBNEW 7.0.6) date 2023-08-10 11:03:41*
%MOMM*%
%LPD*%
G01*
G04 APERTURE LIST*
G04 Aperture macros list*
%AMRoundRect*
0 Rectangle with rounded corners*
0 $1 Rounding radius*
0 $2 $3 $4 $5 $6 $7 $8 $9 X,Y pos of 4 corners*
0 Add a 4 corners polygon primitive as box body*
4,1,4,$2,$3,$4,$5,$6,$7,$8,$9,$2,$3,0*
0 Add four circle primitives for the rounded corners*
1,1,$1+$1,$2,$3*
1,1,$1+$1,$4,$5*
1,1,$1+$1,$6,$7*
1,1,$1+$1,$8,$9*
0 Add four rect primitives between the rounded corners*
20,1,$1+$1,$2,$3,$4,$5,0*
20,1,$1+$1,$4,$5,$6,$7,0*
20,1,$1+$1,$6,$7,$8,$9,0*
20,1,$1+$1,$8,$9,$2,$3,0*%
G04 Aperture macros list end*
%ADD10R,1.700000X1.700000*%
%ADD11O,1.700000X1.700000*%
%ADD12R,1.800000X1.800000*%
%ADD13C,1.800000*%
%ADD14C,5.000000*%
%ADD15C,0.900000*%
%ADD16R,1.600000X1.600000*%
%ADD17O,1.600000X1.600000*%
%ADD18C,1.752600*%
%ADD19R,1.980000X1.980000*%
%ADD20C,1.980000*%
%ADD21C,1.935000*%
%ADD22C,1.900000*%
%ADD23RoundRect,0.249999X-1.550001X0.790001X-1.550001X-0.790001X1.550001X-0.790001X1.550001X0.790001X0*%
%ADD24O,3.600000X2.080000*%
%ADD25C,3.000000*%
%ADD26C,1.600000*%
%ADD27C,1.000000*%
G04 APERTURE END LIST*
D10*
%TO.C,J4*%
X136400000Y-74600000D03*
D11*
X133860000Y-74600000D03*
X131320000Y-74600000D03*
X128780000Y-74600000D03*
%TD*%
D12*
%TO.C,D3*%
X83400000Y-48200000D03*
D13*
X83400000Y-45660000D03*
%TD*%
D14*
%TO.C,H3*%
X171450000Y-135890000D03*
%TD*%
%TO.C,H2*%
X67310000Y-135890000D03*
%TD*%
D12*
%TO.C,D8*%
X96733332Y-48200000D03*
D13*
X96733332Y-45660000D03*
%TD*%
D15*
%TO.C,J5*%
X169275000Y-125400000D03*
X169275000Y-121000000D03*
%TD*%
D14*
%TO.C,H4*%
X171450000Y-44450000D03*
%TD*%
D16*
%TO.C,D11*%
X95500000Y-81810000D03*
D17*
X95500000Y-74190000D03*
%TD*%
D18*
%TO.C,J6*%
X148700000Y-117200000D03*
X151240000Y-117200000D03*
X148700000Y-119740000D03*
X151240000Y-119740000D03*
X148700000Y-122280000D03*
X151240000Y-122280000D03*
X148700000Y-124820000D03*
X151240000Y-124820000D03*
X148700000Y-127360000D03*
X151240000Y-127360000D03*
X148700000Y-129900000D03*
X151240000Y-129900000D03*
X148700000Y-132440000D03*
X151240000Y-132440000D03*
%TD*%
D12*
%TO.C,D7*%
X90066666Y-48200000D03*
D13*
X90066666Y-45660000D03*
%TD*%
D19*
%TO.C,K1*%
X90200000Y-84000000D03*
D20*
X90200000Y-72000000D03*
D21*
X92200000Y-78000000D03*
D20*
X78000000Y-84000000D03*
X78000000Y-72000000D03*
%TD*%
D22*
%TO.C,U5*%
X169400000Y-50400000D03*
X166860000Y-50400000D03*
X164320000Y-50400000D03*
X161780000Y-50400000D03*
X159240000Y-50400000D03*
X156700000Y-50400000D03*
X154160000Y-72270000D03*
X156700000Y-72270000D03*
X159240000Y-72270000D03*
X161780000Y-72270000D03*
X164320000Y-72270000D03*
X166860000Y-72270000D03*
%TD*%
D16*
%TO.C,D10*%
X74880000Y-59000000D03*
D17*
X74880000Y-66620000D03*
%TD*%
D12*
%TO.C,D9*%
X103400000Y-48200000D03*
D13*
X103400000Y-45660000D03*
%TD*%
D23*
%TO.C,J2*%
X70777500Y-53920000D03*
D24*
X70777500Y-59000000D03*
X70777500Y-64080000D03*
%TD*%
D25*
%TO.C,Brd1*%
X118895000Y-43905000D03*
X118895000Y-65905000D03*
X140895000Y-43905000D03*
X140895000Y-65905000D03*
D26*
X126085000Y-43405000D03*
X128625000Y-43405000D03*
X131165000Y-43405000D03*
X133705000Y-43405000D03*
%TD*%
D27*
%TO.C,Y1*%
X110750000Y-81700000D03*
X112650000Y-81700000D03*
%TD*%
D23*
%TO.C,J3*%
X70777500Y-72920000D03*
D24*
X70777500Y-78000000D03*
X70777500Y-83080000D03*
%TD*%
D14*
%TO.C,H1*%
X67310000Y-44450000D03*
%TD*%
D23*
%TO.C,J1*%
X70358000Y-119380000D03*
D24*
X70358000Y-124460000D03*
%TD*%
M02*
