M48
; DRILL file {KiCad 7.0.6} date Thu Aug 10 11:03:09 2023
; FORMAT={-:-/ absolute / inch / decimal}
; #@! TF.CreationDate,2023-08-10T11:03:09+03:00
; #@! TF.GenerationSoftware,Kicad,Pcbnew,7.0.6
; #@! TF.FileFunction,Plated,1,2,PTH
FMAT,2
INCH
; #@! TA.AperFunction,Plated,PTH,ViaDrill
T1C0.0157
; #@! TA.AperFunction,Plated,PTH,ComponentDrill
T2C0.0197
; #@! TA.AperFunction,Plated,PTH,ComponentDrill
T3C0.0315
; #@! TA.AperFunction,Plated,PTH,ComponentDrill
T4C0.0354
; #@! TA.AperFunction,Plated,PTH,ComponentDrill
T5C0.0394
; #@! TA.AperFunction,Plated,PTH,ComponentDrill
T6C0.0490
; #@! TA.AperFunction,Plated,PTH,ComponentDrill
T7C0.0508
; #@! TA.AperFunction,Plated,PTH,ComponentDrill
T8C0.0520
; #@! TA.AperFunction,Plated,PTH,ComponentDrill
T9C0.0551
; #@! TA.AperFunction,Plated,PTH,ComponentDrill
T10C0.0984
%
G90
G05
T1
X3.313Y-2.3193
X3.6346Y-2.4346
X3.9567Y-2.3579
X4.1339Y-2.4193
X4.1339Y-2.4193
X4.1984Y-2.1583
X4.1984Y-2.2071
X4.1984Y-2.2535
X4.237Y-5.0441
X4.237Y-5.0441
X4.3823Y-3.3622
X4.4673Y-4.0031
X4.4815Y-3.4472
X4.6484Y-3.7039
X4.6508Y-3.4276
X4.6535Y-3.8409
X4.6579Y-3.6329
X4.6717Y-4.1854
X4.7705Y-3.1315
X4.8157Y-4.1179
X4.8661Y-3.6441
X4.8748Y-2.835
X4.8992Y-3.1685
X4.9236Y-3.6925
X4.928Y-2.7933
X4.9295Y-3.1224
X4.9661Y-3.6925
X4.9853Y-3.9457
X5.0193Y-3.722
X5.1409Y-3.7882
X5.1467Y-4.3658
X5.1799Y-4.0488
X5.2094Y-3.7421
X5.2102Y-3.7028
X5.2107Y-3.6634
X5.2134Y-4.5642
X5.2748Y-4.5531
X5.3701Y-3.8559
X5.3866Y-4.8335
X5.4913Y-4.3331
X5.4913Y-4.3331
X5.5075Y-3.3193
X5.5075Y-3.3587
X5.5925Y-4.7539
X5.6465Y-4.6689
X5.648Y-4.5559
X5.6894Y-4.7539
X5.6909Y-4.3992
X6.3098Y-4.8228
X6.3142Y-4.8862
X6.45Y-4.4697
X6.45Y-4.4697
T2
X4.3602Y-3.2165
X4.435Y-3.2165
T3
X2.948Y-2.3228
X2.948Y-2.6228
X3.7598Y-2.9209
X3.7598Y-3.2209
X4.964Y-1.7089
X5.064Y-1.7089
X5.164Y-1.7089
X5.264Y-1.7089
T4
X3.2835Y-1.7976
X3.2835Y-1.8976
X3.5459Y-1.7976
X3.5459Y-1.8976
X3.8084Y-1.7976
X3.8084Y-1.8976
X4.0709Y-1.7976
X4.0709Y-1.8976
X6.0693Y-2.8453
X6.1693Y-1.9843
X6.1693Y-2.8453
X6.2693Y-1.9843
X6.2693Y-2.8453
X6.3693Y-1.9843
X6.3693Y-2.8453
X6.4693Y-1.9843
X6.4693Y-2.8453
X6.5693Y-1.9843
X6.5693Y-2.8453
X6.6693Y-1.9843
T5
X5.0701Y-2.937
X5.1701Y-2.937
X5.2701Y-2.937
X5.3701Y-2.937
T6
X5.8543Y-4.6142
X5.8543Y-4.7142
X5.8543Y-4.8142
X5.8543Y-4.9142
X5.8543Y-5.0142
X5.8543Y-5.1142
X5.8543Y-5.2142
X5.9543Y-4.6142
X5.9543Y-4.7142
X5.9543Y-4.8142
X5.9543Y-4.9142
X5.9543Y-5.0142
X5.9543Y-5.1142
X5.9543Y-5.2142
T7
X3.6299Y-3.0709
T8
X3.0709Y-2.8346
X3.0709Y-3.3071
X3.5512Y-2.8346
X3.5512Y-3.3071
T9
X2.77Y-4.7
X2.77Y-4.9
X2.7865Y-2.1228
X2.7865Y-2.3228
X2.7865Y-2.5228
X2.7865Y-2.8709
X2.7865Y-3.0709
X2.7865Y-3.2709
T10
X2.65Y-1.75
X2.65Y-5.35
X6.75Y-1.75
X6.75Y-5.35
T0
M30
