%TF.GenerationSoftware,KiCad,Pcbnew,7.0.6*%
%TF.CreationDate,2023-08-10T11:02:31+03:00*%
%TF.ProjectId,2023-staj-projesi,32303233-2d73-4746-916a-2d70726f6a65,1.0*%
%TF.SameCoordinates,Original*%
%TF.FileFunction,Drillmap*%
%TF.FilePolarity,Positive*%
%FSLAX45Y45*%
G04 Gerber Fmt 4.5, Leading zero omitted, Abs format (unit mm)*
G04 Created by KiCad (PCBNEW 7.0.6) date 2023-08-10 11:02:31*
%MOMM*%
%LPD*%
G01*
G04 APERTURE LIST*
%ADD10C,0.100000*%
%ADD11C,0.200000*%
%ADD12C,0.040000*%
%ADD13C,0.050000*%
%ADD14C,0.080000*%
%ADD15C,0.090000*%
%ADD16C,0.124460*%
%ADD17C,0.129000*%
%ADD18C,0.132000*%
%ADD19C,0.140000*%
%ADD20C,0.250000*%
G04 APERTURE END LIST*
D10*
X6350000Y-4318000D02*
X6350000Y-13716000D01*
X17526000Y-4318000D02*
G75*
G03*
X17272000Y-4064000I-254000J0D01*
G01*
X17526000Y-13716000D02*
X17526000Y-4318000D01*
X6350000Y-13716000D02*
G75*
G03*
X6604000Y-13970000I254000J0D01*
G01*
X17272000Y-4064000D02*
X6604000Y-4064000D01*
X17272000Y-13970000D02*
G75*
G03*
X17526000Y-13716000I0J254000D01*
G01*
X6604000Y-4064000D02*
G75*
G03*
X6350000Y-4318000I0J-254000D01*
G01*
X6604000Y-13970000D02*
X17272000Y-13970000D01*
D11*
D12*
X8395000Y-5871000D02*
X8435000Y-5911000D01*
X8435000Y-5871000D02*
X8395000Y-5911000D01*
X9212000Y-6164000D02*
X9252000Y-6204000D01*
X9252000Y-6164000D02*
X9212000Y-6204000D01*
X10030000Y-5969000D02*
X10070000Y-6009000D01*
X10070000Y-5969000D02*
X10030000Y-6009000D01*
X10480000Y-6125000D02*
X10520000Y-6165000D01*
X10520000Y-6125000D02*
X10480000Y-6165000D01*
X10480000Y-6125000D02*
X10520000Y-6165000D01*
X10520000Y-6125000D02*
X10480000Y-6165000D01*
X10644000Y-5462000D02*
X10684000Y-5502000D01*
X10684000Y-5462000D02*
X10644000Y-5502000D01*
X10644000Y-5586000D02*
X10684000Y-5626000D01*
X10684000Y-5586000D02*
X10644000Y-5626000D01*
X10644000Y-5704000D02*
X10684000Y-5744000D01*
X10684000Y-5704000D02*
X10644000Y-5744000D01*
X10742000Y-12792000D02*
X10782000Y-12832000D01*
X10782000Y-12792000D02*
X10742000Y-12832000D01*
X10742000Y-12792000D02*
X10782000Y-12832000D01*
X10782000Y-12792000D02*
X10742000Y-12832000D01*
X11111000Y-8520000D02*
X11151000Y-8560000D01*
X11151000Y-8520000D02*
X11111000Y-8560000D01*
X11327000Y-10148000D02*
X11367000Y-10188000D01*
X11367000Y-10148000D02*
X11327000Y-10188000D01*
X11363000Y-8736000D02*
X11403000Y-8776000D01*
X11403000Y-8736000D02*
X11363000Y-8776000D01*
X11787000Y-9388000D02*
X11827000Y-9428000D01*
X11827000Y-9388000D02*
X11787000Y-9428000D01*
X11793000Y-8686000D02*
X11833000Y-8726000D01*
X11833000Y-8686000D02*
X11793000Y-8726000D01*
X11800000Y-9736000D02*
X11840000Y-9776000D01*
X11840000Y-9736000D02*
X11800000Y-9776000D01*
X11811000Y-9207450D02*
X11851000Y-9247450D01*
X11851000Y-9207450D02*
X11811000Y-9247450D01*
X11846000Y-10611000D02*
X11886000Y-10651000D01*
X11886000Y-10611000D02*
X11846000Y-10651000D01*
X12097000Y-7934000D02*
X12137000Y-7974000D01*
X12137000Y-7934000D02*
X12097000Y-7974000D01*
X12212000Y-10439550D02*
X12252000Y-10479550D01*
X12252000Y-10439550D02*
X12212000Y-10479550D01*
X12340000Y-9236000D02*
X12380000Y-9276000D01*
X12380000Y-9236000D02*
X12340000Y-9276000D01*
X12362000Y-7181000D02*
X12402000Y-7221000D01*
X12402000Y-7181000D02*
X12362000Y-7221000D01*
X12424000Y-8028000D02*
X12464000Y-8068000D01*
X12464000Y-8028000D02*
X12424000Y-8068000D01*
X12486000Y-9359000D02*
X12526000Y-9399000D01*
X12526000Y-9359000D02*
X12486000Y-9399000D01*
X12497000Y-7075000D02*
X12537000Y-7115000D01*
X12537000Y-7075000D02*
X12497000Y-7115000D01*
X12501000Y-7911000D02*
X12541000Y-7951000D01*
X12541000Y-7911000D02*
X12501000Y-7951000D01*
X12594000Y-9359000D02*
X12634000Y-9399000D01*
X12634000Y-9359000D02*
X12594000Y-9399000D01*
X12642550Y-10002000D02*
X12682550Y-10042000D01*
X12682550Y-10002000D02*
X12642550Y-10042000D01*
X12729000Y-9434000D02*
X12769000Y-9474000D01*
X12769000Y-9434000D02*
X12729000Y-9474000D01*
X13038000Y-9602000D02*
X13078000Y-9642000D01*
X13078000Y-9602000D02*
X13038000Y-9642000D01*
X13052656Y-11069050D02*
X13092656Y-11109050D01*
X13092656Y-11069050D02*
X13052656Y-11109050D01*
X13137000Y-10264000D02*
X13177000Y-10304000D01*
X13177000Y-10264000D02*
X13137000Y-10304000D01*
X13211754Y-9484925D02*
X13251754Y-9524925D01*
X13251754Y-9484925D02*
X13211754Y-9524925D01*
X13214000Y-9385000D02*
X13254000Y-9425000D01*
X13254000Y-9385000D02*
X13214000Y-9425000D01*
X13215075Y-9285056D02*
X13255075Y-9325056D01*
X13255075Y-9285056D02*
X13215075Y-9325056D01*
X13222000Y-11573000D02*
X13262000Y-11613000D01*
X13262000Y-11573000D02*
X13222000Y-11613000D01*
X13378000Y-11545000D02*
X13418000Y-11585000D01*
X13418000Y-11545000D02*
X13378000Y-11585000D01*
X13620000Y-9774000D02*
X13660000Y-9814000D01*
X13660000Y-9774000D02*
X13620000Y-9814000D01*
X13662000Y-12257000D02*
X13702000Y-12297000D01*
X13702000Y-12257000D02*
X13662000Y-12297000D01*
X13928000Y-10986000D02*
X13968000Y-11026000D01*
X13968000Y-10986000D02*
X13928000Y-11026000D01*
X13928000Y-10986000D02*
X13968000Y-11026000D01*
X13968000Y-10986000D02*
X13928000Y-11026000D01*
X13969000Y-8411050D02*
X14009000Y-8451050D01*
X14009000Y-8411050D02*
X13969000Y-8451050D01*
X13969000Y-8511000D02*
X14009000Y-8551000D01*
X14009000Y-8511000D02*
X13969000Y-8551000D01*
X14185000Y-12055000D02*
X14225000Y-12095000D01*
X14225000Y-12055000D02*
X14185000Y-12095000D01*
X14322000Y-11839000D02*
X14362000Y-11879000D01*
X14362000Y-11839000D02*
X14322000Y-11879000D01*
X14326000Y-11552000D02*
X14366000Y-11592000D01*
X14366000Y-11552000D02*
X14326000Y-11592000D01*
X14431000Y-12055000D02*
X14471000Y-12095000D01*
X14471000Y-12055000D02*
X14431000Y-12095000D01*
X14435000Y-11154000D02*
X14475000Y-11194000D01*
X14475000Y-11154000D02*
X14435000Y-11194000D01*
X16007000Y-12230000D02*
X16047000Y-12270000D01*
X16047000Y-12230000D02*
X16007000Y-12270000D01*
X16018000Y-12391000D02*
X16058000Y-12431000D01*
X16058000Y-12391000D02*
X16018000Y-12431000D01*
X16363000Y-11333000D02*
X16403000Y-11373000D01*
X16403000Y-11333000D02*
X16363000Y-11373000D01*
X16363000Y-11333000D02*
X16403000Y-11373000D01*
X16403000Y-11333000D02*
X16363000Y-11373000D01*
D13*
X11100000Y-8170000D02*
G75*
G03*
X11100000Y-8170000I-25000J0D01*
G01*
X11290000Y-8170000D02*
G75*
G03*
X11290000Y-8170000I-25000J0D01*
G01*
D14*
X7488000Y-5860000D02*
X7488000Y-5940000D01*
X7448000Y-5900000D02*
X7528000Y-5900000D01*
X7488000Y-6622000D02*
X7488000Y-6702000D01*
X7448000Y-6662000D02*
X7528000Y-6662000D01*
X9550000Y-7379000D02*
X9550000Y-7459000D01*
X9510000Y-7419000D02*
X9590000Y-7419000D01*
X9550000Y-8141000D02*
X9550000Y-8221000D01*
X9510000Y-8181000D02*
X9590000Y-8181000D01*
X12608500Y-4300500D02*
X12608500Y-4380500D01*
X12568500Y-4340500D02*
X12648500Y-4340500D01*
X12862500Y-4300500D02*
X12862500Y-4380500D01*
X12822500Y-4340500D02*
X12902500Y-4340500D01*
X13116500Y-4300500D02*
X13116500Y-4380500D01*
X13076500Y-4340500D02*
X13156500Y-4340500D01*
X13370500Y-4300500D02*
X13370500Y-4380500D01*
X13330500Y-4340500D02*
X13410500Y-4340500D01*
D15*
X8371820Y-4597820D02*
X8371820Y-4534180D01*
X8308180Y-4534180D01*
X8308180Y-4597820D01*
X8371820Y-4597820D01*
X8371820Y-4851820D02*
X8371820Y-4788180D01*
X8308180Y-4788180D01*
X8308180Y-4851820D01*
X8371820Y-4851820D01*
X9038487Y-4597820D02*
X9038487Y-4534180D01*
X8974847Y-4534180D01*
X8974847Y-4597820D01*
X9038487Y-4597820D01*
X9038487Y-4851820D02*
X9038487Y-4788180D01*
X8974847Y-4788180D01*
X8974847Y-4851820D01*
X9038487Y-4851820D01*
X9705153Y-4597820D02*
X9705153Y-4534180D01*
X9641513Y-4534180D01*
X9641513Y-4597820D01*
X9705153Y-4597820D01*
X9705153Y-4851820D02*
X9705153Y-4788180D01*
X9641513Y-4788180D01*
X9641513Y-4851820D01*
X9705153Y-4851820D01*
X10371820Y-4597820D02*
X10371820Y-4534180D01*
X10308180Y-4534180D01*
X10308180Y-4597820D01*
X10371820Y-4597820D01*
X10371820Y-4851820D02*
X10371820Y-4788180D01*
X10308180Y-4788180D01*
X10308180Y-4851820D01*
X10371820Y-4851820D01*
X15447820Y-7258820D02*
X15447820Y-7195180D01*
X15384180Y-7195180D01*
X15384180Y-7258820D01*
X15447820Y-7258820D01*
X15701820Y-5071820D02*
X15701820Y-5008180D01*
X15638180Y-5008180D01*
X15638180Y-5071820D01*
X15701820Y-5071820D01*
X15701820Y-7258820D02*
X15701820Y-7195180D01*
X15638180Y-7195180D01*
X15638180Y-7258820D01*
X15701820Y-7258820D01*
X15955820Y-5071820D02*
X15955820Y-5008180D01*
X15892180Y-5008180D01*
X15892180Y-5071820D01*
X15955820Y-5071820D01*
X15955820Y-7258820D02*
X15955820Y-7195180D01*
X15892180Y-7195180D01*
X15892180Y-7258820D01*
X15955820Y-7258820D01*
X16209820Y-5071820D02*
X16209820Y-5008180D01*
X16146180Y-5008180D01*
X16146180Y-5071820D01*
X16209820Y-5071820D01*
X16209820Y-7258820D02*
X16209820Y-7195180D01*
X16146180Y-7195180D01*
X16146180Y-7258820D01*
X16209820Y-7258820D01*
X16463820Y-5071820D02*
X16463820Y-5008180D01*
X16400180Y-5008180D01*
X16400180Y-5071820D01*
X16463820Y-5071820D01*
X16463820Y-7258820D02*
X16463820Y-7195180D01*
X16400180Y-7195180D01*
X16400180Y-7258820D01*
X16463820Y-7258820D01*
X16717820Y-5071820D02*
X16717820Y-5008180D01*
X16654180Y-5008180D01*
X16654180Y-5071820D01*
X16717820Y-5071820D01*
X16717820Y-7258820D02*
X16717820Y-7195180D01*
X16654180Y-7195180D01*
X16654180Y-7258820D01*
X16717820Y-7258820D01*
X16971820Y-5071820D02*
X16971820Y-5008180D01*
X16908180Y-5008180D01*
X16908180Y-5071820D01*
X16971820Y-5071820D01*
D10*
X12878000Y-7510000D02*
X12928000Y-7460000D01*
X12878000Y-7410000D01*
X12828000Y-7460000D01*
X12878000Y-7510000D01*
X13132000Y-7510000D02*
X13182000Y-7460000D01*
X13132000Y-7410000D01*
X13082000Y-7460000D01*
X13132000Y-7510000D01*
X13386000Y-7510000D02*
X13436000Y-7460000D01*
X13386000Y-7410000D01*
X13336000Y-7460000D01*
X13386000Y-7510000D01*
X13640000Y-7510000D02*
X13690000Y-7460000D01*
X13640000Y-7410000D01*
X13590000Y-7460000D01*
X13640000Y-7510000D01*
D16*
X14807770Y-11657770D02*
X14932230Y-11782230D01*
X14932230Y-11657770D02*
X14807770Y-11782230D01*
X14932230Y-11720000D02*
G75*
G03*
X14932230Y-11720000I-62230J0D01*
G01*
X14807770Y-11911770D02*
X14932230Y-12036230D01*
X14932230Y-11911770D02*
X14807770Y-12036230D01*
X14932230Y-11974000D02*
G75*
G03*
X14932230Y-11974000I-62230J0D01*
G01*
X14807770Y-12165770D02*
X14932230Y-12290230D01*
X14932230Y-12165770D02*
X14807770Y-12290230D01*
X14932230Y-12228000D02*
G75*
G03*
X14932230Y-12228000I-62230J0D01*
G01*
X14807770Y-12419770D02*
X14932230Y-12544230D01*
X14932230Y-12419770D02*
X14807770Y-12544230D01*
X14932230Y-12482000D02*
G75*
G03*
X14932230Y-12482000I-62230J0D01*
G01*
X14807770Y-12673770D02*
X14932230Y-12798230D01*
X14932230Y-12673770D02*
X14807770Y-12798230D01*
X14932230Y-12736000D02*
G75*
G03*
X14932230Y-12736000I-62230J0D01*
G01*
X14807770Y-12927770D02*
X14932230Y-13052230D01*
X14932230Y-12927770D02*
X14807770Y-13052230D01*
X14932230Y-12990000D02*
G75*
G03*
X14932230Y-12990000I-62230J0D01*
G01*
X14807770Y-13181770D02*
X14932230Y-13306230D01*
X14932230Y-13181770D02*
X14807770Y-13306230D01*
X14932230Y-13244000D02*
G75*
G03*
X14932230Y-13244000I-62230J0D01*
G01*
X15061770Y-11657770D02*
X15186230Y-11782230D01*
X15186230Y-11657770D02*
X15061770Y-11782230D01*
X15186230Y-11720000D02*
G75*
G03*
X15186230Y-11720000I-62230J0D01*
G01*
X15061770Y-11911770D02*
X15186230Y-12036230D01*
X15186230Y-11911770D02*
X15061770Y-12036230D01*
X15186230Y-11974000D02*
G75*
G03*
X15186230Y-11974000I-62230J0D01*
G01*
X15061770Y-12165770D02*
X15186230Y-12290230D01*
X15186230Y-12165770D02*
X15061770Y-12290230D01*
X15186230Y-12228000D02*
G75*
G03*
X15186230Y-12228000I-62230J0D01*
G01*
X15061770Y-12419770D02*
X15186230Y-12544230D01*
X15186230Y-12419770D02*
X15061770Y-12544230D01*
X15186230Y-12482000D02*
G75*
G03*
X15186230Y-12482000I-62230J0D01*
G01*
X15061770Y-12673770D02*
X15186230Y-12798230D01*
X15186230Y-12673770D02*
X15061770Y-12798230D01*
X15186230Y-12736000D02*
G75*
G03*
X15186230Y-12736000I-62230J0D01*
G01*
X15061770Y-12927770D02*
X15186230Y-13052230D01*
X15186230Y-12927770D02*
X15061770Y-13052230D01*
X15186230Y-12990000D02*
G75*
G03*
X15186230Y-12990000I-62230J0D01*
G01*
X15061770Y-13181770D02*
X15186230Y-13306230D01*
X15186230Y-13181770D02*
X15061770Y-13306230D01*
X15186230Y-13244000D02*
G75*
G03*
X15186230Y-13244000I-62230J0D01*
G01*
D17*
X9155500Y-7735500D02*
X9284500Y-7864500D01*
X9284500Y-7735500D02*
X9155500Y-7864500D01*
X9220000Y-7735500D02*
X9220000Y-7864500D01*
X9155500Y-7800000D02*
X9284500Y-7800000D01*
D18*
X7734000Y-7134000D02*
X7866000Y-7266000D01*
X7866000Y-7134000D02*
X7734000Y-7266000D01*
X7846669Y-7246669D02*
X7846669Y-7153330D01*
X7753330Y-7153330D01*
X7753330Y-7246669D01*
X7846669Y-7246669D01*
X7734000Y-8334000D02*
X7866000Y-8466000D01*
X7866000Y-8334000D02*
X7734000Y-8466000D01*
X7846669Y-8446670D02*
X7846669Y-8353330D01*
X7753330Y-8353330D01*
X7753330Y-8446670D01*
X7846669Y-8446670D01*
X8954000Y-7134000D02*
X9086000Y-7266000D01*
X9086000Y-7134000D02*
X8954000Y-7266000D01*
X9066670Y-7246669D02*
X9066670Y-7153330D01*
X8973331Y-7153330D01*
X8973331Y-7246669D01*
X9066670Y-7246669D01*
X8954000Y-8334000D02*
X9086000Y-8466000D01*
X9086000Y-8334000D02*
X8954000Y-8466000D01*
X9066670Y-8446670D02*
X9066670Y-8353330D01*
X8973331Y-8353330D01*
X8973331Y-8446670D01*
X9066670Y-8446670D01*
D19*
X6965800Y-11868000D02*
X7105800Y-12008000D01*
X7105800Y-11868000D02*
X6965800Y-12008000D01*
X7035800Y-12008000D02*
X7105800Y-11938000D01*
X7035800Y-11868000D01*
X6965800Y-11938000D01*
X7035800Y-12008000D01*
X6965800Y-12376000D02*
X7105800Y-12516000D01*
X7105800Y-12376000D02*
X6965800Y-12516000D01*
X7035800Y-12516000D02*
X7105800Y-12446000D01*
X7035800Y-12376000D01*
X6965800Y-12446000D01*
X7035800Y-12516000D01*
X7007750Y-5322000D02*
X7147750Y-5462000D01*
X7147750Y-5322000D02*
X7007750Y-5462000D01*
X7077750Y-5462000D02*
X7147750Y-5392000D01*
X7077750Y-5322000D01*
X7007750Y-5392000D01*
X7077750Y-5462000D01*
X7007750Y-5830000D02*
X7147750Y-5970000D01*
X7147750Y-5830000D02*
X7007750Y-5970000D01*
X7077750Y-5970000D02*
X7147750Y-5900000D01*
X7077750Y-5830000D01*
X7007750Y-5900000D01*
X7077750Y-5970000D01*
X7007750Y-6338000D02*
X7147750Y-6478000D01*
X7147750Y-6338000D02*
X7007750Y-6478000D01*
X7077750Y-6478000D02*
X7147750Y-6408000D01*
X7077750Y-6338000D01*
X7007750Y-6408000D01*
X7077750Y-6478000D01*
X7007750Y-7222000D02*
X7147750Y-7362000D01*
X7147750Y-7222000D02*
X7007750Y-7362000D01*
X7077750Y-7362000D02*
X7147750Y-7292000D01*
X7077750Y-7222000D01*
X7007750Y-7292000D01*
X7077750Y-7362000D01*
X7007750Y-7730000D02*
X7147750Y-7870000D01*
X7147750Y-7730000D02*
X7007750Y-7870000D01*
X7077750Y-7870000D02*
X7147750Y-7800000D01*
X7077750Y-7730000D01*
X7007750Y-7800000D01*
X7077750Y-7870000D01*
X7007750Y-8238000D02*
X7147750Y-8378000D01*
X7147750Y-8238000D02*
X7007750Y-8378000D01*
X7077750Y-8378000D02*
X7147750Y-8308000D01*
X7077750Y-8238000D01*
X7007750Y-8308000D01*
X7077750Y-8378000D01*
D20*
X6731000Y-4320000D02*
X6731000Y-4570000D01*
X6606000Y-4445000D02*
X6856000Y-4445000D01*
X6856000Y-4445000D02*
G75*
G03*
X6856000Y-4445000I-125000J0D01*
G01*
X6731000Y-13464000D02*
X6731000Y-13714000D01*
X6606000Y-13589000D02*
X6856000Y-13589000D01*
X6856000Y-13589000D02*
G75*
G03*
X6856000Y-13589000I-125000J0D01*
G01*
X17145000Y-4320000D02*
X17145000Y-4570000D01*
X17020000Y-4445000D02*
X17270000Y-4445000D01*
X17270000Y-4445000D02*
G75*
G03*
X17270000Y-4445000I-125000J0D01*
G01*
X17145000Y-13464000D02*
X17145000Y-13714000D01*
X17020000Y-13589000D02*
X17270000Y-13589000D01*
X17270000Y-13589000D02*
G75*
G03*
X17270000Y-13589000I-125000J0D01*
G01*
D11*
X6605777Y-14286484D02*
X6605777Y-14086484D01*
X6605777Y-14086484D02*
X6653396Y-14086484D01*
X6653396Y-14086484D02*
X6681967Y-14096008D01*
X6681967Y-14096008D02*
X6701015Y-14115055D01*
X6701015Y-14115055D02*
X6710539Y-14134103D01*
X6710539Y-14134103D02*
X6720062Y-14172198D01*
X6720062Y-14172198D02*
X6720062Y-14200769D01*
X6720062Y-14200769D02*
X6710539Y-14238865D01*
X6710539Y-14238865D02*
X6701015Y-14257912D01*
X6701015Y-14257912D02*
X6681967Y-14276960D01*
X6681967Y-14276960D02*
X6653396Y-14286484D01*
X6653396Y-14286484D02*
X6605777Y-14286484D01*
X6805777Y-14286484D02*
X6805777Y-14153150D01*
X6805777Y-14191246D02*
X6815301Y-14172198D01*
X6815301Y-14172198D02*
X6824824Y-14162674D01*
X6824824Y-14162674D02*
X6843872Y-14153150D01*
X6843872Y-14153150D02*
X6862920Y-14153150D01*
X6929586Y-14286484D02*
X6929586Y-14153150D01*
X6929586Y-14086484D02*
X6920062Y-14096008D01*
X6920062Y-14096008D02*
X6929586Y-14105531D01*
X6929586Y-14105531D02*
X6939110Y-14096008D01*
X6939110Y-14096008D02*
X6929586Y-14086484D01*
X6929586Y-14086484D02*
X6929586Y-14105531D01*
X7053396Y-14286484D02*
X7034348Y-14276960D01*
X7034348Y-14276960D02*
X7024824Y-14257912D01*
X7024824Y-14257912D02*
X7024824Y-14086484D01*
X7158158Y-14286484D02*
X7139110Y-14276960D01*
X7139110Y-14276960D02*
X7129586Y-14257912D01*
X7129586Y-14257912D02*
X7129586Y-14086484D01*
X7386729Y-14286484D02*
X7386729Y-14086484D01*
X7386729Y-14086484D02*
X7453396Y-14229341D01*
X7453396Y-14229341D02*
X7520062Y-14086484D01*
X7520062Y-14086484D02*
X7520062Y-14286484D01*
X7701015Y-14286484D02*
X7701015Y-14181722D01*
X7701015Y-14181722D02*
X7691491Y-14162674D01*
X7691491Y-14162674D02*
X7672443Y-14153150D01*
X7672443Y-14153150D02*
X7634348Y-14153150D01*
X7634348Y-14153150D02*
X7615301Y-14162674D01*
X7701015Y-14276960D02*
X7681967Y-14286484D01*
X7681967Y-14286484D02*
X7634348Y-14286484D01*
X7634348Y-14286484D02*
X7615301Y-14276960D01*
X7615301Y-14276960D02*
X7605777Y-14257912D01*
X7605777Y-14257912D02*
X7605777Y-14238865D01*
X7605777Y-14238865D02*
X7615301Y-14219817D01*
X7615301Y-14219817D02*
X7634348Y-14210293D01*
X7634348Y-14210293D02*
X7681967Y-14210293D01*
X7681967Y-14210293D02*
X7701015Y-14200769D01*
X7796253Y-14153150D02*
X7796253Y-14353150D01*
X7796253Y-14162674D02*
X7815301Y-14153150D01*
X7815301Y-14153150D02*
X7853396Y-14153150D01*
X7853396Y-14153150D02*
X7872443Y-14162674D01*
X7872443Y-14162674D02*
X7881967Y-14172198D01*
X7881967Y-14172198D02*
X7891491Y-14191246D01*
X7891491Y-14191246D02*
X7891491Y-14248388D01*
X7891491Y-14248388D02*
X7881967Y-14267436D01*
X7881967Y-14267436D02*
X7872443Y-14276960D01*
X7872443Y-14276960D02*
X7853396Y-14286484D01*
X7853396Y-14286484D02*
X7815301Y-14286484D01*
X7815301Y-14286484D02*
X7796253Y-14276960D01*
X7977205Y-14267436D02*
X7986729Y-14276960D01*
X7986729Y-14276960D02*
X7977205Y-14286484D01*
X7977205Y-14286484D02*
X7967682Y-14276960D01*
X7967682Y-14276960D02*
X7977205Y-14267436D01*
X7977205Y-14267436D02*
X7977205Y-14286484D01*
X7977205Y-14162674D02*
X7986729Y-14172198D01*
X7986729Y-14172198D02*
X7977205Y-14181722D01*
X7977205Y-14181722D02*
X7967682Y-14172198D01*
X7967682Y-14172198D02*
X7977205Y-14162674D01*
X7977205Y-14162674D02*
X7977205Y-14181722D01*
D12*
X6305000Y-14595000D02*
X6345000Y-14635000D01*
X6345000Y-14595000D02*
X6305000Y-14635000D01*
D11*
X6643872Y-14506484D02*
X6662920Y-14506484D01*
X6662920Y-14506484D02*
X6681967Y-14516008D01*
X6681967Y-14516008D02*
X6691491Y-14525531D01*
X6691491Y-14525531D02*
X6701015Y-14544579D01*
X6701015Y-14544579D02*
X6710539Y-14582674D01*
X6710539Y-14582674D02*
X6710539Y-14630293D01*
X6710539Y-14630293D02*
X6701015Y-14668388D01*
X6701015Y-14668388D02*
X6691491Y-14687436D01*
X6691491Y-14687436D02*
X6681967Y-14696960D01*
X6681967Y-14696960D02*
X6662920Y-14706484D01*
X6662920Y-14706484D02*
X6643872Y-14706484D01*
X6643872Y-14706484D02*
X6624824Y-14696960D01*
X6624824Y-14696960D02*
X6615301Y-14687436D01*
X6615301Y-14687436D02*
X6605777Y-14668388D01*
X6605777Y-14668388D02*
X6596253Y-14630293D01*
X6596253Y-14630293D02*
X6596253Y-14582674D01*
X6596253Y-14582674D02*
X6605777Y-14544579D01*
X6605777Y-14544579D02*
X6615301Y-14525531D01*
X6615301Y-14525531D02*
X6624824Y-14516008D01*
X6624824Y-14516008D02*
X6643872Y-14506484D01*
X6796253Y-14687436D02*
X6805777Y-14696960D01*
X6805777Y-14696960D02*
X6796253Y-14706484D01*
X6796253Y-14706484D02*
X6786729Y-14696960D01*
X6786729Y-14696960D02*
X6796253Y-14687436D01*
X6796253Y-14687436D02*
X6796253Y-14706484D01*
X6977205Y-14573150D02*
X6977205Y-14706484D01*
X6929586Y-14496960D02*
X6881967Y-14639817D01*
X6881967Y-14639817D02*
X7005777Y-14639817D01*
X7120062Y-14506484D02*
X7139110Y-14506484D01*
X7139110Y-14506484D02*
X7158158Y-14516008D01*
X7158158Y-14516008D02*
X7167682Y-14525531D01*
X7167682Y-14525531D02*
X7177205Y-14544579D01*
X7177205Y-14544579D02*
X7186729Y-14582674D01*
X7186729Y-14582674D02*
X7186729Y-14630293D01*
X7186729Y-14630293D02*
X7177205Y-14668388D01*
X7177205Y-14668388D02*
X7167682Y-14687436D01*
X7167682Y-14687436D02*
X7158158Y-14696960D01*
X7158158Y-14696960D02*
X7139110Y-14706484D01*
X7139110Y-14706484D02*
X7120062Y-14706484D01*
X7120062Y-14706484D02*
X7101015Y-14696960D01*
X7101015Y-14696960D02*
X7091491Y-14687436D01*
X7091491Y-14687436D02*
X7081967Y-14668388D01*
X7081967Y-14668388D02*
X7072443Y-14630293D01*
X7072443Y-14630293D02*
X7072443Y-14582674D01*
X7072443Y-14582674D02*
X7081967Y-14544579D01*
X7081967Y-14544579D02*
X7091491Y-14525531D01*
X7091491Y-14525531D02*
X7101015Y-14516008D01*
X7101015Y-14516008D02*
X7120062Y-14506484D01*
X7310539Y-14506484D02*
X7329586Y-14506484D01*
X7329586Y-14506484D02*
X7348634Y-14516008D01*
X7348634Y-14516008D02*
X7358158Y-14525531D01*
X7358158Y-14525531D02*
X7367682Y-14544579D01*
X7367682Y-14544579D02*
X7377205Y-14582674D01*
X7377205Y-14582674D02*
X7377205Y-14630293D01*
X7377205Y-14630293D02*
X7367682Y-14668388D01*
X7367682Y-14668388D02*
X7358158Y-14687436D01*
X7358158Y-14687436D02*
X7348634Y-14696960D01*
X7348634Y-14696960D02*
X7329586Y-14706484D01*
X7329586Y-14706484D02*
X7310539Y-14706484D01*
X7310539Y-14706484D02*
X7291491Y-14696960D01*
X7291491Y-14696960D02*
X7281967Y-14687436D01*
X7281967Y-14687436D02*
X7272443Y-14668388D01*
X7272443Y-14668388D02*
X7262920Y-14630293D01*
X7262920Y-14630293D02*
X7262920Y-14582674D01*
X7262920Y-14582674D02*
X7272443Y-14544579D01*
X7272443Y-14544579D02*
X7281967Y-14525531D01*
X7281967Y-14525531D02*
X7291491Y-14516008D01*
X7291491Y-14516008D02*
X7310539Y-14506484D01*
X7462920Y-14706484D02*
X7462920Y-14573150D01*
X7462920Y-14592198D02*
X7472443Y-14582674D01*
X7472443Y-14582674D02*
X7491491Y-14573150D01*
X7491491Y-14573150D02*
X7520063Y-14573150D01*
X7520063Y-14573150D02*
X7539110Y-14582674D01*
X7539110Y-14582674D02*
X7548634Y-14601722D01*
X7548634Y-14601722D02*
X7548634Y-14706484D01*
X7548634Y-14601722D02*
X7558158Y-14582674D01*
X7558158Y-14582674D02*
X7577205Y-14573150D01*
X7577205Y-14573150D02*
X7605777Y-14573150D01*
X7605777Y-14573150D02*
X7624824Y-14582674D01*
X7624824Y-14582674D02*
X7634348Y-14601722D01*
X7634348Y-14601722D02*
X7634348Y-14706484D01*
X7729586Y-14706484D02*
X7729586Y-14573150D01*
X7729586Y-14592198D02*
X7739110Y-14582674D01*
X7739110Y-14582674D02*
X7758158Y-14573150D01*
X7758158Y-14573150D02*
X7786729Y-14573150D01*
X7786729Y-14573150D02*
X7805777Y-14582674D01*
X7805777Y-14582674D02*
X7815301Y-14601722D01*
X7815301Y-14601722D02*
X7815301Y-14706484D01*
X7815301Y-14601722D02*
X7824824Y-14582674D01*
X7824824Y-14582674D02*
X7843872Y-14573150D01*
X7843872Y-14573150D02*
X7872443Y-14573150D01*
X7872443Y-14573150D02*
X7891491Y-14582674D01*
X7891491Y-14582674D02*
X7901015Y-14601722D01*
X7901015Y-14601722D02*
X7901015Y-14706484D01*
X8291491Y-14496960D02*
X8120063Y-14754103D01*
X8548634Y-14506484D02*
X8567682Y-14506484D01*
X8567682Y-14506484D02*
X8586729Y-14516008D01*
X8586729Y-14516008D02*
X8596253Y-14525531D01*
X8596253Y-14525531D02*
X8605777Y-14544579D01*
X8605777Y-14544579D02*
X8615301Y-14582674D01*
X8615301Y-14582674D02*
X8615301Y-14630293D01*
X8615301Y-14630293D02*
X8605777Y-14668388D01*
X8605777Y-14668388D02*
X8596253Y-14687436D01*
X8596253Y-14687436D02*
X8586729Y-14696960D01*
X8586729Y-14696960D02*
X8567682Y-14706484D01*
X8567682Y-14706484D02*
X8548634Y-14706484D01*
X8548634Y-14706484D02*
X8529587Y-14696960D01*
X8529587Y-14696960D02*
X8520063Y-14687436D01*
X8520063Y-14687436D02*
X8510539Y-14668388D01*
X8510539Y-14668388D02*
X8501015Y-14630293D01*
X8501015Y-14630293D02*
X8501015Y-14582674D01*
X8501015Y-14582674D02*
X8510539Y-14544579D01*
X8510539Y-14544579D02*
X8520063Y-14525531D01*
X8520063Y-14525531D02*
X8529587Y-14516008D01*
X8529587Y-14516008D02*
X8548634Y-14506484D01*
X8701015Y-14687436D02*
X8710539Y-14696960D01*
X8710539Y-14696960D02*
X8701015Y-14706484D01*
X8701015Y-14706484D02*
X8691491Y-14696960D01*
X8691491Y-14696960D02*
X8701015Y-14687436D01*
X8701015Y-14687436D02*
X8701015Y-14706484D01*
X8834348Y-14506484D02*
X8853396Y-14506484D01*
X8853396Y-14506484D02*
X8872444Y-14516008D01*
X8872444Y-14516008D02*
X8881968Y-14525531D01*
X8881968Y-14525531D02*
X8891491Y-14544579D01*
X8891491Y-14544579D02*
X8901015Y-14582674D01*
X8901015Y-14582674D02*
X8901015Y-14630293D01*
X8901015Y-14630293D02*
X8891491Y-14668388D01*
X8891491Y-14668388D02*
X8881968Y-14687436D01*
X8881968Y-14687436D02*
X8872444Y-14696960D01*
X8872444Y-14696960D02*
X8853396Y-14706484D01*
X8853396Y-14706484D02*
X8834348Y-14706484D01*
X8834348Y-14706484D02*
X8815301Y-14696960D01*
X8815301Y-14696960D02*
X8805777Y-14687436D01*
X8805777Y-14687436D02*
X8796253Y-14668388D01*
X8796253Y-14668388D02*
X8786729Y-14630293D01*
X8786729Y-14630293D02*
X8786729Y-14582674D01*
X8786729Y-14582674D02*
X8796253Y-14544579D01*
X8796253Y-14544579D02*
X8805777Y-14525531D01*
X8805777Y-14525531D02*
X8815301Y-14516008D01*
X8815301Y-14516008D02*
X8834348Y-14506484D01*
X9091491Y-14706484D02*
X8977206Y-14706484D01*
X9034348Y-14706484D02*
X9034348Y-14506484D01*
X9034348Y-14506484D02*
X9015301Y-14535055D01*
X9015301Y-14535055D02*
X8996253Y-14554103D01*
X8996253Y-14554103D02*
X8977206Y-14563627D01*
X9272444Y-14506484D02*
X9177206Y-14506484D01*
X9177206Y-14506484D02*
X9167682Y-14601722D01*
X9167682Y-14601722D02*
X9177206Y-14592198D01*
X9177206Y-14592198D02*
X9196253Y-14582674D01*
X9196253Y-14582674D02*
X9243872Y-14582674D01*
X9243872Y-14582674D02*
X9262920Y-14592198D01*
X9262920Y-14592198D02*
X9272444Y-14601722D01*
X9272444Y-14601722D02*
X9281968Y-14620769D01*
X9281968Y-14620769D02*
X9281968Y-14668388D01*
X9281968Y-14668388D02*
X9272444Y-14687436D01*
X9272444Y-14687436D02*
X9262920Y-14696960D01*
X9262920Y-14696960D02*
X9243872Y-14706484D01*
X9243872Y-14706484D02*
X9196253Y-14706484D01*
X9196253Y-14706484D02*
X9177206Y-14696960D01*
X9177206Y-14696960D02*
X9167682Y-14687436D01*
X9348634Y-14506484D02*
X9481968Y-14506484D01*
X9481968Y-14506484D02*
X9396253Y-14706484D01*
X9548634Y-14506484D02*
X9548634Y-14544579D01*
X9624825Y-14506484D02*
X9624825Y-14544579D01*
X9920063Y-14782674D02*
X9910539Y-14773150D01*
X9910539Y-14773150D02*
X9891491Y-14744579D01*
X9891491Y-14744579D02*
X9881968Y-14725531D01*
X9881968Y-14725531D02*
X9872444Y-14696960D01*
X9872444Y-14696960D02*
X9862920Y-14649341D01*
X9862920Y-14649341D02*
X9862920Y-14611246D01*
X9862920Y-14611246D02*
X9872444Y-14563627D01*
X9872444Y-14563627D02*
X9881968Y-14535055D01*
X9881968Y-14535055D02*
X9891491Y-14516008D01*
X9891491Y-14516008D02*
X9910539Y-14487436D01*
X9910539Y-14487436D02*
X9920063Y-14477912D01*
X10091491Y-14506484D02*
X9996253Y-14506484D01*
X9996253Y-14506484D02*
X9986730Y-14601722D01*
X9986730Y-14601722D02*
X9996253Y-14592198D01*
X9996253Y-14592198D02*
X10015301Y-14582674D01*
X10015301Y-14582674D02*
X10062920Y-14582674D01*
X10062920Y-14582674D02*
X10081968Y-14592198D01*
X10081968Y-14592198D02*
X10091491Y-14601722D01*
X10091491Y-14601722D02*
X10101015Y-14620769D01*
X10101015Y-14620769D02*
X10101015Y-14668388D01*
X10101015Y-14668388D02*
X10091491Y-14687436D01*
X10091491Y-14687436D02*
X10081968Y-14696960D01*
X10081968Y-14696960D02*
X10062920Y-14706484D01*
X10062920Y-14706484D02*
X10015301Y-14706484D01*
X10015301Y-14706484D02*
X9996253Y-14696960D01*
X9996253Y-14696960D02*
X9986730Y-14687436D01*
X10177206Y-14525531D02*
X10186730Y-14516008D01*
X10186730Y-14516008D02*
X10205777Y-14506484D01*
X10205777Y-14506484D02*
X10253396Y-14506484D01*
X10253396Y-14506484D02*
X10272444Y-14516008D01*
X10272444Y-14516008D02*
X10281968Y-14525531D01*
X10281968Y-14525531D02*
X10291491Y-14544579D01*
X10291491Y-14544579D02*
X10291491Y-14563627D01*
X10291491Y-14563627D02*
X10281968Y-14592198D01*
X10281968Y-14592198D02*
X10167682Y-14706484D01*
X10167682Y-14706484D02*
X10291491Y-14706484D01*
X10529587Y-14706484D02*
X10529587Y-14506484D01*
X10615301Y-14706484D02*
X10615301Y-14601722D01*
X10615301Y-14601722D02*
X10605777Y-14582674D01*
X10605777Y-14582674D02*
X10586730Y-14573150D01*
X10586730Y-14573150D02*
X10558158Y-14573150D01*
X10558158Y-14573150D02*
X10539111Y-14582674D01*
X10539111Y-14582674D02*
X10529587Y-14592198D01*
X10739111Y-14706484D02*
X10720063Y-14696960D01*
X10720063Y-14696960D02*
X10710539Y-14687436D01*
X10710539Y-14687436D02*
X10701015Y-14668388D01*
X10701015Y-14668388D02*
X10701015Y-14611246D01*
X10701015Y-14611246D02*
X10710539Y-14592198D01*
X10710539Y-14592198D02*
X10720063Y-14582674D01*
X10720063Y-14582674D02*
X10739111Y-14573150D01*
X10739111Y-14573150D02*
X10767682Y-14573150D01*
X10767682Y-14573150D02*
X10786730Y-14582674D01*
X10786730Y-14582674D02*
X10796253Y-14592198D01*
X10796253Y-14592198D02*
X10805777Y-14611246D01*
X10805777Y-14611246D02*
X10805777Y-14668388D01*
X10805777Y-14668388D02*
X10796253Y-14687436D01*
X10796253Y-14687436D02*
X10786730Y-14696960D01*
X10786730Y-14696960D02*
X10767682Y-14706484D01*
X10767682Y-14706484D02*
X10739111Y-14706484D01*
X10920063Y-14706484D02*
X10901015Y-14696960D01*
X10901015Y-14696960D02*
X10891492Y-14677912D01*
X10891492Y-14677912D02*
X10891492Y-14506484D01*
X11072444Y-14696960D02*
X11053396Y-14706484D01*
X11053396Y-14706484D02*
X11015301Y-14706484D01*
X11015301Y-14706484D02*
X10996253Y-14696960D01*
X10996253Y-14696960D02*
X10986730Y-14677912D01*
X10986730Y-14677912D02*
X10986730Y-14601722D01*
X10986730Y-14601722D02*
X10996253Y-14582674D01*
X10996253Y-14582674D02*
X11015301Y-14573150D01*
X11015301Y-14573150D02*
X11053396Y-14573150D01*
X11053396Y-14573150D02*
X11072444Y-14582674D01*
X11072444Y-14582674D02*
X11081968Y-14601722D01*
X11081968Y-14601722D02*
X11081968Y-14620769D01*
X11081968Y-14620769D02*
X10986730Y-14639817D01*
X11158158Y-14696960D02*
X11177206Y-14706484D01*
X11177206Y-14706484D02*
X11215301Y-14706484D01*
X11215301Y-14706484D02*
X11234349Y-14696960D01*
X11234349Y-14696960D02*
X11243872Y-14677912D01*
X11243872Y-14677912D02*
X11243872Y-14668388D01*
X11243872Y-14668388D02*
X11234349Y-14649341D01*
X11234349Y-14649341D02*
X11215301Y-14639817D01*
X11215301Y-14639817D02*
X11186730Y-14639817D01*
X11186730Y-14639817D02*
X11167682Y-14630293D01*
X11167682Y-14630293D02*
X11158158Y-14611246D01*
X11158158Y-14611246D02*
X11158158Y-14601722D01*
X11158158Y-14601722D02*
X11167682Y-14582674D01*
X11167682Y-14582674D02*
X11186730Y-14573150D01*
X11186730Y-14573150D02*
X11215301Y-14573150D01*
X11215301Y-14573150D02*
X11234349Y-14582674D01*
X11310539Y-14782674D02*
X11320063Y-14773150D01*
X11320063Y-14773150D02*
X11339111Y-14744579D01*
X11339111Y-14744579D02*
X11348634Y-14725531D01*
X11348634Y-14725531D02*
X11358158Y-14696960D01*
X11358158Y-14696960D02*
X11367682Y-14649341D01*
X11367682Y-14649341D02*
X11367682Y-14611246D01*
X11367682Y-14611246D02*
X11358158Y-14563627D01*
X11358158Y-14563627D02*
X11348634Y-14535055D01*
X11348634Y-14535055D02*
X11339111Y-14516008D01*
X11339111Y-14516008D02*
X11320063Y-14487436D01*
X11320063Y-14487436D02*
X11310539Y-14477912D01*
D13*
X6345000Y-14879000D02*
G75*
G03*
X6345000Y-14879000I-25000J0D01*
G01*
D11*
X6643872Y-14770484D02*
X6662920Y-14770484D01*
X6662920Y-14770484D02*
X6681967Y-14780008D01*
X6681967Y-14780008D02*
X6691491Y-14789531D01*
X6691491Y-14789531D02*
X6701015Y-14808579D01*
X6701015Y-14808579D02*
X6710539Y-14846674D01*
X6710539Y-14846674D02*
X6710539Y-14894293D01*
X6710539Y-14894293D02*
X6701015Y-14932388D01*
X6701015Y-14932388D02*
X6691491Y-14951436D01*
X6691491Y-14951436D02*
X6681967Y-14960960D01*
X6681967Y-14960960D02*
X6662920Y-14970484D01*
X6662920Y-14970484D02*
X6643872Y-14970484D01*
X6643872Y-14970484D02*
X6624824Y-14960960D01*
X6624824Y-14960960D02*
X6615301Y-14951436D01*
X6615301Y-14951436D02*
X6605777Y-14932388D01*
X6605777Y-14932388D02*
X6596253Y-14894293D01*
X6596253Y-14894293D02*
X6596253Y-14846674D01*
X6596253Y-14846674D02*
X6605777Y-14808579D01*
X6605777Y-14808579D02*
X6615301Y-14789531D01*
X6615301Y-14789531D02*
X6624824Y-14780008D01*
X6624824Y-14780008D02*
X6643872Y-14770484D01*
X6796253Y-14951436D02*
X6805777Y-14960960D01*
X6805777Y-14960960D02*
X6796253Y-14970484D01*
X6796253Y-14970484D02*
X6786729Y-14960960D01*
X6786729Y-14960960D02*
X6796253Y-14951436D01*
X6796253Y-14951436D02*
X6796253Y-14970484D01*
X6986729Y-14770484D02*
X6891491Y-14770484D01*
X6891491Y-14770484D02*
X6881967Y-14865722D01*
X6881967Y-14865722D02*
X6891491Y-14856198D01*
X6891491Y-14856198D02*
X6910539Y-14846674D01*
X6910539Y-14846674D02*
X6958158Y-14846674D01*
X6958158Y-14846674D02*
X6977205Y-14856198D01*
X6977205Y-14856198D02*
X6986729Y-14865722D01*
X6986729Y-14865722D02*
X6996253Y-14884769D01*
X6996253Y-14884769D02*
X6996253Y-14932388D01*
X6996253Y-14932388D02*
X6986729Y-14951436D01*
X6986729Y-14951436D02*
X6977205Y-14960960D01*
X6977205Y-14960960D02*
X6958158Y-14970484D01*
X6958158Y-14970484D02*
X6910539Y-14970484D01*
X6910539Y-14970484D02*
X6891491Y-14960960D01*
X6891491Y-14960960D02*
X6881967Y-14951436D01*
X7120062Y-14770484D02*
X7139110Y-14770484D01*
X7139110Y-14770484D02*
X7158158Y-14780008D01*
X7158158Y-14780008D02*
X7167682Y-14789531D01*
X7167682Y-14789531D02*
X7177205Y-14808579D01*
X7177205Y-14808579D02*
X7186729Y-14846674D01*
X7186729Y-14846674D02*
X7186729Y-14894293D01*
X7186729Y-14894293D02*
X7177205Y-14932388D01*
X7177205Y-14932388D02*
X7167682Y-14951436D01*
X7167682Y-14951436D02*
X7158158Y-14960960D01*
X7158158Y-14960960D02*
X7139110Y-14970484D01*
X7139110Y-14970484D02*
X7120062Y-14970484D01*
X7120062Y-14970484D02*
X7101015Y-14960960D01*
X7101015Y-14960960D02*
X7091491Y-14951436D01*
X7091491Y-14951436D02*
X7081967Y-14932388D01*
X7081967Y-14932388D02*
X7072443Y-14894293D01*
X7072443Y-14894293D02*
X7072443Y-14846674D01*
X7072443Y-14846674D02*
X7081967Y-14808579D01*
X7081967Y-14808579D02*
X7091491Y-14789531D01*
X7091491Y-14789531D02*
X7101015Y-14780008D01*
X7101015Y-14780008D02*
X7120062Y-14770484D01*
X7310539Y-14770484D02*
X7329586Y-14770484D01*
X7329586Y-14770484D02*
X7348634Y-14780008D01*
X7348634Y-14780008D02*
X7358158Y-14789531D01*
X7358158Y-14789531D02*
X7367682Y-14808579D01*
X7367682Y-14808579D02*
X7377205Y-14846674D01*
X7377205Y-14846674D02*
X7377205Y-14894293D01*
X7377205Y-14894293D02*
X7367682Y-14932388D01*
X7367682Y-14932388D02*
X7358158Y-14951436D01*
X7358158Y-14951436D02*
X7348634Y-14960960D01*
X7348634Y-14960960D02*
X7329586Y-14970484D01*
X7329586Y-14970484D02*
X7310539Y-14970484D01*
X7310539Y-14970484D02*
X7291491Y-14960960D01*
X7291491Y-14960960D02*
X7281967Y-14951436D01*
X7281967Y-14951436D02*
X7272443Y-14932388D01*
X7272443Y-14932388D02*
X7262920Y-14894293D01*
X7262920Y-14894293D02*
X7262920Y-14846674D01*
X7262920Y-14846674D02*
X7272443Y-14808579D01*
X7272443Y-14808579D02*
X7281967Y-14789531D01*
X7281967Y-14789531D02*
X7291491Y-14780008D01*
X7291491Y-14780008D02*
X7310539Y-14770484D01*
X7462920Y-14970484D02*
X7462920Y-14837150D01*
X7462920Y-14856198D02*
X7472443Y-14846674D01*
X7472443Y-14846674D02*
X7491491Y-14837150D01*
X7491491Y-14837150D02*
X7520063Y-14837150D01*
X7520063Y-14837150D02*
X7539110Y-14846674D01*
X7539110Y-14846674D02*
X7548634Y-14865722D01*
X7548634Y-14865722D02*
X7548634Y-14970484D01*
X7548634Y-14865722D02*
X7558158Y-14846674D01*
X7558158Y-14846674D02*
X7577205Y-14837150D01*
X7577205Y-14837150D02*
X7605777Y-14837150D01*
X7605777Y-14837150D02*
X7624824Y-14846674D01*
X7624824Y-14846674D02*
X7634348Y-14865722D01*
X7634348Y-14865722D02*
X7634348Y-14970484D01*
X7729586Y-14970484D02*
X7729586Y-14837150D01*
X7729586Y-14856198D02*
X7739110Y-14846674D01*
X7739110Y-14846674D02*
X7758158Y-14837150D01*
X7758158Y-14837150D02*
X7786729Y-14837150D01*
X7786729Y-14837150D02*
X7805777Y-14846674D01*
X7805777Y-14846674D02*
X7815301Y-14865722D01*
X7815301Y-14865722D02*
X7815301Y-14970484D01*
X7815301Y-14865722D02*
X7824824Y-14846674D01*
X7824824Y-14846674D02*
X7843872Y-14837150D01*
X7843872Y-14837150D02*
X7872443Y-14837150D01*
X7872443Y-14837150D02*
X7891491Y-14846674D01*
X7891491Y-14846674D02*
X7901015Y-14865722D01*
X7901015Y-14865722D02*
X7901015Y-14970484D01*
X8291491Y-14760960D02*
X8120063Y-15018103D01*
X8548634Y-14770484D02*
X8567682Y-14770484D01*
X8567682Y-14770484D02*
X8586729Y-14780008D01*
X8586729Y-14780008D02*
X8596253Y-14789531D01*
X8596253Y-14789531D02*
X8605777Y-14808579D01*
X8605777Y-14808579D02*
X8615301Y-14846674D01*
X8615301Y-14846674D02*
X8615301Y-14894293D01*
X8615301Y-14894293D02*
X8605777Y-14932388D01*
X8605777Y-14932388D02*
X8596253Y-14951436D01*
X8596253Y-14951436D02*
X8586729Y-14960960D01*
X8586729Y-14960960D02*
X8567682Y-14970484D01*
X8567682Y-14970484D02*
X8548634Y-14970484D01*
X8548634Y-14970484D02*
X8529587Y-14960960D01*
X8529587Y-14960960D02*
X8520063Y-14951436D01*
X8520063Y-14951436D02*
X8510539Y-14932388D01*
X8510539Y-14932388D02*
X8501015Y-14894293D01*
X8501015Y-14894293D02*
X8501015Y-14846674D01*
X8501015Y-14846674D02*
X8510539Y-14808579D01*
X8510539Y-14808579D02*
X8520063Y-14789531D01*
X8520063Y-14789531D02*
X8529587Y-14780008D01*
X8529587Y-14780008D02*
X8548634Y-14770484D01*
X8701015Y-14951436D02*
X8710539Y-14960960D01*
X8710539Y-14960960D02*
X8701015Y-14970484D01*
X8701015Y-14970484D02*
X8691491Y-14960960D01*
X8691491Y-14960960D02*
X8701015Y-14951436D01*
X8701015Y-14951436D02*
X8701015Y-14970484D01*
X8834348Y-14770484D02*
X8853396Y-14770484D01*
X8853396Y-14770484D02*
X8872444Y-14780008D01*
X8872444Y-14780008D02*
X8881968Y-14789531D01*
X8881968Y-14789531D02*
X8891491Y-14808579D01*
X8891491Y-14808579D02*
X8901015Y-14846674D01*
X8901015Y-14846674D02*
X8901015Y-14894293D01*
X8901015Y-14894293D02*
X8891491Y-14932388D01*
X8891491Y-14932388D02*
X8881968Y-14951436D01*
X8881968Y-14951436D02*
X8872444Y-14960960D01*
X8872444Y-14960960D02*
X8853396Y-14970484D01*
X8853396Y-14970484D02*
X8834348Y-14970484D01*
X8834348Y-14970484D02*
X8815301Y-14960960D01*
X8815301Y-14960960D02*
X8805777Y-14951436D01*
X8805777Y-14951436D02*
X8796253Y-14932388D01*
X8796253Y-14932388D02*
X8786729Y-14894293D01*
X8786729Y-14894293D02*
X8786729Y-14846674D01*
X8786729Y-14846674D02*
X8796253Y-14808579D01*
X8796253Y-14808579D02*
X8805777Y-14789531D01*
X8805777Y-14789531D02*
X8815301Y-14780008D01*
X8815301Y-14780008D02*
X8834348Y-14770484D01*
X9091491Y-14970484D02*
X8977206Y-14970484D01*
X9034348Y-14970484D02*
X9034348Y-14770484D01*
X9034348Y-14770484D02*
X9015301Y-14799055D01*
X9015301Y-14799055D02*
X8996253Y-14818103D01*
X8996253Y-14818103D02*
X8977206Y-14827627D01*
X9186729Y-14970484D02*
X9224825Y-14970484D01*
X9224825Y-14970484D02*
X9243872Y-14960960D01*
X9243872Y-14960960D02*
X9253396Y-14951436D01*
X9253396Y-14951436D02*
X9272444Y-14922865D01*
X9272444Y-14922865D02*
X9281968Y-14884769D01*
X9281968Y-14884769D02*
X9281968Y-14808579D01*
X9281968Y-14808579D02*
X9272444Y-14789531D01*
X9272444Y-14789531D02*
X9262920Y-14780008D01*
X9262920Y-14780008D02*
X9243872Y-14770484D01*
X9243872Y-14770484D02*
X9205777Y-14770484D01*
X9205777Y-14770484D02*
X9186729Y-14780008D01*
X9186729Y-14780008D02*
X9177206Y-14789531D01*
X9177206Y-14789531D02*
X9167682Y-14808579D01*
X9167682Y-14808579D02*
X9167682Y-14856198D01*
X9167682Y-14856198D02*
X9177206Y-14875246D01*
X9177206Y-14875246D02*
X9186729Y-14884769D01*
X9186729Y-14884769D02*
X9205777Y-14894293D01*
X9205777Y-14894293D02*
X9243872Y-14894293D01*
X9243872Y-14894293D02*
X9262920Y-14884769D01*
X9262920Y-14884769D02*
X9272444Y-14875246D01*
X9272444Y-14875246D02*
X9281968Y-14856198D01*
X9348634Y-14770484D02*
X9481968Y-14770484D01*
X9481968Y-14770484D02*
X9396253Y-14970484D01*
X9548634Y-14770484D02*
X9548634Y-14808579D01*
X9624825Y-14770484D02*
X9624825Y-14808579D01*
X9920063Y-15046674D02*
X9910539Y-15037150D01*
X9910539Y-15037150D02*
X9891491Y-15008579D01*
X9891491Y-15008579D02*
X9881968Y-14989531D01*
X9881968Y-14989531D02*
X9872444Y-14960960D01*
X9872444Y-14960960D02*
X9862920Y-14913341D01*
X9862920Y-14913341D02*
X9862920Y-14875246D01*
X9862920Y-14875246D02*
X9872444Y-14827627D01*
X9872444Y-14827627D02*
X9881968Y-14799055D01*
X9881968Y-14799055D02*
X9891491Y-14780008D01*
X9891491Y-14780008D02*
X9910539Y-14751436D01*
X9910539Y-14751436D02*
X9920063Y-14741912D01*
X9986730Y-14789531D02*
X9996253Y-14780008D01*
X9996253Y-14780008D02*
X10015301Y-14770484D01*
X10015301Y-14770484D02*
X10062920Y-14770484D01*
X10062920Y-14770484D02*
X10081968Y-14780008D01*
X10081968Y-14780008D02*
X10091491Y-14789531D01*
X10091491Y-14789531D02*
X10101015Y-14808579D01*
X10101015Y-14808579D02*
X10101015Y-14827627D01*
X10101015Y-14827627D02*
X10091491Y-14856198D01*
X10091491Y-14856198D02*
X9977206Y-14970484D01*
X9977206Y-14970484D02*
X10101015Y-14970484D01*
X10339111Y-14970484D02*
X10339111Y-14770484D01*
X10424825Y-14970484D02*
X10424825Y-14865722D01*
X10424825Y-14865722D02*
X10415301Y-14846674D01*
X10415301Y-14846674D02*
X10396253Y-14837150D01*
X10396253Y-14837150D02*
X10367682Y-14837150D01*
X10367682Y-14837150D02*
X10348634Y-14846674D01*
X10348634Y-14846674D02*
X10339111Y-14856198D01*
X10548634Y-14970484D02*
X10529587Y-14960960D01*
X10529587Y-14960960D02*
X10520063Y-14951436D01*
X10520063Y-14951436D02*
X10510539Y-14932388D01*
X10510539Y-14932388D02*
X10510539Y-14875246D01*
X10510539Y-14875246D02*
X10520063Y-14856198D01*
X10520063Y-14856198D02*
X10529587Y-14846674D01*
X10529587Y-14846674D02*
X10548634Y-14837150D01*
X10548634Y-14837150D02*
X10577206Y-14837150D01*
X10577206Y-14837150D02*
X10596253Y-14846674D01*
X10596253Y-14846674D02*
X10605777Y-14856198D01*
X10605777Y-14856198D02*
X10615301Y-14875246D01*
X10615301Y-14875246D02*
X10615301Y-14932388D01*
X10615301Y-14932388D02*
X10605777Y-14951436D01*
X10605777Y-14951436D02*
X10596253Y-14960960D01*
X10596253Y-14960960D02*
X10577206Y-14970484D01*
X10577206Y-14970484D02*
X10548634Y-14970484D01*
X10729587Y-14970484D02*
X10710539Y-14960960D01*
X10710539Y-14960960D02*
X10701015Y-14941912D01*
X10701015Y-14941912D02*
X10701015Y-14770484D01*
X10881968Y-14960960D02*
X10862920Y-14970484D01*
X10862920Y-14970484D02*
X10824825Y-14970484D01*
X10824825Y-14970484D02*
X10805777Y-14960960D01*
X10805777Y-14960960D02*
X10796253Y-14941912D01*
X10796253Y-14941912D02*
X10796253Y-14865722D01*
X10796253Y-14865722D02*
X10805777Y-14846674D01*
X10805777Y-14846674D02*
X10824825Y-14837150D01*
X10824825Y-14837150D02*
X10862920Y-14837150D01*
X10862920Y-14837150D02*
X10881968Y-14846674D01*
X10881968Y-14846674D02*
X10891492Y-14865722D01*
X10891492Y-14865722D02*
X10891492Y-14884769D01*
X10891492Y-14884769D02*
X10796253Y-14903817D01*
X10967682Y-14960960D02*
X10986730Y-14970484D01*
X10986730Y-14970484D02*
X11024825Y-14970484D01*
X11024825Y-14970484D02*
X11043873Y-14960960D01*
X11043873Y-14960960D02*
X11053396Y-14941912D01*
X11053396Y-14941912D02*
X11053396Y-14932388D01*
X11053396Y-14932388D02*
X11043873Y-14913341D01*
X11043873Y-14913341D02*
X11024825Y-14903817D01*
X11024825Y-14903817D02*
X10996253Y-14903817D01*
X10996253Y-14903817D02*
X10977206Y-14894293D01*
X10977206Y-14894293D02*
X10967682Y-14875246D01*
X10967682Y-14875246D02*
X10967682Y-14865722D01*
X10967682Y-14865722D02*
X10977206Y-14846674D01*
X10977206Y-14846674D02*
X10996253Y-14837150D01*
X10996253Y-14837150D02*
X11024825Y-14837150D01*
X11024825Y-14837150D02*
X11043873Y-14846674D01*
X11120063Y-15046674D02*
X11129587Y-15037150D01*
X11129587Y-15037150D02*
X11148634Y-15008579D01*
X11148634Y-15008579D02*
X11158158Y-14989531D01*
X11158158Y-14989531D02*
X11167682Y-14960960D01*
X11167682Y-14960960D02*
X11177206Y-14913341D01*
X11177206Y-14913341D02*
X11177206Y-14875246D01*
X11177206Y-14875246D02*
X11167682Y-14827627D01*
X11167682Y-14827627D02*
X11158158Y-14799055D01*
X11158158Y-14799055D02*
X11148634Y-14780008D01*
X11148634Y-14780008D02*
X11129587Y-14751436D01*
X11129587Y-14751436D02*
X11120063Y-14741912D01*
D14*
X6305000Y-15103000D02*
X6305000Y-15183000D01*
X6265000Y-15143000D02*
X6345000Y-15143000D01*
D11*
X6643872Y-15034484D02*
X6662920Y-15034484D01*
X6662920Y-15034484D02*
X6681967Y-15044008D01*
X6681967Y-15044008D02*
X6691491Y-15053531D01*
X6691491Y-15053531D02*
X6701015Y-15072579D01*
X6701015Y-15072579D02*
X6710539Y-15110674D01*
X6710539Y-15110674D02*
X6710539Y-15158293D01*
X6710539Y-15158293D02*
X6701015Y-15196388D01*
X6701015Y-15196388D02*
X6691491Y-15215436D01*
X6691491Y-15215436D02*
X6681967Y-15224960D01*
X6681967Y-15224960D02*
X6662920Y-15234484D01*
X6662920Y-15234484D02*
X6643872Y-15234484D01*
X6643872Y-15234484D02*
X6624824Y-15224960D01*
X6624824Y-15224960D02*
X6615301Y-15215436D01*
X6615301Y-15215436D02*
X6605777Y-15196388D01*
X6605777Y-15196388D02*
X6596253Y-15158293D01*
X6596253Y-15158293D02*
X6596253Y-15110674D01*
X6596253Y-15110674D02*
X6605777Y-15072579D01*
X6605777Y-15072579D02*
X6615301Y-15053531D01*
X6615301Y-15053531D02*
X6624824Y-15044008D01*
X6624824Y-15044008D02*
X6643872Y-15034484D01*
X6796253Y-15215436D02*
X6805777Y-15224960D01*
X6805777Y-15224960D02*
X6796253Y-15234484D01*
X6796253Y-15234484D02*
X6786729Y-15224960D01*
X6786729Y-15224960D02*
X6796253Y-15215436D01*
X6796253Y-15215436D02*
X6796253Y-15234484D01*
X6920062Y-15120198D02*
X6901015Y-15110674D01*
X6901015Y-15110674D02*
X6891491Y-15101150D01*
X6891491Y-15101150D02*
X6881967Y-15082103D01*
X6881967Y-15082103D02*
X6881967Y-15072579D01*
X6881967Y-15072579D02*
X6891491Y-15053531D01*
X6891491Y-15053531D02*
X6901015Y-15044008D01*
X6901015Y-15044008D02*
X6920062Y-15034484D01*
X6920062Y-15034484D02*
X6958158Y-15034484D01*
X6958158Y-15034484D02*
X6977205Y-15044008D01*
X6977205Y-15044008D02*
X6986729Y-15053531D01*
X6986729Y-15053531D02*
X6996253Y-15072579D01*
X6996253Y-15072579D02*
X6996253Y-15082103D01*
X6996253Y-15082103D02*
X6986729Y-15101150D01*
X6986729Y-15101150D02*
X6977205Y-15110674D01*
X6977205Y-15110674D02*
X6958158Y-15120198D01*
X6958158Y-15120198D02*
X6920062Y-15120198D01*
X6920062Y-15120198D02*
X6901015Y-15129722D01*
X6901015Y-15129722D02*
X6891491Y-15139246D01*
X6891491Y-15139246D02*
X6881967Y-15158293D01*
X6881967Y-15158293D02*
X6881967Y-15196388D01*
X6881967Y-15196388D02*
X6891491Y-15215436D01*
X6891491Y-15215436D02*
X6901015Y-15224960D01*
X6901015Y-15224960D02*
X6920062Y-15234484D01*
X6920062Y-15234484D02*
X6958158Y-15234484D01*
X6958158Y-15234484D02*
X6977205Y-15224960D01*
X6977205Y-15224960D02*
X6986729Y-15215436D01*
X6986729Y-15215436D02*
X6996253Y-15196388D01*
X6996253Y-15196388D02*
X6996253Y-15158293D01*
X6996253Y-15158293D02*
X6986729Y-15139246D01*
X6986729Y-15139246D02*
X6977205Y-15129722D01*
X6977205Y-15129722D02*
X6958158Y-15120198D01*
X7120062Y-15034484D02*
X7139110Y-15034484D01*
X7139110Y-15034484D02*
X7158158Y-15044008D01*
X7158158Y-15044008D02*
X7167682Y-15053531D01*
X7167682Y-15053531D02*
X7177205Y-15072579D01*
X7177205Y-15072579D02*
X7186729Y-15110674D01*
X7186729Y-15110674D02*
X7186729Y-15158293D01*
X7186729Y-15158293D02*
X7177205Y-15196388D01*
X7177205Y-15196388D02*
X7167682Y-15215436D01*
X7167682Y-15215436D02*
X7158158Y-15224960D01*
X7158158Y-15224960D02*
X7139110Y-15234484D01*
X7139110Y-15234484D02*
X7120062Y-15234484D01*
X7120062Y-15234484D02*
X7101015Y-15224960D01*
X7101015Y-15224960D02*
X7091491Y-15215436D01*
X7091491Y-15215436D02*
X7081967Y-15196388D01*
X7081967Y-15196388D02*
X7072443Y-15158293D01*
X7072443Y-15158293D02*
X7072443Y-15110674D01*
X7072443Y-15110674D02*
X7081967Y-15072579D01*
X7081967Y-15072579D02*
X7091491Y-15053531D01*
X7091491Y-15053531D02*
X7101015Y-15044008D01*
X7101015Y-15044008D02*
X7120062Y-15034484D01*
X7310539Y-15034484D02*
X7329586Y-15034484D01*
X7329586Y-15034484D02*
X7348634Y-15044008D01*
X7348634Y-15044008D02*
X7358158Y-15053531D01*
X7358158Y-15053531D02*
X7367682Y-15072579D01*
X7367682Y-15072579D02*
X7377205Y-15110674D01*
X7377205Y-15110674D02*
X7377205Y-15158293D01*
X7377205Y-15158293D02*
X7367682Y-15196388D01*
X7367682Y-15196388D02*
X7358158Y-15215436D01*
X7358158Y-15215436D02*
X7348634Y-15224960D01*
X7348634Y-15224960D02*
X7329586Y-15234484D01*
X7329586Y-15234484D02*
X7310539Y-15234484D01*
X7310539Y-15234484D02*
X7291491Y-15224960D01*
X7291491Y-15224960D02*
X7281967Y-15215436D01*
X7281967Y-15215436D02*
X7272443Y-15196388D01*
X7272443Y-15196388D02*
X7262920Y-15158293D01*
X7262920Y-15158293D02*
X7262920Y-15110674D01*
X7262920Y-15110674D02*
X7272443Y-15072579D01*
X7272443Y-15072579D02*
X7281967Y-15053531D01*
X7281967Y-15053531D02*
X7291491Y-15044008D01*
X7291491Y-15044008D02*
X7310539Y-15034484D01*
X7462920Y-15234484D02*
X7462920Y-15101150D01*
X7462920Y-15120198D02*
X7472443Y-15110674D01*
X7472443Y-15110674D02*
X7491491Y-15101150D01*
X7491491Y-15101150D02*
X7520063Y-15101150D01*
X7520063Y-15101150D02*
X7539110Y-15110674D01*
X7539110Y-15110674D02*
X7548634Y-15129722D01*
X7548634Y-15129722D02*
X7548634Y-15234484D01*
X7548634Y-15129722D02*
X7558158Y-15110674D01*
X7558158Y-15110674D02*
X7577205Y-15101150D01*
X7577205Y-15101150D02*
X7605777Y-15101150D01*
X7605777Y-15101150D02*
X7624824Y-15110674D01*
X7624824Y-15110674D02*
X7634348Y-15129722D01*
X7634348Y-15129722D02*
X7634348Y-15234484D01*
X7729586Y-15234484D02*
X7729586Y-15101150D01*
X7729586Y-15120198D02*
X7739110Y-15110674D01*
X7739110Y-15110674D02*
X7758158Y-15101150D01*
X7758158Y-15101150D02*
X7786729Y-15101150D01*
X7786729Y-15101150D02*
X7805777Y-15110674D01*
X7805777Y-15110674D02*
X7815301Y-15129722D01*
X7815301Y-15129722D02*
X7815301Y-15234484D01*
X7815301Y-15129722D02*
X7824824Y-15110674D01*
X7824824Y-15110674D02*
X7843872Y-15101150D01*
X7843872Y-15101150D02*
X7872443Y-15101150D01*
X7872443Y-15101150D02*
X7891491Y-15110674D01*
X7891491Y-15110674D02*
X7901015Y-15129722D01*
X7901015Y-15129722D02*
X7901015Y-15234484D01*
X8291491Y-15024960D02*
X8120063Y-15282103D01*
X8548634Y-15034484D02*
X8567682Y-15034484D01*
X8567682Y-15034484D02*
X8586729Y-15044008D01*
X8586729Y-15044008D02*
X8596253Y-15053531D01*
X8596253Y-15053531D02*
X8605777Y-15072579D01*
X8605777Y-15072579D02*
X8615301Y-15110674D01*
X8615301Y-15110674D02*
X8615301Y-15158293D01*
X8615301Y-15158293D02*
X8605777Y-15196388D01*
X8605777Y-15196388D02*
X8596253Y-15215436D01*
X8596253Y-15215436D02*
X8586729Y-15224960D01*
X8586729Y-15224960D02*
X8567682Y-15234484D01*
X8567682Y-15234484D02*
X8548634Y-15234484D01*
X8548634Y-15234484D02*
X8529587Y-15224960D01*
X8529587Y-15224960D02*
X8520063Y-15215436D01*
X8520063Y-15215436D02*
X8510539Y-15196388D01*
X8510539Y-15196388D02*
X8501015Y-15158293D01*
X8501015Y-15158293D02*
X8501015Y-15110674D01*
X8501015Y-15110674D02*
X8510539Y-15072579D01*
X8510539Y-15072579D02*
X8520063Y-15053531D01*
X8520063Y-15053531D02*
X8529587Y-15044008D01*
X8529587Y-15044008D02*
X8548634Y-15034484D01*
X8701015Y-15215436D02*
X8710539Y-15224960D01*
X8710539Y-15224960D02*
X8701015Y-15234484D01*
X8701015Y-15234484D02*
X8691491Y-15224960D01*
X8691491Y-15224960D02*
X8701015Y-15215436D01*
X8701015Y-15215436D02*
X8701015Y-15234484D01*
X8834348Y-15034484D02*
X8853396Y-15034484D01*
X8853396Y-15034484D02*
X8872444Y-15044008D01*
X8872444Y-15044008D02*
X8881968Y-15053531D01*
X8881968Y-15053531D02*
X8891491Y-15072579D01*
X8891491Y-15072579D02*
X8901015Y-15110674D01*
X8901015Y-15110674D02*
X8901015Y-15158293D01*
X8901015Y-15158293D02*
X8891491Y-15196388D01*
X8891491Y-15196388D02*
X8881968Y-15215436D01*
X8881968Y-15215436D02*
X8872444Y-15224960D01*
X8872444Y-15224960D02*
X8853396Y-15234484D01*
X8853396Y-15234484D02*
X8834348Y-15234484D01*
X8834348Y-15234484D02*
X8815301Y-15224960D01*
X8815301Y-15224960D02*
X8805777Y-15215436D01*
X8805777Y-15215436D02*
X8796253Y-15196388D01*
X8796253Y-15196388D02*
X8786729Y-15158293D01*
X8786729Y-15158293D02*
X8786729Y-15110674D01*
X8786729Y-15110674D02*
X8796253Y-15072579D01*
X8796253Y-15072579D02*
X8805777Y-15053531D01*
X8805777Y-15053531D02*
X8815301Y-15044008D01*
X8815301Y-15044008D02*
X8834348Y-15034484D01*
X8967682Y-15034484D02*
X9091491Y-15034484D01*
X9091491Y-15034484D02*
X9024825Y-15110674D01*
X9024825Y-15110674D02*
X9053396Y-15110674D01*
X9053396Y-15110674D02*
X9072444Y-15120198D01*
X9072444Y-15120198D02*
X9081968Y-15129722D01*
X9081968Y-15129722D02*
X9091491Y-15148769D01*
X9091491Y-15148769D02*
X9091491Y-15196388D01*
X9091491Y-15196388D02*
X9081968Y-15215436D01*
X9081968Y-15215436D02*
X9072444Y-15224960D01*
X9072444Y-15224960D02*
X9053396Y-15234484D01*
X9053396Y-15234484D02*
X8996253Y-15234484D01*
X8996253Y-15234484D02*
X8977206Y-15224960D01*
X8977206Y-15224960D02*
X8967682Y-15215436D01*
X9281968Y-15234484D02*
X9167682Y-15234484D01*
X9224825Y-15234484D02*
X9224825Y-15034484D01*
X9224825Y-15034484D02*
X9205777Y-15063055D01*
X9205777Y-15063055D02*
X9186729Y-15082103D01*
X9186729Y-15082103D02*
X9167682Y-15091627D01*
X9462920Y-15034484D02*
X9367682Y-15034484D01*
X9367682Y-15034484D02*
X9358158Y-15129722D01*
X9358158Y-15129722D02*
X9367682Y-15120198D01*
X9367682Y-15120198D02*
X9386729Y-15110674D01*
X9386729Y-15110674D02*
X9434349Y-15110674D01*
X9434349Y-15110674D02*
X9453396Y-15120198D01*
X9453396Y-15120198D02*
X9462920Y-15129722D01*
X9462920Y-15129722D02*
X9472444Y-15148769D01*
X9472444Y-15148769D02*
X9472444Y-15196388D01*
X9472444Y-15196388D02*
X9462920Y-15215436D01*
X9462920Y-15215436D02*
X9453396Y-15224960D01*
X9453396Y-15224960D02*
X9434349Y-15234484D01*
X9434349Y-15234484D02*
X9386729Y-15234484D01*
X9386729Y-15234484D02*
X9367682Y-15224960D01*
X9367682Y-15224960D02*
X9358158Y-15215436D01*
X9548634Y-15034484D02*
X9548634Y-15072579D01*
X9624825Y-15034484D02*
X9624825Y-15072579D01*
X9920063Y-15310674D02*
X9910539Y-15301150D01*
X9910539Y-15301150D02*
X9891491Y-15272579D01*
X9891491Y-15272579D02*
X9881968Y-15253531D01*
X9881968Y-15253531D02*
X9872444Y-15224960D01*
X9872444Y-15224960D02*
X9862920Y-15177341D01*
X9862920Y-15177341D02*
X9862920Y-15139246D01*
X9862920Y-15139246D02*
X9872444Y-15091627D01*
X9872444Y-15091627D02*
X9881968Y-15063055D01*
X9881968Y-15063055D02*
X9891491Y-15044008D01*
X9891491Y-15044008D02*
X9910539Y-15015436D01*
X9910539Y-15015436D02*
X9920063Y-15005912D01*
X10024825Y-15120198D02*
X10005777Y-15110674D01*
X10005777Y-15110674D02*
X9996253Y-15101150D01*
X9996253Y-15101150D02*
X9986730Y-15082103D01*
X9986730Y-15082103D02*
X9986730Y-15072579D01*
X9986730Y-15072579D02*
X9996253Y-15053531D01*
X9996253Y-15053531D02*
X10005777Y-15044008D01*
X10005777Y-15044008D02*
X10024825Y-15034484D01*
X10024825Y-15034484D02*
X10062920Y-15034484D01*
X10062920Y-15034484D02*
X10081968Y-15044008D01*
X10081968Y-15044008D02*
X10091491Y-15053531D01*
X10091491Y-15053531D02*
X10101015Y-15072579D01*
X10101015Y-15072579D02*
X10101015Y-15082103D01*
X10101015Y-15082103D02*
X10091491Y-15101150D01*
X10091491Y-15101150D02*
X10081968Y-15110674D01*
X10081968Y-15110674D02*
X10062920Y-15120198D01*
X10062920Y-15120198D02*
X10024825Y-15120198D01*
X10024825Y-15120198D02*
X10005777Y-15129722D01*
X10005777Y-15129722D02*
X9996253Y-15139246D01*
X9996253Y-15139246D02*
X9986730Y-15158293D01*
X9986730Y-15158293D02*
X9986730Y-15196388D01*
X9986730Y-15196388D02*
X9996253Y-15215436D01*
X9996253Y-15215436D02*
X10005777Y-15224960D01*
X10005777Y-15224960D02*
X10024825Y-15234484D01*
X10024825Y-15234484D02*
X10062920Y-15234484D01*
X10062920Y-15234484D02*
X10081968Y-15224960D01*
X10081968Y-15224960D02*
X10091491Y-15215436D01*
X10091491Y-15215436D02*
X10101015Y-15196388D01*
X10101015Y-15196388D02*
X10101015Y-15158293D01*
X10101015Y-15158293D02*
X10091491Y-15139246D01*
X10091491Y-15139246D02*
X10081968Y-15129722D01*
X10081968Y-15129722D02*
X10062920Y-15120198D01*
X10339111Y-15234484D02*
X10339111Y-15034484D01*
X10424825Y-15234484D02*
X10424825Y-15129722D01*
X10424825Y-15129722D02*
X10415301Y-15110674D01*
X10415301Y-15110674D02*
X10396253Y-15101150D01*
X10396253Y-15101150D02*
X10367682Y-15101150D01*
X10367682Y-15101150D02*
X10348634Y-15110674D01*
X10348634Y-15110674D02*
X10339111Y-15120198D01*
X10548634Y-15234484D02*
X10529587Y-15224960D01*
X10529587Y-15224960D02*
X10520063Y-15215436D01*
X10520063Y-15215436D02*
X10510539Y-15196388D01*
X10510539Y-15196388D02*
X10510539Y-15139246D01*
X10510539Y-15139246D02*
X10520063Y-15120198D01*
X10520063Y-15120198D02*
X10529587Y-15110674D01*
X10529587Y-15110674D02*
X10548634Y-15101150D01*
X10548634Y-15101150D02*
X10577206Y-15101150D01*
X10577206Y-15101150D02*
X10596253Y-15110674D01*
X10596253Y-15110674D02*
X10605777Y-15120198D01*
X10605777Y-15120198D02*
X10615301Y-15139246D01*
X10615301Y-15139246D02*
X10615301Y-15196388D01*
X10615301Y-15196388D02*
X10605777Y-15215436D01*
X10605777Y-15215436D02*
X10596253Y-15224960D01*
X10596253Y-15224960D02*
X10577206Y-15234484D01*
X10577206Y-15234484D02*
X10548634Y-15234484D01*
X10729587Y-15234484D02*
X10710539Y-15224960D01*
X10710539Y-15224960D02*
X10701015Y-15205912D01*
X10701015Y-15205912D02*
X10701015Y-15034484D01*
X10881968Y-15224960D02*
X10862920Y-15234484D01*
X10862920Y-15234484D02*
X10824825Y-15234484D01*
X10824825Y-15234484D02*
X10805777Y-15224960D01*
X10805777Y-15224960D02*
X10796253Y-15205912D01*
X10796253Y-15205912D02*
X10796253Y-15129722D01*
X10796253Y-15129722D02*
X10805777Y-15110674D01*
X10805777Y-15110674D02*
X10824825Y-15101150D01*
X10824825Y-15101150D02*
X10862920Y-15101150D01*
X10862920Y-15101150D02*
X10881968Y-15110674D01*
X10881968Y-15110674D02*
X10891492Y-15129722D01*
X10891492Y-15129722D02*
X10891492Y-15148769D01*
X10891492Y-15148769D02*
X10796253Y-15167817D01*
X10967682Y-15224960D02*
X10986730Y-15234484D01*
X10986730Y-15234484D02*
X11024825Y-15234484D01*
X11024825Y-15234484D02*
X11043873Y-15224960D01*
X11043873Y-15224960D02*
X11053396Y-15205912D01*
X11053396Y-15205912D02*
X11053396Y-15196388D01*
X11053396Y-15196388D02*
X11043873Y-15177341D01*
X11043873Y-15177341D02*
X11024825Y-15167817D01*
X11024825Y-15167817D02*
X10996253Y-15167817D01*
X10996253Y-15167817D02*
X10977206Y-15158293D01*
X10977206Y-15158293D02*
X10967682Y-15139246D01*
X10967682Y-15139246D02*
X10967682Y-15129722D01*
X10967682Y-15129722D02*
X10977206Y-15110674D01*
X10977206Y-15110674D02*
X10996253Y-15101150D01*
X10996253Y-15101150D02*
X11024825Y-15101150D01*
X11024825Y-15101150D02*
X11043873Y-15110674D01*
X11120063Y-15310674D02*
X11129587Y-15301150D01*
X11129587Y-15301150D02*
X11148634Y-15272579D01*
X11148634Y-15272579D02*
X11158158Y-15253531D01*
X11158158Y-15253531D02*
X11167682Y-15224960D01*
X11167682Y-15224960D02*
X11177206Y-15177341D01*
X11177206Y-15177341D02*
X11177206Y-15139246D01*
X11177206Y-15139246D02*
X11167682Y-15091627D01*
X11167682Y-15091627D02*
X11158158Y-15063055D01*
X11158158Y-15063055D02*
X11148634Y-15044008D01*
X11148634Y-15044008D02*
X11129587Y-15015436D01*
X11129587Y-15015436D02*
X11120063Y-15005912D01*
D15*
X6331820Y-15438820D02*
X6331820Y-15375180D01*
X6268180Y-15375180D01*
X6268180Y-15438820D01*
X6331820Y-15438820D01*
D11*
X6643872Y-15298484D02*
X6662920Y-15298484D01*
X6662920Y-15298484D02*
X6681967Y-15308008D01*
X6681967Y-15308008D02*
X6691491Y-15317531D01*
X6691491Y-15317531D02*
X6701015Y-15336579D01*
X6701015Y-15336579D02*
X6710539Y-15374674D01*
X6710539Y-15374674D02*
X6710539Y-15422293D01*
X6710539Y-15422293D02*
X6701015Y-15460388D01*
X6701015Y-15460388D02*
X6691491Y-15479436D01*
X6691491Y-15479436D02*
X6681967Y-15488960D01*
X6681967Y-15488960D02*
X6662920Y-15498484D01*
X6662920Y-15498484D02*
X6643872Y-15498484D01*
X6643872Y-15498484D02*
X6624824Y-15488960D01*
X6624824Y-15488960D02*
X6615301Y-15479436D01*
X6615301Y-15479436D02*
X6605777Y-15460388D01*
X6605777Y-15460388D02*
X6596253Y-15422293D01*
X6596253Y-15422293D02*
X6596253Y-15374674D01*
X6596253Y-15374674D02*
X6605777Y-15336579D01*
X6605777Y-15336579D02*
X6615301Y-15317531D01*
X6615301Y-15317531D02*
X6624824Y-15308008D01*
X6624824Y-15308008D02*
X6643872Y-15298484D01*
X6796253Y-15479436D02*
X6805777Y-15488960D01*
X6805777Y-15488960D02*
X6796253Y-15498484D01*
X6796253Y-15498484D02*
X6786729Y-15488960D01*
X6786729Y-15488960D02*
X6796253Y-15479436D01*
X6796253Y-15479436D02*
X6796253Y-15498484D01*
X6901015Y-15498484D02*
X6939110Y-15498484D01*
X6939110Y-15498484D02*
X6958158Y-15488960D01*
X6958158Y-15488960D02*
X6967682Y-15479436D01*
X6967682Y-15479436D02*
X6986729Y-15450865D01*
X6986729Y-15450865D02*
X6996253Y-15412769D01*
X6996253Y-15412769D02*
X6996253Y-15336579D01*
X6996253Y-15336579D02*
X6986729Y-15317531D01*
X6986729Y-15317531D02*
X6977205Y-15308008D01*
X6977205Y-15308008D02*
X6958158Y-15298484D01*
X6958158Y-15298484D02*
X6920062Y-15298484D01*
X6920062Y-15298484D02*
X6901015Y-15308008D01*
X6901015Y-15308008D02*
X6891491Y-15317531D01*
X6891491Y-15317531D02*
X6881967Y-15336579D01*
X6881967Y-15336579D02*
X6881967Y-15384198D01*
X6881967Y-15384198D02*
X6891491Y-15403246D01*
X6891491Y-15403246D02*
X6901015Y-15412769D01*
X6901015Y-15412769D02*
X6920062Y-15422293D01*
X6920062Y-15422293D02*
X6958158Y-15422293D01*
X6958158Y-15422293D02*
X6977205Y-15412769D01*
X6977205Y-15412769D02*
X6986729Y-15403246D01*
X6986729Y-15403246D02*
X6996253Y-15384198D01*
X7120062Y-15298484D02*
X7139110Y-15298484D01*
X7139110Y-15298484D02*
X7158158Y-15308008D01*
X7158158Y-15308008D02*
X7167682Y-15317531D01*
X7167682Y-15317531D02*
X7177205Y-15336579D01*
X7177205Y-15336579D02*
X7186729Y-15374674D01*
X7186729Y-15374674D02*
X7186729Y-15422293D01*
X7186729Y-15422293D02*
X7177205Y-15460388D01*
X7177205Y-15460388D02*
X7167682Y-15479436D01*
X7167682Y-15479436D02*
X7158158Y-15488960D01*
X7158158Y-15488960D02*
X7139110Y-15498484D01*
X7139110Y-15498484D02*
X7120062Y-15498484D01*
X7120062Y-15498484D02*
X7101015Y-15488960D01*
X7101015Y-15488960D02*
X7091491Y-15479436D01*
X7091491Y-15479436D02*
X7081967Y-15460388D01*
X7081967Y-15460388D02*
X7072443Y-15422293D01*
X7072443Y-15422293D02*
X7072443Y-15374674D01*
X7072443Y-15374674D02*
X7081967Y-15336579D01*
X7081967Y-15336579D02*
X7091491Y-15317531D01*
X7091491Y-15317531D02*
X7101015Y-15308008D01*
X7101015Y-15308008D02*
X7120062Y-15298484D01*
X7310539Y-15298484D02*
X7329586Y-15298484D01*
X7329586Y-15298484D02*
X7348634Y-15308008D01*
X7348634Y-15308008D02*
X7358158Y-15317531D01*
X7358158Y-15317531D02*
X7367682Y-15336579D01*
X7367682Y-15336579D02*
X7377205Y-15374674D01*
X7377205Y-15374674D02*
X7377205Y-15422293D01*
X7377205Y-15422293D02*
X7367682Y-15460388D01*
X7367682Y-15460388D02*
X7358158Y-15479436D01*
X7358158Y-15479436D02*
X7348634Y-15488960D01*
X7348634Y-15488960D02*
X7329586Y-15498484D01*
X7329586Y-15498484D02*
X7310539Y-15498484D01*
X7310539Y-15498484D02*
X7291491Y-15488960D01*
X7291491Y-15488960D02*
X7281967Y-15479436D01*
X7281967Y-15479436D02*
X7272443Y-15460388D01*
X7272443Y-15460388D02*
X7262920Y-15422293D01*
X7262920Y-15422293D02*
X7262920Y-15374674D01*
X7262920Y-15374674D02*
X7272443Y-15336579D01*
X7272443Y-15336579D02*
X7281967Y-15317531D01*
X7281967Y-15317531D02*
X7291491Y-15308008D01*
X7291491Y-15308008D02*
X7310539Y-15298484D01*
X7462920Y-15498484D02*
X7462920Y-15365150D01*
X7462920Y-15384198D02*
X7472443Y-15374674D01*
X7472443Y-15374674D02*
X7491491Y-15365150D01*
X7491491Y-15365150D02*
X7520063Y-15365150D01*
X7520063Y-15365150D02*
X7539110Y-15374674D01*
X7539110Y-15374674D02*
X7548634Y-15393722D01*
X7548634Y-15393722D02*
X7548634Y-15498484D01*
X7548634Y-15393722D02*
X7558158Y-15374674D01*
X7558158Y-15374674D02*
X7577205Y-15365150D01*
X7577205Y-15365150D02*
X7605777Y-15365150D01*
X7605777Y-15365150D02*
X7624824Y-15374674D01*
X7624824Y-15374674D02*
X7634348Y-15393722D01*
X7634348Y-15393722D02*
X7634348Y-15498484D01*
X7729586Y-15498484D02*
X7729586Y-15365150D01*
X7729586Y-15384198D02*
X7739110Y-15374674D01*
X7739110Y-15374674D02*
X7758158Y-15365150D01*
X7758158Y-15365150D02*
X7786729Y-15365150D01*
X7786729Y-15365150D02*
X7805777Y-15374674D01*
X7805777Y-15374674D02*
X7815301Y-15393722D01*
X7815301Y-15393722D02*
X7815301Y-15498484D01*
X7815301Y-15393722D02*
X7824824Y-15374674D01*
X7824824Y-15374674D02*
X7843872Y-15365150D01*
X7843872Y-15365150D02*
X7872443Y-15365150D01*
X7872443Y-15365150D02*
X7891491Y-15374674D01*
X7891491Y-15374674D02*
X7901015Y-15393722D01*
X7901015Y-15393722D02*
X7901015Y-15498484D01*
X8291491Y-15288960D02*
X8120063Y-15546103D01*
X8548634Y-15298484D02*
X8567682Y-15298484D01*
X8567682Y-15298484D02*
X8586729Y-15308008D01*
X8586729Y-15308008D02*
X8596253Y-15317531D01*
X8596253Y-15317531D02*
X8605777Y-15336579D01*
X8605777Y-15336579D02*
X8615301Y-15374674D01*
X8615301Y-15374674D02*
X8615301Y-15422293D01*
X8615301Y-15422293D02*
X8605777Y-15460388D01*
X8605777Y-15460388D02*
X8596253Y-15479436D01*
X8596253Y-15479436D02*
X8586729Y-15488960D01*
X8586729Y-15488960D02*
X8567682Y-15498484D01*
X8567682Y-15498484D02*
X8548634Y-15498484D01*
X8548634Y-15498484D02*
X8529587Y-15488960D01*
X8529587Y-15488960D02*
X8520063Y-15479436D01*
X8520063Y-15479436D02*
X8510539Y-15460388D01*
X8510539Y-15460388D02*
X8501015Y-15422293D01*
X8501015Y-15422293D02*
X8501015Y-15374674D01*
X8501015Y-15374674D02*
X8510539Y-15336579D01*
X8510539Y-15336579D02*
X8520063Y-15317531D01*
X8520063Y-15317531D02*
X8529587Y-15308008D01*
X8529587Y-15308008D02*
X8548634Y-15298484D01*
X8701015Y-15479436D02*
X8710539Y-15488960D01*
X8710539Y-15488960D02*
X8701015Y-15498484D01*
X8701015Y-15498484D02*
X8691491Y-15488960D01*
X8691491Y-15488960D02*
X8701015Y-15479436D01*
X8701015Y-15479436D02*
X8701015Y-15498484D01*
X8834348Y-15298484D02*
X8853396Y-15298484D01*
X8853396Y-15298484D02*
X8872444Y-15308008D01*
X8872444Y-15308008D02*
X8881968Y-15317531D01*
X8881968Y-15317531D02*
X8891491Y-15336579D01*
X8891491Y-15336579D02*
X8901015Y-15374674D01*
X8901015Y-15374674D02*
X8901015Y-15422293D01*
X8901015Y-15422293D02*
X8891491Y-15460388D01*
X8891491Y-15460388D02*
X8881968Y-15479436D01*
X8881968Y-15479436D02*
X8872444Y-15488960D01*
X8872444Y-15488960D02*
X8853396Y-15498484D01*
X8853396Y-15498484D02*
X8834348Y-15498484D01*
X8834348Y-15498484D02*
X8815301Y-15488960D01*
X8815301Y-15488960D02*
X8805777Y-15479436D01*
X8805777Y-15479436D02*
X8796253Y-15460388D01*
X8796253Y-15460388D02*
X8786729Y-15422293D01*
X8786729Y-15422293D02*
X8786729Y-15374674D01*
X8786729Y-15374674D02*
X8796253Y-15336579D01*
X8796253Y-15336579D02*
X8805777Y-15317531D01*
X8805777Y-15317531D02*
X8815301Y-15308008D01*
X8815301Y-15308008D02*
X8834348Y-15298484D01*
X8967682Y-15298484D02*
X9091491Y-15298484D01*
X9091491Y-15298484D02*
X9024825Y-15374674D01*
X9024825Y-15374674D02*
X9053396Y-15374674D01*
X9053396Y-15374674D02*
X9072444Y-15384198D01*
X9072444Y-15384198D02*
X9081968Y-15393722D01*
X9081968Y-15393722D02*
X9091491Y-15412769D01*
X9091491Y-15412769D02*
X9091491Y-15460388D01*
X9091491Y-15460388D02*
X9081968Y-15479436D01*
X9081968Y-15479436D02*
X9072444Y-15488960D01*
X9072444Y-15488960D02*
X9053396Y-15498484D01*
X9053396Y-15498484D02*
X8996253Y-15498484D01*
X8996253Y-15498484D02*
X8977206Y-15488960D01*
X8977206Y-15488960D02*
X8967682Y-15479436D01*
X9272444Y-15298484D02*
X9177206Y-15298484D01*
X9177206Y-15298484D02*
X9167682Y-15393722D01*
X9167682Y-15393722D02*
X9177206Y-15384198D01*
X9177206Y-15384198D02*
X9196253Y-15374674D01*
X9196253Y-15374674D02*
X9243872Y-15374674D01*
X9243872Y-15374674D02*
X9262920Y-15384198D01*
X9262920Y-15384198D02*
X9272444Y-15393722D01*
X9272444Y-15393722D02*
X9281968Y-15412769D01*
X9281968Y-15412769D02*
X9281968Y-15460388D01*
X9281968Y-15460388D02*
X9272444Y-15479436D01*
X9272444Y-15479436D02*
X9262920Y-15488960D01*
X9262920Y-15488960D02*
X9243872Y-15498484D01*
X9243872Y-15498484D02*
X9196253Y-15498484D01*
X9196253Y-15498484D02*
X9177206Y-15488960D01*
X9177206Y-15488960D02*
X9167682Y-15479436D01*
X9453396Y-15365150D02*
X9453396Y-15498484D01*
X9405777Y-15288960D02*
X9358158Y-15431817D01*
X9358158Y-15431817D02*
X9481968Y-15431817D01*
X9548634Y-15298484D02*
X9548634Y-15336579D01*
X9624825Y-15298484D02*
X9624825Y-15336579D01*
X9920063Y-15574674D02*
X9910539Y-15565150D01*
X9910539Y-15565150D02*
X9891491Y-15536579D01*
X9891491Y-15536579D02*
X9881968Y-15517531D01*
X9881968Y-15517531D02*
X9872444Y-15488960D01*
X9872444Y-15488960D02*
X9862920Y-15441341D01*
X9862920Y-15441341D02*
X9862920Y-15403246D01*
X9862920Y-15403246D02*
X9872444Y-15355627D01*
X9872444Y-15355627D02*
X9881968Y-15327055D01*
X9881968Y-15327055D02*
X9891491Y-15308008D01*
X9891491Y-15308008D02*
X9910539Y-15279436D01*
X9910539Y-15279436D02*
X9920063Y-15269912D01*
X9986730Y-15317531D02*
X9996253Y-15308008D01*
X9996253Y-15308008D02*
X10015301Y-15298484D01*
X10015301Y-15298484D02*
X10062920Y-15298484D01*
X10062920Y-15298484D02*
X10081968Y-15308008D01*
X10081968Y-15308008D02*
X10091491Y-15317531D01*
X10091491Y-15317531D02*
X10101015Y-15336579D01*
X10101015Y-15336579D02*
X10101015Y-15355627D01*
X10101015Y-15355627D02*
X10091491Y-15384198D01*
X10091491Y-15384198D02*
X9977206Y-15498484D01*
X9977206Y-15498484D02*
X10101015Y-15498484D01*
X10224825Y-15298484D02*
X10243872Y-15298484D01*
X10243872Y-15298484D02*
X10262920Y-15308008D01*
X10262920Y-15308008D02*
X10272444Y-15317531D01*
X10272444Y-15317531D02*
X10281968Y-15336579D01*
X10281968Y-15336579D02*
X10291491Y-15374674D01*
X10291491Y-15374674D02*
X10291491Y-15422293D01*
X10291491Y-15422293D02*
X10281968Y-15460388D01*
X10281968Y-15460388D02*
X10272444Y-15479436D01*
X10272444Y-15479436D02*
X10262920Y-15488960D01*
X10262920Y-15488960D02*
X10243872Y-15498484D01*
X10243872Y-15498484D02*
X10224825Y-15498484D01*
X10224825Y-15498484D02*
X10205777Y-15488960D01*
X10205777Y-15488960D02*
X10196253Y-15479436D01*
X10196253Y-15479436D02*
X10186730Y-15460388D01*
X10186730Y-15460388D02*
X10177206Y-15422293D01*
X10177206Y-15422293D02*
X10177206Y-15374674D01*
X10177206Y-15374674D02*
X10186730Y-15336579D01*
X10186730Y-15336579D02*
X10196253Y-15317531D01*
X10196253Y-15317531D02*
X10205777Y-15308008D01*
X10205777Y-15308008D02*
X10224825Y-15298484D01*
X10529587Y-15498484D02*
X10529587Y-15298484D01*
X10615301Y-15498484D02*
X10615301Y-15393722D01*
X10615301Y-15393722D02*
X10605777Y-15374674D01*
X10605777Y-15374674D02*
X10586730Y-15365150D01*
X10586730Y-15365150D02*
X10558158Y-15365150D01*
X10558158Y-15365150D02*
X10539111Y-15374674D01*
X10539111Y-15374674D02*
X10529587Y-15384198D01*
X10739111Y-15498484D02*
X10720063Y-15488960D01*
X10720063Y-15488960D02*
X10710539Y-15479436D01*
X10710539Y-15479436D02*
X10701015Y-15460388D01*
X10701015Y-15460388D02*
X10701015Y-15403246D01*
X10701015Y-15403246D02*
X10710539Y-15384198D01*
X10710539Y-15384198D02*
X10720063Y-15374674D01*
X10720063Y-15374674D02*
X10739111Y-15365150D01*
X10739111Y-15365150D02*
X10767682Y-15365150D01*
X10767682Y-15365150D02*
X10786730Y-15374674D01*
X10786730Y-15374674D02*
X10796253Y-15384198D01*
X10796253Y-15384198D02*
X10805777Y-15403246D01*
X10805777Y-15403246D02*
X10805777Y-15460388D01*
X10805777Y-15460388D02*
X10796253Y-15479436D01*
X10796253Y-15479436D02*
X10786730Y-15488960D01*
X10786730Y-15488960D02*
X10767682Y-15498484D01*
X10767682Y-15498484D02*
X10739111Y-15498484D01*
X10920063Y-15498484D02*
X10901015Y-15488960D01*
X10901015Y-15488960D02*
X10891492Y-15469912D01*
X10891492Y-15469912D02*
X10891492Y-15298484D01*
X11072444Y-15488960D02*
X11053396Y-15498484D01*
X11053396Y-15498484D02*
X11015301Y-15498484D01*
X11015301Y-15498484D02*
X10996253Y-15488960D01*
X10996253Y-15488960D02*
X10986730Y-15469912D01*
X10986730Y-15469912D02*
X10986730Y-15393722D01*
X10986730Y-15393722D02*
X10996253Y-15374674D01*
X10996253Y-15374674D02*
X11015301Y-15365150D01*
X11015301Y-15365150D02*
X11053396Y-15365150D01*
X11053396Y-15365150D02*
X11072444Y-15374674D01*
X11072444Y-15374674D02*
X11081968Y-15393722D01*
X11081968Y-15393722D02*
X11081968Y-15412769D01*
X11081968Y-15412769D02*
X10986730Y-15431817D01*
X11158158Y-15488960D02*
X11177206Y-15498484D01*
X11177206Y-15498484D02*
X11215301Y-15498484D01*
X11215301Y-15498484D02*
X11234349Y-15488960D01*
X11234349Y-15488960D02*
X11243872Y-15469912D01*
X11243872Y-15469912D02*
X11243872Y-15460388D01*
X11243872Y-15460388D02*
X11234349Y-15441341D01*
X11234349Y-15441341D02*
X11215301Y-15431817D01*
X11215301Y-15431817D02*
X11186730Y-15431817D01*
X11186730Y-15431817D02*
X11167682Y-15422293D01*
X11167682Y-15422293D02*
X11158158Y-15403246D01*
X11158158Y-15403246D02*
X11158158Y-15393722D01*
X11158158Y-15393722D02*
X11167682Y-15374674D01*
X11167682Y-15374674D02*
X11186730Y-15365150D01*
X11186730Y-15365150D02*
X11215301Y-15365150D01*
X11215301Y-15365150D02*
X11234349Y-15374674D01*
X11310539Y-15574674D02*
X11320063Y-15565150D01*
X11320063Y-15565150D02*
X11339111Y-15536579D01*
X11339111Y-15536579D02*
X11348634Y-15517531D01*
X11348634Y-15517531D02*
X11358158Y-15488960D01*
X11358158Y-15488960D02*
X11367682Y-15441341D01*
X11367682Y-15441341D02*
X11367682Y-15403246D01*
X11367682Y-15403246D02*
X11358158Y-15355627D01*
X11358158Y-15355627D02*
X11348634Y-15327055D01*
X11348634Y-15327055D02*
X11339111Y-15308008D01*
X11339111Y-15308008D02*
X11320063Y-15279436D01*
X11320063Y-15279436D02*
X11310539Y-15269912D01*
D10*
X6295000Y-15721000D02*
X6345000Y-15671000D01*
X6295000Y-15621000D01*
X6245000Y-15671000D01*
X6295000Y-15721000D01*
D11*
X6710539Y-15762484D02*
X6596253Y-15762484D01*
X6653396Y-15762484D02*
X6653396Y-15562484D01*
X6653396Y-15562484D02*
X6634348Y-15591055D01*
X6634348Y-15591055D02*
X6615301Y-15610103D01*
X6615301Y-15610103D02*
X6596253Y-15619627D01*
X6796253Y-15743436D02*
X6805777Y-15752960D01*
X6805777Y-15752960D02*
X6796253Y-15762484D01*
X6796253Y-15762484D02*
X6786729Y-15752960D01*
X6786729Y-15752960D02*
X6796253Y-15743436D01*
X6796253Y-15743436D02*
X6796253Y-15762484D01*
X6929586Y-15562484D02*
X6948634Y-15562484D01*
X6948634Y-15562484D02*
X6967682Y-15572008D01*
X6967682Y-15572008D02*
X6977205Y-15581531D01*
X6977205Y-15581531D02*
X6986729Y-15600579D01*
X6986729Y-15600579D02*
X6996253Y-15638674D01*
X6996253Y-15638674D02*
X6996253Y-15686293D01*
X6996253Y-15686293D02*
X6986729Y-15724388D01*
X6986729Y-15724388D02*
X6977205Y-15743436D01*
X6977205Y-15743436D02*
X6967682Y-15752960D01*
X6967682Y-15752960D02*
X6948634Y-15762484D01*
X6948634Y-15762484D02*
X6929586Y-15762484D01*
X6929586Y-15762484D02*
X6910539Y-15752960D01*
X6910539Y-15752960D02*
X6901015Y-15743436D01*
X6901015Y-15743436D02*
X6891491Y-15724388D01*
X6891491Y-15724388D02*
X6881967Y-15686293D01*
X6881967Y-15686293D02*
X6881967Y-15638674D01*
X6881967Y-15638674D02*
X6891491Y-15600579D01*
X6891491Y-15600579D02*
X6901015Y-15581531D01*
X6901015Y-15581531D02*
X6910539Y-15572008D01*
X6910539Y-15572008D02*
X6929586Y-15562484D01*
X7120062Y-15562484D02*
X7139110Y-15562484D01*
X7139110Y-15562484D02*
X7158158Y-15572008D01*
X7158158Y-15572008D02*
X7167682Y-15581531D01*
X7167682Y-15581531D02*
X7177205Y-15600579D01*
X7177205Y-15600579D02*
X7186729Y-15638674D01*
X7186729Y-15638674D02*
X7186729Y-15686293D01*
X7186729Y-15686293D02*
X7177205Y-15724388D01*
X7177205Y-15724388D02*
X7167682Y-15743436D01*
X7167682Y-15743436D02*
X7158158Y-15752960D01*
X7158158Y-15752960D02*
X7139110Y-15762484D01*
X7139110Y-15762484D02*
X7120062Y-15762484D01*
X7120062Y-15762484D02*
X7101015Y-15752960D01*
X7101015Y-15752960D02*
X7091491Y-15743436D01*
X7091491Y-15743436D02*
X7081967Y-15724388D01*
X7081967Y-15724388D02*
X7072443Y-15686293D01*
X7072443Y-15686293D02*
X7072443Y-15638674D01*
X7072443Y-15638674D02*
X7081967Y-15600579D01*
X7081967Y-15600579D02*
X7091491Y-15581531D01*
X7091491Y-15581531D02*
X7101015Y-15572008D01*
X7101015Y-15572008D02*
X7120062Y-15562484D01*
X7310539Y-15562484D02*
X7329586Y-15562484D01*
X7329586Y-15562484D02*
X7348634Y-15572008D01*
X7348634Y-15572008D02*
X7358158Y-15581531D01*
X7358158Y-15581531D02*
X7367682Y-15600579D01*
X7367682Y-15600579D02*
X7377205Y-15638674D01*
X7377205Y-15638674D02*
X7377205Y-15686293D01*
X7377205Y-15686293D02*
X7367682Y-15724388D01*
X7367682Y-15724388D02*
X7358158Y-15743436D01*
X7358158Y-15743436D02*
X7348634Y-15752960D01*
X7348634Y-15752960D02*
X7329586Y-15762484D01*
X7329586Y-15762484D02*
X7310539Y-15762484D01*
X7310539Y-15762484D02*
X7291491Y-15752960D01*
X7291491Y-15752960D02*
X7281967Y-15743436D01*
X7281967Y-15743436D02*
X7272443Y-15724388D01*
X7272443Y-15724388D02*
X7262920Y-15686293D01*
X7262920Y-15686293D02*
X7262920Y-15638674D01*
X7262920Y-15638674D02*
X7272443Y-15600579D01*
X7272443Y-15600579D02*
X7281967Y-15581531D01*
X7281967Y-15581531D02*
X7291491Y-15572008D01*
X7291491Y-15572008D02*
X7310539Y-15562484D01*
X7462920Y-15762484D02*
X7462920Y-15629150D01*
X7462920Y-15648198D02*
X7472443Y-15638674D01*
X7472443Y-15638674D02*
X7491491Y-15629150D01*
X7491491Y-15629150D02*
X7520063Y-15629150D01*
X7520063Y-15629150D02*
X7539110Y-15638674D01*
X7539110Y-15638674D02*
X7548634Y-15657722D01*
X7548634Y-15657722D02*
X7548634Y-15762484D01*
X7548634Y-15657722D02*
X7558158Y-15638674D01*
X7558158Y-15638674D02*
X7577205Y-15629150D01*
X7577205Y-15629150D02*
X7605777Y-15629150D01*
X7605777Y-15629150D02*
X7624824Y-15638674D01*
X7624824Y-15638674D02*
X7634348Y-15657722D01*
X7634348Y-15657722D02*
X7634348Y-15762484D01*
X7729586Y-15762484D02*
X7729586Y-15629150D01*
X7729586Y-15648198D02*
X7739110Y-15638674D01*
X7739110Y-15638674D02*
X7758158Y-15629150D01*
X7758158Y-15629150D02*
X7786729Y-15629150D01*
X7786729Y-15629150D02*
X7805777Y-15638674D01*
X7805777Y-15638674D02*
X7815301Y-15657722D01*
X7815301Y-15657722D02*
X7815301Y-15762484D01*
X7815301Y-15657722D02*
X7824824Y-15638674D01*
X7824824Y-15638674D02*
X7843872Y-15629150D01*
X7843872Y-15629150D02*
X7872443Y-15629150D01*
X7872443Y-15629150D02*
X7891491Y-15638674D01*
X7891491Y-15638674D02*
X7901015Y-15657722D01*
X7901015Y-15657722D02*
X7901015Y-15762484D01*
X8291491Y-15552960D02*
X8120063Y-15810103D01*
X8548634Y-15562484D02*
X8567682Y-15562484D01*
X8567682Y-15562484D02*
X8586729Y-15572008D01*
X8586729Y-15572008D02*
X8596253Y-15581531D01*
X8596253Y-15581531D02*
X8605777Y-15600579D01*
X8605777Y-15600579D02*
X8615301Y-15638674D01*
X8615301Y-15638674D02*
X8615301Y-15686293D01*
X8615301Y-15686293D02*
X8605777Y-15724388D01*
X8605777Y-15724388D02*
X8596253Y-15743436D01*
X8596253Y-15743436D02*
X8586729Y-15752960D01*
X8586729Y-15752960D02*
X8567682Y-15762484D01*
X8567682Y-15762484D02*
X8548634Y-15762484D01*
X8548634Y-15762484D02*
X8529587Y-15752960D01*
X8529587Y-15752960D02*
X8520063Y-15743436D01*
X8520063Y-15743436D02*
X8510539Y-15724388D01*
X8510539Y-15724388D02*
X8501015Y-15686293D01*
X8501015Y-15686293D02*
X8501015Y-15638674D01*
X8501015Y-15638674D02*
X8510539Y-15600579D01*
X8510539Y-15600579D02*
X8520063Y-15581531D01*
X8520063Y-15581531D02*
X8529587Y-15572008D01*
X8529587Y-15572008D02*
X8548634Y-15562484D01*
X8701015Y-15743436D02*
X8710539Y-15752960D01*
X8710539Y-15752960D02*
X8701015Y-15762484D01*
X8701015Y-15762484D02*
X8691491Y-15752960D01*
X8691491Y-15752960D02*
X8701015Y-15743436D01*
X8701015Y-15743436D02*
X8701015Y-15762484D01*
X8834348Y-15562484D02*
X8853396Y-15562484D01*
X8853396Y-15562484D02*
X8872444Y-15572008D01*
X8872444Y-15572008D02*
X8881968Y-15581531D01*
X8881968Y-15581531D02*
X8891491Y-15600579D01*
X8891491Y-15600579D02*
X8901015Y-15638674D01*
X8901015Y-15638674D02*
X8901015Y-15686293D01*
X8901015Y-15686293D02*
X8891491Y-15724388D01*
X8891491Y-15724388D02*
X8881968Y-15743436D01*
X8881968Y-15743436D02*
X8872444Y-15752960D01*
X8872444Y-15752960D02*
X8853396Y-15762484D01*
X8853396Y-15762484D02*
X8834348Y-15762484D01*
X8834348Y-15762484D02*
X8815301Y-15752960D01*
X8815301Y-15752960D02*
X8805777Y-15743436D01*
X8805777Y-15743436D02*
X8796253Y-15724388D01*
X8796253Y-15724388D02*
X8786729Y-15686293D01*
X8786729Y-15686293D02*
X8786729Y-15638674D01*
X8786729Y-15638674D02*
X8796253Y-15600579D01*
X8796253Y-15600579D02*
X8805777Y-15581531D01*
X8805777Y-15581531D02*
X8815301Y-15572008D01*
X8815301Y-15572008D02*
X8834348Y-15562484D01*
X8967682Y-15562484D02*
X9091491Y-15562484D01*
X9091491Y-15562484D02*
X9024825Y-15638674D01*
X9024825Y-15638674D02*
X9053396Y-15638674D01*
X9053396Y-15638674D02*
X9072444Y-15648198D01*
X9072444Y-15648198D02*
X9081968Y-15657722D01*
X9081968Y-15657722D02*
X9091491Y-15676769D01*
X9091491Y-15676769D02*
X9091491Y-15724388D01*
X9091491Y-15724388D02*
X9081968Y-15743436D01*
X9081968Y-15743436D02*
X9072444Y-15752960D01*
X9072444Y-15752960D02*
X9053396Y-15762484D01*
X9053396Y-15762484D02*
X8996253Y-15762484D01*
X8996253Y-15762484D02*
X8977206Y-15752960D01*
X8977206Y-15752960D02*
X8967682Y-15743436D01*
X9186729Y-15762484D02*
X9224825Y-15762484D01*
X9224825Y-15762484D02*
X9243872Y-15752960D01*
X9243872Y-15752960D02*
X9253396Y-15743436D01*
X9253396Y-15743436D02*
X9272444Y-15714865D01*
X9272444Y-15714865D02*
X9281968Y-15676769D01*
X9281968Y-15676769D02*
X9281968Y-15600579D01*
X9281968Y-15600579D02*
X9272444Y-15581531D01*
X9272444Y-15581531D02*
X9262920Y-15572008D01*
X9262920Y-15572008D02*
X9243872Y-15562484D01*
X9243872Y-15562484D02*
X9205777Y-15562484D01*
X9205777Y-15562484D02*
X9186729Y-15572008D01*
X9186729Y-15572008D02*
X9177206Y-15581531D01*
X9177206Y-15581531D02*
X9167682Y-15600579D01*
X9167682Y-15600579D02*
X9167682Y-15648198D01*
X9167682Y-15648198D02*
X9177206Y-15667246D01*
X9177206Y-15667246D02*
X9186729Y-15676769D01*
X9186729Y-15676769D02*
X9205777Y-15686293D01*
X9205777Y-15686293D02*
X9243872Y-15686293D01*
X9243872Y-15686293D02*
X9262920Y-15676769D01*
X9262920Y-15676769D02*
X9272444Y-15667246D01*
X9272444Y-15667246D02*
X9281968Y-15648198D01*
X9453396Y-15629150D02*
X9453396Y-15762484D01*
X9405777Y-15552960D02*
X9358158Y-15695817D01*
X9358158Y-15695817D02*
X9481968Y-15695817D01*
X9548634Y-15562484D02*
X9548634Y-15600579D01*
X9624825Y-15562484D02*
X9624825Y-15600579D01*
X9920063Y-15838674D02*
X9910539Y-15829150D01*
X9910539Y-15829150D02*
X9891491Y-15800579D01*
X9891491Y-15800579D02*
X9881968Y-15781531D01*
X9881968Y-15781531D02*
X9872444Y-15752960D01*
X9872444Y-15752960D02*
X9862920Y-15705341D01*
X9862920Y-15705341D02*
X9862920Y-15667246D01*
X9862920Y-15667246D02*
X9872444Y-15619627D01*
X9872444Y-15619627D02*
X9881968Y-15591055D01*
X9881968Y-15591055D02*
X9891491Y-15572008D01*
X9891491Y-15572008D02*
X9910539Y-15543436D01*
X9910539Y-15543436D02*
X9920063Y-15533912D01*
X10081968Y-15629150D02*
X10081968Y-15762484D01*
X10034349Y-15552960D02*
X9986730Y-15695817D01*
X9986730Y-15695817D02*
X10110539Y-15695817D01*
X10339111Y-15762484D02*
X10339111Y-15562484D01*
X10424825Y-15762484D02*
X10424825Y-15657722D01*
X10424825Y-15657722D02*
X10415301Y-15638674D01*
X10415301Y-15638674D02*
X10396253Y-15629150D01*
X10396253Y-15629150D02*
X10367682Y-15629150D01*
X10367682Y-15629150D02*
X10348634Y-15638674D01*
X10348634Y-15638674D02*
X10339111Y-15648198D01*
X10548634Y-15762484D02*
X10529587Y-15752960D01*
X10529587Y-15752960D02*
X10520063Y-15743436D01*
X10520063Y-15743436D02*
X10510539Y-15724388D01*
X10510539Y-15724388D02*
X10510539Y-15667246D01*
X10510539Y-15667246D02*
X10520063Y-15648198D01*
X10520063Y-15648198D02*
X10529587Y-15638674D01*
X10529587Y-15638674D02*
X10548634Y-15629150D01*
X10548634Y-15629150D02*
X10577206Y-15629150D01*
X10577206Y-15629150D02*
X10596253Y-15638674D01*
X10596253Y-15638674D02*
X10605777Y-15648198D01*
X10605777Y-15648198D02*
X10615301Y-15667246D01*
X10615301Y-15667246D02*
X10615301Y-15724388D01*
X10615301Y-15724388D02*
X10605777Y-15743436D01*
X10605777Y-15743436D02*
X10596253Y-15752960D01*
X10596253Y-15752960D02*
X10577206Y-15762484D01*
X10577206Y-15762484D02*
X10548634Y-15762484D01*
X10729587Y-15762484D02*
X10710539Y-15752960D01*
X10710539Y-15752960D02*
X10701015Y-15733912D01*
X10701015Y-15733912D02*
X10701015Y-15562484D01*
X10881968Y-15752960D02*
X10862920Y-15762484D01*
X10862920Y-15762484D02*
X10824825Y-15762484D01*
X10824825Y-15762484D02*
X10805777Y-15752960D01*
X10805777Y-15752960D02*
X10796253Y-15733912D01*
X10796253Y-15733912D02*
X10796253Y-15657722D01*
X10796253Y-15657722D02*
X10805777Y-15638674D01*
X10805777Y-15638674D02*
X10824825Y-15629150D01*
X10824825Y-15629150D02*
X10862920Y-15629150D01*
X10862920Y-15629150D02*
X10881968Y-15638674D01*
X10881968Y-15638674D02*
X10891492Y-15657722D01*
X10891492Y-15657722D02*
X10891492Y-15676769D01*
X10891492Y-15676769D02*
X10796253Y-15695817D01*
X10967682Y-15752960D02*
X10986730Y-15762484D01*
X10986730Y-15762484D02*
X11024825Y-15762484D01*
X11024825Y-15762484D02*
X11043873Y-15752960D01*
X11043873Y-15752960D02*
X11053396Y-15733912D01*
X11053396Y-15733912D02*
X11053396Y-15724388D01*
X11053396Y-15724388D02*
X11043873Y-15705341D01*
X11043873Y-15705341D02*
X11024825Y-15695817D01*
X11024825Y-15695817D02*
X10996253Y-15695817D01*
X10996253Y-15695817D02*
X10977206Y-15686293D01*
X10977206Y-15686293D02*
X10967682Y-15667246D01*
X10967682Y-15667246D02*
X10967682Y-15657722D01*
X10967682Y-15657722D02*
X10977206Y-15638674D01*
X10977206Y-15638674D02*
X10996253Y-15629150D01*
X10996253Y-15629150D02*
X11024825Y-15629150D01*
X11024825Y-15629150D02*
X11043873Y-15638674D01*
X11120063Y-15838674D02*
X11129587Y-15829150D01*
X11129587Y-15829150D02*
X11148634Y-15800579D01*
X11148634Y-15800579D02*
X11158158Y-15781531D01*
X11158158Y-15781531D02*
X11167682Y-15752960D01*
X11167682Y-15752960D02*
X11177206Y-15705341D01*
X11177206Y-15705341D02*
X11177206Y-15667246D01*
X11177206Y-15667246D02*
X11167682Y-15619627D01*
X11167682Y-15619627D02*
X11158158Y-15591055D01*
X11158158Y-15591055D02*
X11148634Y-15572008D01*
X11148634Y-15572008D02*
X11129587Y-15543436D01*
X11129587Y-15543436D02*
X11120063Y-15533912D01*
D16*
X6220540Y-15872770D02*
X6345000Y-15997230D01*
X6345000Y-15872770D02*
X6220540Y-15997230D01*
X6345000Y-15935000D02*
G75*
G03*
X6345000Y-15935000I-62230J0D01*
G01*
D11*
X6710539Y-16026484D02*
X6596253Y-16026484D01*
X6653396Y-16026484D02*
X6653396Y-15826484D01*
X6653396Y-15826484D02*
X6634348Y-15855055D01*
X6634348Y-15855055D02*
X6615301Y-15874103D01*
X6615301Y-15874103D02*
X6596253Y-15883627D01*
X6796253Y-16007436D02*
X6805777Y-16016960D01*
X6805777Y-16016960D02*
X6796253Y-16026484D01*
X6796253Y-16026484D02*
X6786729Y-16016960D01*
X6786729Y-16016960D02*
X6796253Y-16007436D01*
X6796253Y-16007436D02*
X6796253Y-16026484D01*
X6881967Y-15845531D02*
X6891491Y-15836008D01*
X6891491Y-15836008D02*
X6910539Y-15826484D01*
X6910539Y-15826484D02*
X6958158Y-15826484D01*
X6958158Y-15826484D02*
X6977205Y-15836008D01*
X6977205Y-15836008D02*
X6986729Y-15845531D01*
X6986729Y-15845531D02*
X6996253Y-15864579D01*
X6996253Y-15864579D02*
X6996253Y-15883627D01*
X6996253Y-15883627D02*
X6986729Y-15912198D01*
X6986729Y-15912198D02*
X6872443Y-16026484D01*
X6872443Y-16026484D02*
X6996253Y-16026484D01*
X7167682Y-15893150D02*
X7167682Y-16026484D01*
X7120062Y-15816960D02*
X7072443Y-15959817D01*
X7072443Y-15959817D02*
X7196253Y-15959817D01*
X7367682Y-15826484D02*
X7272443Y-15826484D01*
X7272443Y-15826484D02*
X7262920Y-15921722D01*
X7262920Y-15921722D02*
X7272443Y-15912198D01*
X7272443Y-15912198D02*
X7291491Y-15902674D01*
X7291491Y-15902674D02*
X7339110Y-15902674D01*
X7339110Y-15902674D02*
X7358158Y-15912198D01*
X7358158Y-15912198D02*
X7367682Y-15921722D01*
X7367682Y-15921722D02*
X7377205Y-15940769D01*
X7377205Y-15940769D02*
X7377205Y-15988388D01*
X7377205Y-15988388D02*
X7367682Y-16007436D01*
X7367682Y-16007436D02*
X7358158Y-16016960D01*
X7358158Y-16016960D02*
X7339110Y-16026484D01*
X7339110Y-16026484D02*
X7291491Y-16026484D01*
X7291491Y-16026484D02*
X7272443Y-16016960D01*
X7272443Y-16016960D02*
X7262920Y-16007436D01*
X7462920Y-16026484D02*
X7462920Y-15893150D01*
X7462920Y-15912198D02*
X7472443Y-15902674D01*
X7472443Y-15902674D02*
X7491491Y-15893150D01*
X7491491Y-15893150D02*
X7520063Y-15893150D01*
X7520063Y-15893150D02*
X7539110Y-15902674D01*
X7539110Y-15902674D02*
X7548634Y-15921722D01*
X7548634Y-15921722D02*
X7548634Y-16026484D01*
X7548634Y-15921722D02*
X7558158Y-15902674D01*
X7558158Y-15902674D02*
X7577205Y-15893150D01*
X7577205Y-15893150D02*
X7605777Y-15893150D01*
X7605777Y-15893150D02*
X7624824Y-15902674D01*
X7624824Y-15902674D02*
X7634348Y-15921722D01*
X7634348Y-15921722D02*
X7634348Y-16026484D01*
X7729586Y-16026484D02*
X7729586Y-15893150D01*
X7729586Y-15912198D02*
X7739110Y-15902674D01*
X7739110Y-15902674D02*
X7758158Y-15893150D01*
X7758158Y-15893150D02*
X7786729Y-15893150D01*
X7786729Y-15893150D02*
X7805777Y-15902674D01*
X7805777Y-15902674D02*
X7815301Y-15921722D01*
X7815301Y-15921722D02*
X7815301Y-16026484D01*
X7815301Y-15921722D02*
X7824824Y-15902674D01*
X7824824Y-15902674D02*
X7843872Y-15893150D01*
X7843872Y-15893150D02*
X7872443Y-15893150D01*
X7872443Y-15893150D02*
X7891491Y-15902674D01*
X7891491Y-15902674D02*
X7901015Y-15921722D01*
X7901015Y-15921722D02*
X7901015Y-16026484D01*
X8291491Y-15816960D02*
X8120063Y-16074103D01*
X8548634Y-15826484D02*
X8567682Y-15826484D01*
X8567682Y-15826484D02*
X8586729Y-15836008D01*
X8586729Y-15836008D02*
X8596253Y-15845531D01*
X8596253Y-15845531D02*
X8605777Y-15864579D01*
X8605777Y-15864579D02*
X8615301Y-15902674D01*
X8615301Y-15902674D02*
X8615301Y-15950293D01*
X8615301Y-15950293D02*
X8605777Y-15988388D01*
X8605777Y-15988388D02*
X8596253Y-16007436D01*
X8596253Y-16007436D02*
X8586729Y-16016960D01*
X8586729Y-16016960D02*
X8567682Y-16026484D01*
X8567682Y-16026484D02*
X8548634Y-16026484D01*
X8548634Y-16026484D02*
X8529587Y-16016960D01*
X8529587Y-16016960D02*
X8520063Y-16007436D01*
X8520063Y-16007436D02*
X8510539Y-15988388D01*
X8510539Y-15988388D02*
X8501015Y-15950293D01*
X8501015Y-15950293D02*
X8501015Y-15902674D01*
X8501015Y-15902674D02*
X8510539Y-15864579D01*
X8510539Y-15864579D02*
X8520063Y-15845531D01*
X8520063Y-15845531D02*
X8529587Y-15836008D01*
X8529587Y-15836008D02*
X8548634Y-15826484D01*
X8701015Y-16007436D02*
X8710539Y-16016960D01*
X8710539Y-16016960D02*
X8701015Y-16026484D01*
X8701015Y-16026484D02*
X8691491Y-16016960D01*
X8691491Y-16016960D02*
X8701015Y-16007436D01*
X8701015Y-16007436D02*
X8701015Y-16026484D01*
X8834348Y-15826484D02*
X8853396Y-15826484D01*
X8853396Y-15826484D02*
X8872444Y-15836008D01*
X8872444Y-15836008D02*
X8881968Y-15845531D01*
X8881968Y-15845531D02*
X8891491Y-15864579D01*
X8891491Y-15864579D02*
X8901015Y-15902674D01*
X8901015Y-15902674D02*
X8901015Y-15950293D01*
X8901015Y-15950293D02*
X8891491Y-15988388D01*
X8891491Y-15988388D02*
X8881968Y-16007436D01*
X8881968Y-16007436D02*
X8872444Y-16016960D01*
X8872444Y-16016960D02*
X8853396Y-16026484D01*
X8853396Y-16026484D02*
X8834348Y-16026484D01*
X8834348Y-16026484D02*
X8815301Y-16016960D01*
X8815301Y-16016960D02*
X8805777Y-16007436D01*
X8805777Y-16007436D02*
X8796253Y-15988388D01*
X8796253Y-15988388D02*
X8786729Y-15950293D01*
X8786729Y-15950293D02*
X8786729Y-15902674D01*
X8786729Y-15902674D02*
X8796253Y-15864579D01*
X8796253Y-15864579D02*
X8805777Y-15845531D01*
X8805777Y-15845531D02*
X8815301Y-15836008D01*
X8815301Y-15836008D02*
X8834348Y-15826484D01*
X9072444Y-15893150D02*
X9072444Y-16026484D01*
X9024825Y-15816960D02*
X8977206Y-15959817D01*
X8977206Y-15959817D02*
X9101015Y-15959817D01*
X9186729Y-16026484D02*
X9224825Y-16026484D01*
X9224825Y-16026484D02*
X9243872Y-16016960D01*
X9243872Y-16016960D02*
X9253396Y-16007436D01*
X9253396Y-16007436D02*
X9272444Y-15978865D01*
X9272444Y-15978865D02*
X9281968Y-15940769D01*
X9281968Y-15940769D02*
X9281968Y-15864579D01*
X9281968Y-15864579D02*
X9272444Y-15845531D01*
X9272444Y-15845531D02*
X9262920Y-15836008D01*
X9262920Y-15836008D02*
X9243872Y-15826484D01*
X9243872Y-15826484D02*
X9205777Y-15826484D01*
X9205777Y-15826484D02*
X9186729Y-15836008D01*
X9186729Y-15836008D02*
X9177206Y-15845531D01*
X9177206Y-15845531D02*
X9167682Y-15864579D01*
X9167682Y-15864579D02*
X9167682Y-15912198D01*
X9167682Y-15912198D02*
X9177206Y-15931246D01*
X9177206Y-15931246D02*
X9186729Y-15940769D01*
X9186729Y-15940769D02*
X9205777Y-15950293D01*
X9205777Y-15950293D02*
X9243872Y-15950293D01*
X9243872Y-15950293D02*
X9262920Y-15940769D01*
X9262920Y-15940769D02*
X9272444Y-15931246D01*
X9272444Y-15931246D02*
X9281968Y-15912198D01*
X9405777Y-15826484D02*
X9424825Y-15826484D01*
X9424825Y-15826484D02*
X9443872Y-15836008D01*
X9443872Y-15836008D02*
X9453396Y-15845531D01*
X9453396Y-15845531D02*
X9462920Y-15864579D01*
X9462920Y-15864579D02*
X9472444Y-15902674D01*
X9472444Y-15902674D02*
X9472444Y-15950293D01*
X9472444Y-15950293D02*
X9462920Y-15988388D01*
X9462920Y-15988388D02*
X9453396Y-16007436D01*
X9453396Y-16007436D02*
X9443872Y-16016960D01*
X9443872Y-16016960D02*
X9424825Y-16026484D01*
X9424825Y-16026484D02*
X9405777Y-16026484D01*
X9405777Y-16026484D02*
X9386729Y-16016960D01*
X9386729Y-16016960D02*
X9377206Y-16007436D01*
X9377206Y-16007436D02*
X9367682Y-15988388D01*
X9367682Y-15988388D02*
X9358158Y-15950293D01*
X9358158Y-15950293D02*
X9358158Y-15902674D01*
X9358158Y-15902674D02*
X9367682Y-15864579D01*
X9367682Y-15864579D02*
X9377206Y-15845531D01*
X9377206Y-15845531D02*
X9386729Y-15836008D01*
X9386729Y-15836008D02*
X9405777Y-15826484D01*
X9548634Y-15826484D02*
X9548634Y-15864579D01*
X9624825Y-15826484D02*
X9624825Y-15864579D01*
X9920063Y-16102674D02*
X9910539Y-16093150D01*
X9910539Y-16093150D02*
X9891491Y-16064579D01*
X9891491Y-16064579D02*
X9881968Y-16045531D01*
X9881968Y-16045531D02*
X9872444Y-16016960D01*
X9872444Y-16016960D02*
X9862920Y-15969341D01*
X9862920Y-15969341D02*
X9862920Y-15931246D01*
X9862920Y-15931246D02*
X9872444Y-15883627D01*
X9872444Y-15883627D02*
X9881968Y-15855055D01*
X9881968Y-15855055D02*
X9891491Y-15836008D01*
X9891491Y-15836008D02*
X9910539Y-15807436D01*
X9910539Y-15807436D02*
X9920063Y-15797912D01*
X10101015Y-16026484D02*
X9986730Y-16026484D01*
X10043872Y-16026484D02*
X10043872Y-15826484D01*
X10043872Y-15826484D02*
X10024825Y-15855055D01*
X10024825Y-15855055D02*
X10005777Y-15874103D01*
X10005777Y-15874103D02*
X9986730Y-15883627D01*
X10272444Y-15893150D02*
X10272444Y-16026484D01*
X10224825Y-15816960D02*
X10177206Y-15959817D01*
X10177206Y-15959817D02*
X10301015Y-15959817D01*
X10529587Y-16026484D02*
X10529587Y-15826484D01*
X10615301Y-16026484D02*
X10615301Y-15921722D01*
X10615301Y-15921722D02*
X10605777Y-15902674D01*
X10605777Y-15902674D02*
X10586730Y-15893150D01*
X10586730Y-15893150D02*
X10558158Y-15893150D01*
X10558158Y-15893150D02*
X10539111Y-15902674D01*
X10539111Y-15902674D02*
X10529587Y-15912198D01*
X10739111Y-16026484D02*
X10720063Y-16016960D01*
X10720063Y-16016960D02*
X10710539Y-16007436D01*
X10710539Y-16007436D02*
X10701015Y-15988388D01*
X10701015Y-15988388D02*
X10701015Y-15931246D01*
X10701015Y-15931246D02*
X10710539Y-15912198D01*
X10710539Y-15912198D02*
X10720063Y-15902674D01*
X10720063Y-15902674D02*
X10739111Y-15893150D01*
X10739111Y-15893150D02*
X10767682Y-15893150D01*
X10767682Y-15893150D02*
X10786730Y-15902674D01*
X10786730Y-15902674D02*
X10796253Y-15912198D01*
X10796253Y-15912198D02*
X10805777Y-15931246D01*
X10805777Y-15931246D02*
X10805777Y-15988388D01*
X10805777Y-15988388D02*
X10796253Y-16007436D01*
X10796253Y-16007436D02*
X10786730Y-16016960D01*
X10786730Y-16016960D02*
X10767682Y-16026484D01*
X10767682Y-16026484D02*
X10739111Y-16026484D01*
X10920063Y-16026484D02*
X10901015Y-16016960D01*
X10901015Y-16016960D02*
X10891492Y-15997912D01*
X10891492Y-15997912D02*
X10891492Y-15826484D01*
X11072444Y-16016960D02*
X11053396Y-16026484D01*
X11053396Y-16026484D02*
X11015301Y-16026484D01*
X11015301Y-16026484D02*
X10996253Y-16016960D01*
X10996253Y-16016960D02*
X10986730Y-15997912D01*
X10986730Y-15997912D02*
X10986730Y-15921722D01*
X10986730Y-15921722D02*
X10996253Y-15902674D01*
X10996253Y-15902674D02*
X11015301Y-15893150D01*
X11015301Y-15893150D02*
X11053396Y-15893150D01*
X11053396Y-15893150D02*
X11072444Y-15902674D01*
X11072444Y-15902674D02*
X11081968Y-15921722D01*
X11081968Y-15921722D02*
X11081968Y-15940769D01*
X11081968Y-15940769D02*
X10986730Y-15959817D01*
X11158158Y-16016960D02*
X11177206Y-16026484D01*
X11177206Y-16026484D02*
X11215301Y-16026484D01*
X11215301Y-16026484D02*
X11234349Y-16016960D01*
X11234349Y-16016960D02*
X11243872Y-15997912D01*
X11243872Y-15997912D02*
X11243872Y-15988388D01*
X11243872Y-15988388D02*
X11234349Y-15969341D01*
X11234349Y-15969341D02*
X11215301Y-15959817D01*
X11215301Y-15959817D02*
X11186730Y-15959817D01*
X11186730Y-15959817D02*
X11167682Y-15950293D01*
X11167682Y-15950293D02*
X11158158Y-15931246D01*
X11158158Y-15931246D02*
X11158158Y-15921722D01*
X11158158Y-15921722D02*
X11167682Y-15902674D01*
X11167682Y-15902674D02*
X11186730Y-15893150D01*
X11186730Y-15893150D02*
X11215301Y-15893150D01*
X11215301Y-15893150D02*
X11234349Y-15902674D01*
X11310539Y-16102674D02*
X11320063Y-16093150D01*
X11320063Y-16093150D02*
X11339111Y-16064579D01*
X11339111Y-16064579D02*
X11348634Y-16045531D01*
X11348634Y-16045531D02*
X11358158Y-16016960D01*
X11358158Y-16016960D02*
X11367682Y-15969341D01*
X11367682Y-15969341D02*
X11367682Y-15931246D01*
X11367682Y-15931246D02*
X11358158Y-15883627D01*
X11358158Y-15883627D02*
X11348634Y-15855055D01*
X11348634Y-15855055D02*
X11339111Y-15836008D01*
X11339111Y-15836008D02*
X11320063Y-15807436D01*
X11320063Y-15807436D02*
X11310539Y-15797912D01*
D17*
X6216000Y-16134500D02*
X6345000Y-16263500D01*
X6345000Y-16134500D02*
X6216000Y-16263500D01*
X6280500Y-16134500D02*
X6280500Y-16263500D01*
X6216000Y-16199000D02*
X6345000Y-16199000D01*
D11*
X6710539Y-16290484D02*
X6596253Y-16290484D01*
X6653396Y-16290484D02*
X6653396Y-16090484D01*
X6653396Y-16090484D02*
X6634348Y-16119055D01*
X6634348Y-16119055D02*
X6615301Y-16138103D01*
X6615301Y-16138103D02*
X6596253Y-16147627D01*
X6796253Y-16271436D02*
X6805777Y-16280960D01*
X6805777Y-16280960D02*
X6796253Y-16290484D01*
X6796253Y-16290484D02*
X6786729Y-16280960D01*
X6786729Y-16280960D02*
X6796253Y-16271436D01*
X6796253Y-16271436D02*
X6796253Y-16290484D01*
X6881967Y-16109531D02*
X6891491Y-16100008D01*
X6891491Y-16100008D02*
X6910539Y-16090484D01*
X6910539Y-16090484D02*
X6958158Y-16090484D01*
X6958158Y-16090484D02*
X6977205Y-16100008D01*
X6977205Y-16100008D02*
X6986729Y-16109531D01*
X6986729Y-16109531D02*
X6996253Y-16128579D01*
X6996253Y-16128579D02*
X6996253Y-16147627D01*
X6996253Y-16147627D02*
X6986729Y-16176198D01*
X6986729Y-16176198D02*
X6872443Y-16290484D01*
X6872443Y-16290484D02*
X6996253Y-16290484D01*
X7091491Y-16290484D02*
X7129586Y-16290484D01*
X7129586Y-16290484D02*
X7148634Y-16280960D01*
X7148634Y-16280960D02*
X7158158Y-16271436D01*
X7158158Y-16271436D02*
X7177205Y-16242865D01*
X7177205Y-16242865D02*
X7186729Y-16204769D01*
X7186729Y-16204769D02*
X7186729Y-16128579D01*
X7186729Y-16128579D02*
X7177205Y-16109531D01*
X7177205Y-16109531D02*
X7167682Y-16100008D01*
X7167682Y-16100008D02*
X7148634Y-16090484D01*
X7148634Y-16090484D02*
X7110539Y-16090484D01*
X7110539Y-16090484D02*
X7091491Y-16100008D01*
X7091491Y-16100008D02*
X7081967Y-16109531D01*
X7081967Y-16109531D02*
X7072443Y-16128579D01*
X7072443Y-16128579D02*
X7072443Y-16176198D01*
X7072443Y-16176198D02*
X7081967Y-16195246D01*
X7081967Y-16195246D02*
X7091491Y-16204769D01*
X7091491Y-16204769D02*
X7110539Y-16214293D01*
X7110539Y-16214293D02*
X7148634Y-16214293D01*
X7148634Y-16214293D02*
X7167682Y-16204769D01*
X7167682Y-16204769D02*
X7177205Y-16195246D01*
X7177205Y-16195246D02*
X7186729Y-16176198D01*
X7310539Y-16090484D02*
X7329586Y-16090484D01*
X7329586Y-16090484D02*
X7348634Y-16100008D01*
X7348634Y-16100008D02*
X7358158Y-16109531D01*
X7358158Y-16109531D02*
X7367682Y-16128579D01*
X7367682Y-16128579D02*
X7377205Y-16166674D01*
X7377205Y-16166674D02*
X7377205Y-16214293D01*
X7377205Y-16214293D02*
X7367682Y-16252388D01*
X7367682Y-16252388D02*
X7358158Y-16271436D01*
X7358158Y-16271436D02*
X7348634Y-16280960D01*
X7348634Y-16280960D02*
X7329586Y-16290484D01*
X7329586Y-16290484D02*
X7310539Y-16290484D01*
X7310539Y-16290484D02*
X7291491Y-16280960D01*
X7291491Y-16280960D02*
X7281967Y-16271436D01*
X7281967Y-16271436D02*
X7272443Y-16252388D01*
X7272443Y-16252388D02*
X7262920Y-16214293D01*
X7262920Y-16214293D02*
X7262920Y-16166674D01*
X7262920Y-16166674D02*
X7272443Y-16128579D01*
X7272443Y-16128579D02*
X7281967Y-16109531D01*
X7281967Y-16109531D02*
X7291491Y-16100008D01*
X7291491Y-16100008D02*
X7310539Y-16090484D01*
X7462920Y-16290484D02*
X7462920Y-16157150D01*
X7462920Y-16176198D02*
X7472443Y-16166674D01*
X7472443Y-16166674D02*
X7491491Y-16157150D01*
X7491491Y-16157150D02*
X7520063Y-16157150D01*
X7520063Y-16157150D02*
X7539110Y-16166674D01*
X7539110Y-16166674D02*
X7548634Y-16185722D01*
X7548634Y-16185722D02*
X7548634Y-16290484D01*
X7548634Y-16185722D02*
X7558158Y-16166674D01*
X7558158Y-16166674D02*
X7577205Y-16157150D01*
X7577205Y-16157150D02*
X7605777Y-16157150D01*
X7605777Y-16157150D02*
X7624824Y-16166674D01*
X7624824Y-16166674D02*
X7634348Y-16185722D01*
X7634348Y-16185722D02*
X7634348Y-16290484D01*
X7729586Y-16290484D02*
X7729586Y-16157150D01*
X7729586Y-16176198D02*
X7739110Y-16166674D01*
X7739110Y-16166674D02*
X7758158Y-16157150D01*
X7758158Y-16157150D02*
X7786729Y-16157150D01*
X7786729Y-16157150D02*
X7805777Y-16166674D01*
X7805777Y-16166674D02*
X7815301Y-16185722D01*
X7815301Y-16185722D02*
X7815301Y-16290484D01*
X7815301Y-16185722D02*
X7824824Y-16166674D01*
X7824824Y-16166674D02*
X7843872Y-16157150D01*
X7843872Y-16157150D02*
X7872443Y-16157150D01*
X7872443Y-16157150D02*
X7891491Y-16166674D01*
X7891491Y-16166674D02*
X7901015Y-16185722D01*
X7901015Y-16185722D02*
X7901015Y-16290484D01*
X8291491Y-16080960D02*
X8120063Y-16338103D01*
X8548634Y-16090484D02*
X8567682Y-16090484D01*
X8567682Y-16090484D02*
X8586729Y-16100008D01*
X8586729Y-16100008D02*
X8596253Y-16109531D01*
X8596253Y-16109531D02*
X8605777Y-16128579D01*
X8605777Y-16128579D02*
X8615301Y-16166674D01*
X8615301Y-16166674D02*
X8615301Y-16214293D01*
X8615301Y-16214293D02*
X8605777Y-16252388D01*
X8605777Y-16252388D02*
X8596253Y-16271436D01*
X8596253Y-16271436D02*
X8586729Y-16280960D01*
X8586729Y-16280960D02*
X8567682Y-16290484D01*
X8567682Y-16290484D02*
X8548634Y-16290484D01*
X8548634Y-16290484D02*
X8529587Y-16280960D01*
X8529587Y-16280960D02*
X8520063Y-16271436D01*
X8520063Y-16271436D02*
X8510539Y-16252388D01*
X8510539Y-16252388D02*
X8501015Y-16214293D01*
X8501015Y-16214293D02*
X8501015Y-16166674D01*
X8501015Y-16166674D02*
X8510539Y-16128579D01*
X8510539Y-16128579D02*
X8520063Y-16109531D01*
X8520063Y-16109531D02*
X8529587Y-16100008D01*
X8529587Y-16100008D02*
X8548634Y-16090484D01*
X8701015Y-16271436D02*
X8710539Y-16280960D01*
X8710539Y-16280960D02*
X8701015Y-16290484D01*
X8701015Y-16290484D02*
X8691491Y-16280960D01*
X8691491Y-16280960D02*
X8701015Y-16271436D01*
X8701015Y-16271436D02*
X8701015Y-16290484D01*
X8834348Y-16090484D02*
X8853396Y-16090484D01*
X8853396Y-16090484D02*
X8872444Y-16100008D01*
X8872444Y-16100008D02*
X8881968Y-16109531D01*
X8881968Y-16109531D02*
X8891491Y-16128579D01*
X8891491Y-16128579D02*
X8901015Y-16166674D01*
X8901015Y-16166674D02*
X8901015Y-16214293D01*
X8901015Y-16214293D02*
X8891491Y-16252388D01*
X8891491Y-16252388D02*
X8881968Y-16271436D01*
X8881968Y-16271436D02*
X8872444Y-16280960D01*
X8872444Y-16280960D02*
X8853396Y-16290484D01*
X8853396Y-16290484D02*
X8834348Y-16290484D01*
X8834348Y-16290484D02*
X8815301Y-16280960D01*
X8815301Y-16280960D02*
X8805777Y-16271436D01*
X8805777Y-16271436D02*
X8796253Y-16252388D01*
X8796253Y-16252388D02*
X8786729Y-16214293D01*
X8786729Y-16214293D02*
X8786729Y-16166674D01*
X8786729Y-16166674D02*
X8796253Y-16128579D01*
X8796253Y-16128579D02*
X8805777Y-16109531D01*
X8805777Y-16109531D02*
X8815301Y-16100008D01*
X8815301Y-16100008D02*
X8834348Y-16090484D01*
X9081968Y-16090484D02*
X8986729Y-16090484D01*
X8986729Y-16090484D02*
X8977206Y-16185722D01*
X8977206Y-16185722D02*
X8986729Y-16176198D01*
X8986729Y-16176198D02*
X9005777Y-16166674D01*
X9005777Y-16166674D02*
X9053396Y-16166674D01*
X9053396Y-16166674D02*
X9072444Y-16176198D01*
X9072444Y-16176198D02*
X9081968Y-16185722D01*
X9081968Y-16185722D02*
X9091491Y-16204769D01*
X9091491Y-16204769D02*
X9091491Y-16252388D01*
X9091491Y-16252388D02*
X9081968Y-16271436D01*
X9081968Y-16271436D02*
X9072444Y-16280960D01*
X9072444Y-16280960D02*
X9053396Y-16290484D01*
X9053396Y-16290484D02*
X9005777Y-16290484D01*
X9005777Y-16290484D02*
X8986729Y-16280960D01*
X8986729Y-16280960D02*
X8977206Y-16271436D01*
X9215301Y-16090484D02*
X9234349Y-16090484D01*
X9234349Y-16090484D02*
X9253396Y-16100008D01*
X9253396Y-16100008D02*
X9262920Y-16109531D01*
X9262920Y-16109531D02*
X9272444Y-16128579D01*
X9272444Y-16128579D02*
X9281968Y-16166674D01*
X9281968Y-16166674D02*
X9281968Y-16214293D01*
X9281968Y-16214293D02*
X9272444Y-16252388D01*
X9272444Y-16252388D02*
X9262920Y-16271436D01*
X9262920Y-16271436D02*
X9253396Y-16280960D01*
X9253396Y-16280960D02*
X9234349Y-16290484D01*
X9234349Y-16290484D02*
X9215301Y-16290484D01*
X9215301Y-16290484D02*
X9196253Y-16280960D01*
X9196253Y-16280960D02*
X9186729Y-16271436D01*
X9186729Y-16271436D02*
X9177206Y-16252388D01*
X9177206Y-16252388D02*
X9167682Y-16214293D01*
X9167682Y-16214293D02*
X9167682Y-16166674D01*
X9167682Y-16166674D02*
X9177206Y-16128579D01*
X9177206Y-16128579D02*
X9186729Y-16109531D01*
X9186729Y-16109531D02*
X9196253Y-16100008D01*
X9196253Y-16100008D02*
X9215301Y-16090484D01*
X9396253Y-16176198D02*
X9377206Y-16166674D01*
X9377206Y-16166674D02*
X9367682Y-16157150D01*
X9367682Y-16157150D02*
X9358158Y-16138103D01*
X9358158Y-16138103D02*
X9358158Y-16128579D01*
X9358158Y-16128579D02*
X9367682Y-16109531D01*
X9367682Y-16109531D02*
X9377206Y-16100008D01*
X9377206Y-16100008D02*
X9396253Y-16090484D01*
X9396253Y-16090484D02*
X9434349Y-16090484D01*
X9434349Y-16090484D02*
X9453396Y-16100008D01*
X9453396Y-16100008D02*
X9462920Y-16109531D01*
X9462920Y-16109531D02*
X9472444Y-16128579D01*
X9472444Y-16128579D02*
X9472444Y-16138103D01*
X9472444Y-16138103D02*
X9462920Y-16157150D01*
X9462920Y-16157150D02*
X9453396Y-16166674D01*
X9453396Y-16166674D02*
X9434349Y-16176198D01*
X9434349Y-16176198D02*
X9396253Y-16176198D01*
X9396253Y-16176198D02*
X9377206Y-16185722D01*
X9377206Y-16185722D02*
X9367682Y-16195246D01*
X9367682Y-16195246D02*
X9358158Y-16214293D01*
X9358158Y-16214293D02*
X9358158Y-16252388D01*
X9358158Y-16252388D02*
X9367682Y-16271436D01*
X9367682Y-16271436D02*
X9377206Y-16280960D01*
X9377206Y-16280960D02*
X9396253Y-16290484D01*
X9396253Y-16290484D02*
X9434349Y-16290484D01*
X9434349Y-16290484D02*
X9453396Y-16280960D01*
X9453396Y-16280960D02*
X9462920Y-16271436D01*
X9462920Y-16271436D02*
X9472444Y-16252388D01*
X9472444Y-16252388D02*
X9472444Y-16214293D01*
X9472444Y-16214293D02*
X9462920Y-16195246D01*
X9462920Y-16195246D02*
X9453396Y-16185722D01*
X9453396Y-16185722D02*
X9434349Y-16176198D01*
X9548634Y-16090484D02*
X9548634Y-16128579D01*
X9624825Y-16090484D02*
X9624825Y-16128579D01*
X9920063Y-16366674D02*
X9910539Y-16357150D01*
X9910539Y-16357150D02*
X9891491Y-16328579D01*
X9891491Y-16328579D02*
X9881968Y-16309531D01*
X9881968Y-16309531D02*
X9872444Y-16280960D01*
X9872444Y-16280960D02*
X9862920Y-16233341D01*
X9862920Y-16233341D02*
X9862920Y-16195246D01*
X9862920Y-16195246D02*
X9872444Y-16147627D01*
X9872444Y-16147627D02*
X9881968Y-16119055D01*
X9881968Y-16119055D02*
X9891491Y-16100008D01*
X9891491Y-16100008D02*
X9910539Y-16071436D01*
X9910539Y-16071436D02*
X9920063Y-16061912D01*
X10101015Y-16290484D02*
X9986730Y-16290484D01*
X10043872Y-16290484D02*
X10043872Y-16090484D01*
X10043872Y-16090484D02*
X10024825Y-16119055D01*
X10024825Y-16119055D02*
X10005777Y-16138103D01*
X10005777Y-16138103D02*
X9986730Y-16147627D01*
X10339111Y-16290484D02*
X10339111Y-16090484D01*
X10424825Y-16290484D02*
X10424825Y-16185722D01*
X10424825Y-16185722D02*
X10415301Y-16166674D01*
X10415301Y-16166674D02*
X10396253Y-16157150D01*
X10396253Y-16157150D02*
X10367682Y-16157150D01*
X10367682Y-16157150D02*
X10348634Y-16166674D01*
X10348634Y-16166674D02*
X10339111Y-16176198D01*
X10548634Y-16290484D02*
X10529587Y-16280960D01*
X10529587Y-16280960D02*
X10520063Y-16271436D01*
X10520063Y-16271436D02*
X10510539Y-16252388D01*
X10510539Y-16252388D02*
X10510539Y-16195246D01*
X10510539Y-16195246D02*
X10520063Y-16176198D01*
X10520063Y-16176198D02*
X10529587Y-16166674D01*
X10529587Y-16166674D02*
X10548634Y-16157150D01*
X10548634Y-16157150D02*
X10577206Y-16157150D01*
X10577206Y-16157150D02*
X10596253Y-16166674D01*
X10596253Y-16166674D02*
X10605777Y-16176198D01*
X10605777Y-16176198D02*
X10615301Y-16195246D01*
X10615301Y-16195246D02*
X10615301Y-16252388D01*
X10615301Y-16252388D02*
X10605777Y-16271436D01*
X10605777Y-16271436D02*
X10596253Y-16280960D01*
X10596253Y-16280960D02*
X10577206Y-16290484D01*
X10577206Y-16290484D02*
X10548634Y-16290484D01*
X10729587Y-16290484D02*
X10710539Y-16280960D01*
X10710539Y-16280960D02*
X10701015Y-16261912D01*
X10701015Y-16261912D02*
X10701015Y-16090484D01*
X10881968Y-16280960D02*
X10862920Y-16290484D01*
X10862920Y-16290484D02*
X10824825Y-16290484D01*
X10824825Y-16290484D02*
X10805777Y-16280960D01*
X10805777Y-16280960D02*
X10796253Y-16261912D01*
X10796253Y-16261912D02*
X10796253Y-16185722D01*
X10796253Y-16185722D02*
X10805777Y-16166674D01*
X10805777Y-16166674D02*
X10824825Y-16157150D01*
X10824825Y-16157150D02*
X10862920Y-16157150D01*
X10862920Y-16157150D02*
X10881968Y-16166674D01*
X10881968Y-16166674D02*
X10891492Y-16185722D01*
X10891492Y-16185722D02*
X10891492Y-16204769D01*
X10891492Y-16204769D02*
X10796253Y-16223817D01*
X10958158Y-16366674D02*
X10967682Y-16357150D01*
X10967682Y-16357150D02*
X10986730Y-16328579D01*
X10986730Y-16328579D02*
X10996253Y-16309531D01*
X10996253Y-16309531D02*
X11005777Y-16280960D01*
X11005777Y-16280960D02*
X11015301Y-16233341D01*
X11015301Y-16233341D02*
X11015301Y-16195246D01*
X11015301Y-16195246D02*
X11005777Y-16147627D01*
X11005777Y-16147627D02*
X10996253Y-16119055D01*
X10996253Y-16119055D02*
X10986730Y-16100008D01*
X10986730Y-16100008D02*
X10967682Y-16071436D01*
X10967682Y-16071436D02*
X10958158Y-16061912D01*
D18*
X6213000Y-16397000D02*
X6345000Y-16529000D01*
X6345000Y-16397000D02*
X6213000Y-16529000D01*
X6325669Y-16509669D02*
X6325669Y-16416330D01*
X6232330Y-16416330D01*
X6232330Y-16509669D01*
X6325669Y-16509669D01*
D11*
X6710539Y-16554484D02*
X6596253Y-16554484D01*
X6653396Y-16554484D02*
X6653396Y-16354484D01*
X6653396Y-16354484D02*
X6634348Y-16383055D01*
X6634348Y-16383055D02*
X6615301Y-16402103D01*
X6615301Y-16402103D02*
X6596253Y-16411627D01*
X6796253Y-16535436D02*
X6805777Y-16544960D01*
X6805777Y-16544960D02*
X6796253Y-16554484D01*
X6796253Y-16554484D02*
X6786729Y-16544960D01*
X6786729Y-16544960D02*
X6796253Y-16535436D01*
X6796253Y-16535436D02*
X6796253Y-16554484D01*
X6872443Y-16354484D02*
X6996253Y-16354484D01*
X6996253Y-16354484D02*
X6929586Y-16430674D01*
X6929586Y-16430674D02*
X6958158Y-16430674D01*
X6958158Y-16430674D02*
X6977205Y-16440198D01*
X6977205Y-16440198D02*
X6986729Y-16449722D01*
X6986729Y-16449722D02*
X6996253Y-16468769D01*
X6996253Y-16468769D02*
X6996253Y-16516388D01*
X6996253Y-16516388D02*
X6986729Y-16535436D01*
X6986729Y-16535436D02*
X6977205Y-16544960D01*
X6977205Y-16544960D02*
X6958158Y-16554484D01*
X6958158Y-16554484D02*
X6901015Y-16554484D01*
X6901015Y-16554484D02*
X6881967Y-16544960D01*
X6881967Y-16544960D02*
X6872443Y-16535436D01*
X7072443Y-16373531D02*
X7081967Y-16364008D01*
X7081967Y-16364008D02*
X7101015Y-16354484D01*
X7101015Y-16354484D02*
X7148634Y-16354484D01*
X7148634Y-16354484D02*
X7167682Y-16364008D01*
X7167682Y-16364008D02*
X7177205Y-16373531D01*
X7177205Y-16373531D02*
X7186729Y-16392579D01*
X7186729Y-16392579D02*
X7186729Y-16411627D01*
X7186729Y-16411627D02*
X7177205Y-16440198D01*
X7177205Y-16440198D02*
X7062920Y-16554484D01*
X7062920Y-16554484D02*
X7186729Y-16554484D01*
X7310539Y-16354484D02*
X7329586Y-16354484D01*
X7329586Y-16354484D02*
X7348634Y-16364008D01*
X7348634Y-16364008D02*
X7358158Y-16373531D01*
X7358158Y-16373531D02*
X7367682Y-16392579D01*
X7367682Y-16392579D02*
X7377205Y-16430674D01*
X7377205Y-16430674D02*
X7377205Y-16478293D01*
X7377205Y-16478293D02*
X7367682Y-16516388D01*
X7367682Y-16516388D02*
X7358158Y-16535436D01*
X7358158Y-16535436D02*
X7348634Y-16544960D01*
X7348634Y-16544960D02*
X7329586Y-16554484D01*
X7329586Y-16554484D02*
X7310539Y-16554484D01*
X7310539Y-16554484D02*
X7291491Y-16544960D01*
X7291491Y-16544960D02*
X7281967Y-16535436D01*
X7281967Y-16535436D02*
X7272443Y-16516388D01*
X7272443Y-16516388D02*
X7262920Y-16478293D01*
X7262920Y-16478293D02*
X7262920Y-16430674D01*
X7262920Y-16430674D02*
X7272443Y-16392579D01*
X7272443Y-16392579D02*
X7281967Y-16373531D01*
X7281967Y-16373531D02*
X7291491Y-16364008D01*
X7291491Y-16364008D02*
X7310539Y-16354484D01*
X7462920Y-16554484D02*
X7462920Y-16421150D01*
X7462920Y-16440198D02*
X7472443Y-16430674D01*
X7472443Y-16430674D02*
X7491491Y-16421150D01*
X7491491Y-16421150D02*
X7520063Y-16421150D01*
X7520063Y-16421150D02*
X7539110Y-16430674D01*
X7539110Y-16430674D02*
X7548634Y-16449722D01*
X7548634Y-16449722D02*
X7548634Y-16554484D01*
X7548634Y-16449722D02*
X7558158Y-16430674D01*
X7558158Y-16430674D02*
X7577205Y-16421150D01*
X7577205Y-16421150D02*
X7605777Y-16421150D01*
X7605777Y-16421150D02*
X7624824Y-16430674D01*
X7624824Y-16430674D02*
X7634348Y-16449722D01*
X7634348Y-16449722D02*
X7634348Y-16554484D01*
X7729586Y-16554484D02*
X7729586Y-16421150D01*
X7729586Y-16440198D02*
X7739110Y-16430674D01*
X7739110Y-16430674D02*
X7758158Y-16421150D01*
X7758158Y-16421150D02*
X7786729Y-16421150D01*
X7786729Y-16421150D02*
X7805777Y-16430674D01*
X7805777Y-16430674D02*
X7815301Y-16449722D01*
X7815301Y-16449722D02*
X7815301Y-16554484D01*
X7815301Y-16449722D02*
X7824824Y-16430674D01*
X7824824Y-16430674D02*
X7843872Y-16421150D01*
X7843872Y-16421150D02*
X7872443Y-16421150D01*
X7872443Y-16421150D02*
X7891491Y-16430674D01*
X7891491Y-16430674D02*
X7901015Y-16449722D01*
X7901015Y-16449722D02*
X7901015Y-16554484D01*
X8291491Y-16344960D02*
X8120063Y-16602103D01*
X8548634Y-16354484D02*
X8567682Y-16354484D01*
X8567682Y-16354484D02*
X8586729Y-16364008D01*
X8586729Y-16364008D02*
X8596253Y-16373531D01*
X8596253Y-16373531D02*
X8605777Y-16392579D01*
X8605777Y-16392579D02*
X8615301Y-16430674D01*
X8615301Y-16430674D02*
X8615301Y-16478293D01*
X8615301Y-16478293D02*
X8605777Y-16516388D01*
X8605777Y-16516388D02*
X8596253Y-16535436D01*
X8596253Y-16535436D02*
X8586729Y-16544960D01*
X8586729Y-16544960D02*
X8567682Y-16554484D01*
X8567682Y-16554484D02*
X8548634Y-16554484D01*
X8548634Y-16554484D02*
X8529587Y-16544960D01*
X8529587Y-16544960D02*
X8520063Y-16535436D01*
X8520063Y-16535436D02*
X8510539Y-16516388D01*
X8510539Y-16516388D02*
X8501015Y-16478293D01*
X8501015Y-16478293D02*
X8501015Y-16430674D01*
X8501015Y-16430674D02*
X8510539Y-16392579D01*
X8510539Y-16392579D02*
X8520063Y-16373531D01*
X8520063Y-16373531D02*
X8529587Y-16364008D01*
X8529587Y-16364008D02*
X8548634Y-16354484D01*
X8701015Y-16535436D02*
X8710539Y-16544960D01*
X8710539Y-16544960D02*
X8701015Y-16554484D01*
X8701015Y-16554484D02*
X8691491Y-16544960D01*
X8691491Y-16544960D02*
X8701015Y-16535436D01*
X8701015Y-16535436D02*
X8701015Y-16554484D01*
X8834348Y-16354484D02*
X8853396Y-16354484D01*
X8853396Y-16354484D02*
X8872444Y-16364008D01*
X8872444Y-16364008D02*
X8881968Y-16373531D01*
X8881968Y-16373531D02*
X8891491Y-16392579D01*
X8891491Y-16392579D02*
X8901015Y-16430674D01*
X8901015Y-16430674D02*
X8901015Y-16478293D01*
X8901015Y-16478293D02*
X8891491Y-16516388D01*
X8891491Y-16516388D02*
X8881968Y-16535436D01*
X8881968Y-16535436D02*
X8872444Y-16544960D01*
X8872444Y-16544960D02*
X8853396Y-16554484D01*
X8853396Y-16554484D02*
X8834348Y-16554484D01*
X8834348Y-16554484D02*
X8815301Y-16544960D01*
X8815301Y-16544960D02*
X8805777Y-16535436D01*
X8805777Y-16535436D02*
X8796253Y-16516388D01*
X8796253Y-16516388D02*
X8786729Y-16478293D01*
X8786729Y-16478293D02*
X8786729Y-16430674D01*
X8786729Y-16430674D02*
X8796253Y-16392579D01*
X8796253Y-16392579D02*
X8805777Y-16373531D01*
X8805777Y-16373531D02*
X8815301Y-16364008D01*
X8815301Y-16364008D02*
X8834348Y-16354484D01*
X9081968Y-16354484D02*
X8986729Y-16354484D01*
X8986729Y-16354484D02*
X8977206Y-16449722D01*
X8977206Y-16449722D02*
X8986729Y-16440198D01*
X8986729Y-16440198D02*
X9005777Y-16430674D01*
X9005777Y-16430674D02*
X9053396Y-16430674D01*
X9053396Y-16430674D02*
X9072444Y-16440198D01*
X9072444Y-16440198D02*
X9081968Y-16449722D01*
X9081968Y-16449722D02*
X9091491Y-16468769D01*
X9091491Y-16468769D02*
X9091491Y-16516388D01*
X9091491Y-16516388D02*
X9081968Y-16535436D01*
X9081968Y-16535436D02*
X9072444Y-16544960D01*
X9072444Y-16544960D02*
X9053396Y-16554484D01*
X9053396Y-16554484D02*
X9005777Y-16554484D01*
X9005777Y-16554484D02*
X8986729Y-16544960D01*
X8986729Y-16544960D02*
X8977206Y-16535436D01*
X9167682Y-16373531D02*
X9177206Y-16364008D01*
X9177206Y-16364008D02*
X9196253Y-16354484D01*
X9196253Y-16354484D02*
X9243872Y-16354484D01*
X9243872Y-16354484D02*
X9262920Y-16364008D01*
X9262920Y-16364008D02*
X9272444Y-16373531D01*
X9272444Y-16373531D02*
X9281968Y-16392579D01*
X9281968Y-16392579D02*
X9281968Y-16411627D01*
X9281968Y-16411627D02*
X9272444Y-16440198D01*
X9272444Y-16440198D02*
X9158158Y-16554484D01*
X9158158Y-16554484D02*
X9281968Y-16554484D01*
X9405777Y-16354484D02*
X9424825Y-16354484D01*
X9424825Y-16354484D02*
X9443872Y-16364008D01*
X9443872Y-16364008D02*
X9453396Y-16373531D01*
X9453396Y-16373531D02*
X9462920Y-16392579D01*
X9462920Y-16392579D02*
X9472444Y-16430674D01*
X9472444Y-16430674D02*
X9472444Y-16478293D01*
X9472444Y-16478293D02*
X9462920Y-16516388D01*
X9462920Y-16516388D02*
X9453396Y-16535436D01*
X9453396Y-16535436D02*
X9443872Y-16544960D01*
X9443872Y-16544960D02*
X9424825Y-16554484D01*
X9424825Y-16554484D02*
X9405777Y-16554484D01*
X9405777Y-16554484D02*
X9386729Y-16544960D01*
X9386729Y-16544960D02*
X9377206Y-16535436D01*
X9377206Y-16535436D02*
X9367682Y-16516388D01*
X9367682Y-16516388D02*
X9358158Y-16478293D01*
X9358158Y-16478293D02*
X9358158Y-16430674D01*
X9358158Y-16430674D02*
X9367682Y-16392579D01*
X9367682Y-16392579D02*
X9377206Y-16373531D01*
X9377206Y-16373531D02*
X9386729Y-16364008D01*
X9386729Y-16364008D02*
X9405777Y-16354484D01*
X9548634Y-16354484D02*
X9548634Y-16392579D01*
X9624825Y-16354484D02*
X9624825Y-16392579D01*
X9920063Y-16630674D02*
X9910539Y-16621150D01*
X9910539Y-16621150D02*
X9891491Y-16592579D01*
X9891491Y-16592579D02*
X9881968Y-16573531D01*
X9881968Y-16573531D02*
X9872444Y-16544960D01*
X9872444Y-16544960D02*
X9862920Y-16497341D01*
X9862920Y-16497341D02*
X9862920Y-16459246D01*
X9862920Y-16459246D02*
X9872444Y-16411627D01*
X9872444Y-16411627D02*
X9881968Y-16383055D01*
X9881968Y-16383055D02*
X9891491Y-16364008D01*
X9891491Y-16364008D02*
X9910539Y-16335436D01*
X9910539Y-16335436D02*
X9920063Y-16325912D01*
X10081968Y-16421150D02*
X10081968Y-16554484D01*
X10034349Y-16344960D02*
X9986730Y-16487817D01*
X9986730Y-16487817D02*
X10110539Y-16487817D01*
X10339111Y-16554484D02*
X10339111Y-16354484D01*
X10424825Y-16554484D02*
X10424825Y-16449722D01*
X10424825Y-16449722D02*
X10415301Y-16430674D01*
X10415301Y-16430674D02*
X10396253Y-16421150D01*
X10396253Y-16421150D02*
X10367682Y-16421150D01*
X10367682Y-16421150D02*
X10348634Y-16430674D01*
X10348634Y-16430674D02*
X10339111Y-16440198D01*
X10548634Y-16554484D02*
X10529587Y-16544960D01*
X10529587Y-16544960D02*
X10520063Y-16535436D01*
X10520063Y-16535436D02*
X10510539Y-16516388D01*
X10510539Y-16516388D02*
X10510539Y-16459246D01*
X10510539Y-16459246D02*
X10520063Y-16440198D01*
X10520063Y-16440198D02*
X10529587Y-16430674D01*
X10529587Y-16430674D02*
X10548634Y-16421150D01*
X10548634Y-16421150D02*
X10577206Y-16421150D01*
X10577206Y-16421150D02*
X10596253Y-16430674D01*
X10596253Y-16430674D02*
X10605777Y-16440198D01*
X10605777Y-16440198D02*
X10615301Y-16459246D01*
X10615301Y-16459246D02*
X10615301Y-16516388D01*
X10615301Y-16516388D02*
X10605777Y-16535436D01*
X10605777Y-16535436D02*
X10596253Y-16544960D01*
X10596253Y-16544960D02*
X10577206Y-16554484D01*
X10577206Y-16554484D02*
X10548634Y-16554484D01*
X10729587Y-16554484D02*
X10710539Y-16544960D01*
X10710539Y-16544960D02*
X10701015Y-16525912D01*
X10701015Y-16525912D02*
X10701015Y-16354484D01*
X10881968Y-16544960D02*
X10862920Y-16554484D01*
X10862920Y-16554484D02*
X10824825Y-16554484D01*
X10824825Y-16554484D02*
X10805777Y-16544960D01*
X10805777Y-16544960D02*
X10796253Y-16525912D01*
X10796253Y-16525912D02*
X10796253Y-16449722D01*
X10796253Y-16449722D02*
X10805777Y-16430674D01*
X10805777Y-16430674D02*
X10824825Y-16421150D01*
X10824825Y-16421150D02*
X10862920Y-16421150D01*
X10862920Y-16421150D02*
X10881968Y-16430674D01*
X10881968Y-16430674D02*
X10891492Y-16449722D01*
X10891492Y-16449722D02*
X10891492Y-16468769D01*
X10891492Y-16468769D02*
X10796253Y-16487817D01*
X10967682Y-16544960D02*
X10986730Y-16554484D01*
X10986730Y-16554484D02*
X11024825Y-16554484D01*
X11024825Y-16554484D02*
X11043873Y-16544960D01*
X11043873Y-16544960D02*
X11053396Y-16525912D01*
X11053396Y-16525912D02*
X11053396Y-16516388D01*
X11053396Y-16516388D02*
X11043873Y-16497341D01*
X11043873Y-16497341D02*
X11024825Y-16487817D01*
X11024825Y-16487817D02*
X10996253Y-16487817D01*
X10996253Y-16487817D02*
X10977206Y-16478293D01*
X10977206Y-16478293D02*
X10967682Y-16459246D01*
X10967682Y-16459246D02*
X10967682Y-16449722D01*
X10967682Y-16449722D02*
X10977206Y-16430674D01*
X10977206Y-16430674D02*
X10996253Y-16421150D01*
X10996253Y-16421150D02*
X11024825Y-16421150D01*
X11024825Y-16421150D02*
X11043873Y-16430674D01*
X11120063Y-16630674D02*
X11129587Y-16621150D01*
X11129587Y-16621150D02*
X11148634Y-16592579D01*
X11148634Y-16592579D02*
X11158158Y-16573531D01*
X11158158Y-16573531D02*
X11167682Y-16544960D01*
X11167682Y-16544960D02*
X11177206Y-16497341D01*
X11177206Y-16497341D02*
X11177206Y-16459246D01*
X11177206Y-16459246D02*
X11167682Y-16411627D01*
X11167682Y-16411627D02*
X11158158Y-16383055D01*
X11158158Y-16383055D02*
X11148634Y-16364008D01*
X11148634Y-16364008D02*
X11129587Y-16335436D01*
X11129587Y-16335436D02*
X11120063Y-16325912D01*
D19*
X6205000Y-16657000D02*
X6345000Y-16797000D01*
X6345000Y-16657000D02*
X6205000Y-16797000D01*
X6275000Y-16797000D02*
X6345000Y-16727000D01*
X6275000Y-16657000D01*
X6205000Y-16727000D01*
X6275000Y-16797000D01*
D11*
X6710539Y-16818484D02*
X6596253Y-16818484D01*
X6653396Y-16818484D02*
X6653396Y-16618484D01*
X6653396Y-16618484D02*
X6634348Y-16647055D01*
X6634348Y-16647055D02*
X6615301Y-16666103D01*
X6615301Y-16666103D02*
X6596253Y-16675627D01*
X6796253Y-16799436D02*
X6805777Y-16808960D01*
X6805777Y-16808960D02*
X6796253Y-16818484D01*
X6796253Y-16818484D02*
X6786729Y-16808960D01*
X6786729Y-16808960D02*
X6796253Y-16799436D01*
X6796253Y-16799436D02*
X6796253Y-16818484D01*
X6977205Y-16685150D02*
X6977205Y-16818484D01*
X6929586Y-16608960D02*
X6881967Y-16751817D01*
X6881967Y-16751817D02*
X7005777Y-16751817D01*
X7120062Y-16618484D02*
X7139110Y-16618484D01*
X7139110Y-16618484D02*
X7158158Y-16628008D01*
X7158158Y-16628008D02*
X7167682Y-16637531D01*
X7167682Y-16637531D02*
X7177205Y-16656579D01*
X7177205Y-16656579D02*
X7186729Y-16694674D01*
X7186729Y-16694674D02*
X7186729Y-16742293D01*
X7186729Y-16742293D02*
X7177205Y-16780389D01*
X7177205Y-16780389D02*
X7167682Y-16799436D01*
X7167682Y-16799436D02*
X7158158Y-16808960D01*
X7158158Y-16808960D02*
X7139110Y-16818484D01*
X7139110Y-16818484D02*
X7120062Y-16818484D01*
X7120062Y-16818484D02*
X7101015Y-16808960D01*
X7101015Y-16808960D02*
X7091491Y-16799436D01*
X7091491Y-16799436D02*
X7081967Y-16780389D01*
X7081967Y-16780389D02*
X7072443Y-16742293D01*
X7072443Y-16742293D02*
X7072443Y-16694674D01*
X7072443Y-16694674D02*
X7081967Y-16656579D01*
X7081967Y-16656579D02*
X7091491Y-16637531D01*
X7091491Y-16637531D02*
X7101015Y-16628008D01*
X7101015Y-16628008D02*
X7120062Y-16618484D01*
X7310539Y-16618484D02*
X7329586Y-16618484D01*
X7329586Y-16618484D02*
X7348634Y-16628008D01*
X7348634Y-16628008D02*
X7358158Y-16637531D01*
X7358158Y-16637531D02*
X7367682Y-16656579D01*
X7367682Y-16656579D02*
X7377205Y-16694674D01*
X7377205Y-16694674D02*
X7377205Y-16742293D01*
X7377205Y-16742293D02*
X7367682Y-16780389D01*
X7367682Y-16780389D02*
X7358158Y-16799436D01*
X7358158Y-16799436D02*
X7348634Y-16808960D01*
X7348634Y-16808960D02*
X7329586Y-16818484D01*
X7329586Y-16818484D02*
X7310539Y-16818484D01*
X7310539Y-16818484D02*
X7291491Y-16808960D01*
X7291491Y-16808960D02*
X7281967Y-16799436D01*
X7281967Y-16799436D02*
X7272443Y-16780389D01*
X7272443Y-16780389D02*
X7262920Y-16742293D01*
X7262920Y-16742293D02*
X7262920Y-16694674D01*
X7262920Y-16694674D02*
X7272443Y-16656579D01*
X7272443Y-16656579D02*
X7281967Y-16637531D01*
X7281967Y-16637531D02*
X7291491Y-16628008D01*
X7291491Y-16628008D02*
X7310539Y-16618484D01*
X7462920Y-16818484D02*
X7462920Y-16685150D01*
X7462920Y-16704198D02*
X7472443Y-16694674D01*
X7472443Y-16694674D02*
X7491491Y-16685150D01*
X7491491Y-16685150D02*
X7520063Y-16685150D01*
X7520063Y-16685150D02*
X7539110Y-16694674D01*
X7539110Y-16694674D02*
X7548634Y-16713722D01*
X7548634Y-16713722D02*
X7548634Y-16818484D01*
X7548634Y-16713722D02*
X7558158Y-16694674D01*
X7558158Y-16694674D02*
X7577205Y-16685150D01*
X7577205Y-16685150D02*
X7605777Y-16685150D01*
X7605777Y-16685150D02*
X7624824Y-16694674D01*
X7624824Y-16694674D02*
X7634348Y-16713722D01*
X7634348Y-16713722D02*
X7634348Y-16818484D01*
X7729586Y-16818484D02*
X7729586Y-16685150D01*
X7729586Y-16704198D02*
X7739110Y-16694674D01*
X7739110Y-16694674D02*
X7758158Y-16685150D01*
X7758158Y-16685150D02*
X7786729Y-16685150D01*
X7786729Y-16685150D02*
X7805777Y-16694674D01*
X7805777Y-16694674D02*
X7815301Y-16713722D01*
X7815301Y-16713722D02*
X7815301Y-16818484D01*
X7815301Y-16713722D02*
X7824824Y-16694674D01*
X7824824Y-16694674D02*
X7843872Y-16685150D01*
X7843872Y-16685150D02*
X7872443Y-16685150D01*
X7872443Y-16685150D02*
X7891491Y-16694674D01*
X7891491Y-16694674D02*
X7901015Y-16713722D01*
X7901015Y-16713722D02*
X7901015Y-16818484D01*
X8291491Y-16608960D02*
X8120063Y-16866103D01*
X8548634Y-16618484D02*
X8567682Y-16618484D01*
X8567682Y-16618484D02*
X8586729Y-16628008D01*
X8586729Y-16628008D02*
X8596253Y-16637531D01*
X8596253Y-16637531D02*
X8605777Y-16656579D01*
X8605777Y-16656579D02*
X8615301Y-16694674D01*
X8615301Y-16694674D02*
X8615301Y-16742293D01*
X8615301Y-16742293D02*
X8605777Y-16780389D01*
X8605777Y-16780389D02*
X8596253Y-16799436D01*
X8596253Y-16799436D02*
X8586729Y-16808960D01*
X8586729Y-16808960D02*
X8567682Y-16818484D01*
X8567682Y-16818484D02*
X8548634Y-16818484D01*
X8548634Y-16818484D02*
X8529587Y-16808960D01*
X8529587Y-16808960D02*
X8520063Y-16799436D01*
X8520063Y-16799436D02*
X8510539Y-16780389D01*
X8510539Y-16780389D02*
X8501015Y-16742293D01*
X8501015Y-16742293D02*
X8501015Y-16694674D01*
X8501015Y-16694674D02*
X8510539Y-16656579D01*
X8510539Y-16656579D02*
X8520063Y-16637531D01*
X8520063Y-16637531D02*
X8529587Y-16628008D01*
X8529587Y-16628008D02*
X8548634Y-16618484D01*
X8701015Y-16799436D02*
X8710539Y-16808960D01*
X8710539Y-16808960D02*
X8701015Y-16818484D01*
X8701015Y-16818484D02*
X8691491Y-16808960D01*
X8691491Y-16808960D02*
X8701015Y-16799436D01*
X8701015Y-16799436D02*
X8701015Y-16818484D01*
X8834348Y-16618484D02*
X8853396Y-16618484D01*
X8853396Y-16618484D02*
X8872444Y-16628008D01*
X8872444Y-16628008D02*
X8881968Y-16637531D01*
X8881968Y-16637531D02*
X8891491Y-16656579D01*
X8891491Y-16656579D02*
X8901015Y-16694674D01*
X8901015Y-16694674D02*
X8901015Y-16742293D01*
X8901015Y-16742293D02*
X8891491Y-16780389D01*
X8891491Y-16780389D02*
X8881968Y-16799436D01*
X8881968Y-16799436D02*
X8872444Y-16808960D01*
X8872444Y-16808960D02*
X8853396Y-16818484D01*
X8853396Y-16818484D02*
X8834348Y-16818484D01*
X8834348Y-16818484D02*
X8815301Y-16808960D01*
X8815301Y-16808960D02*
X8805777Y-16799436D01*
X8805777Y-16799436D02*
X8796253Y-16780389D01*
X8796253Y-16780389D02*
X8786729Y-16742293D01*
X8786729Y-16742293D02*
X8786729Y-16694674D01*
X8786729Y-16694674D02*
X8796253Y-16656579D01*
X8796253Y-16656579D02*
X8805777Y-16637531D01*
X8805777Y-16637531D02*
X8815301Y-16628008D01*
X8815301Y-16628008D02*
X8834348Y-16618484D01*
X9081968Y-16618484D02*
X8986729Y-16618484D01*
X8986729Y-16618484D02*
X8977206Y-16713722D01*
X8977206Y-16713722D02*
X8986729Y-16704198D01*
X8986729Y-16704198D02*
X9005777Y-16694674D01*
X9005777Y-16694674D02*
X9053396Y-16694674D01*
X9053396Y-16694674D02*
X9072444Y-16704198D01*
X9072444Y-16704198D02*
X9081968Y-16713722D01*
X9081968Y-16713722D02*
X9091491Y-16732769D01*
X9091491Y-16732769D02*
X9091491Y-16780389D01*
X9091491Y-16780389D02*
X9081968Y-16799436D01*
X9081968Y-16799436D02*
X9072444Y-16808960D01*
X9072444Y-16808960D02*
X9053396Y-16818484D01*
X9053396Y-16818484D02*
X9005777Y-16818484D01*
X9005777Y-16818484D02*
X8986729Y-16808960D01*
X8986729Y-16808960D02*
X8977206Y-16799436D01*
X9272444Y-16618484D02*
X9177206Y-16618484D01*
X9177206Y-16618484D02*
X9167682Y-16713722D01*
X9167682Y-16713722D02*
X9177206Y-16704198D01*
X9177206Y-16704198D02*
X9196253Y-16694674D01*
X9196253Y-16694674D02*
X9243872Y-16694674D01*
X9243872Y-16694674D02*
X9262920Y-16704198D01*
X9262920Y-16704198D02*
X9272444Y-16713722D01*
X9272444Y-16713722D02*
X9281968Y-16732769D01*
X9281968Y-16732769D02*
X9281968Y-16780389D01*
X9281968Y-16780389D02*
X9272444Y-16799436D01*
X9272444Y-16799436D02*
X9262920Y-16808960D01*
X9262920Y-16808960D02*
X9243872Y-16818484D01*
X9243872Y-16818484D02*
X9196253Y-16818484D01*
X9196253Y-16818484D02*
X9177206Y-16808960D01*
X9177206Y-16808960D02*
X9167682Y-16799436D01*
X9472444Y-16818484D02*
X9358158Y-16818484D01*
X9415301Y-16818484D02*
X9415301Y-16618484D01*
X9415301Y-16618484D02*
X9396253Y-16647055D01*
X9396253Y-16647055D02*
X9377206Y-16666103D01*
X9377206Y-16666103D02*
X9358158Y-16675627D01*
X9548634Y-16618484D02*
X9548634Y-16656579D01*
X9624825Y-16618484D02*
X9624825Y-16656579D01*
X9920063Y-16894674D02*
X9910539Y-16885150D01*
X9910539Y-16885150D02*
X9891491Y-16856579D01*
X9891491Y-16856579D02*
X9881968Y-16837531D01*
X9881968Y-16837531D02*
X9872444Y-16808960D01*
X9872444Y-16808960D02*
X9862920Y-16761341D01*
X9862920Y-16761341D02*
X9862920Y-16723246D01*
X9862920Y-16723246D02*
X9872444Y-16675627D01*
X9872444Y-16675627D02*
X9881968Y-16647055D01*
X9881968Y-16647055D02*
X9891491Y-16628008D01*
X9891491Y-16628008D02*
X9910539Y-16599436D01*
X9910539Y-16599436D02*
X9920063Y-16589912D01*
X10024825Y-16704198D02*
X10005777Y-16694674D01*
X10005777Y-16694674D02*
X9996253Y-16685150D01*
X9996253Y-16685150D02*
X9986730Y-16666103D01*
X9986730Y-16666103D02*
X9986730Y-16656579D01*
X9986730Y-16656579D02*
X9996253Y-16637531D01*
X9996253Y-16637531D02*
X10005777Y-16628008D01*
X10005777Y-16628008D02*
X10024825Y-16618484D01*
X10024825Y-16618484D02*
X10062920Y-16618484D01*
X10062920Y-16618484D02*
X10081968Y-16628008D01*
X10081968Y-16628008D02*
X10091491Y-16637531D01*
X10091491Y-16637531D02*
X10101015Y-16656579D01*
X10101015Y-16656579D02*
X10101015Y-16666103D01*
X10101015Y-16666103D02*
X10091491Y-16685150D01*
X10091491Y-16685150D02*
X10081968Y-16694674D01*
X10081968Y-16694674D02*
X10062920Y-16704198D01*
X10062920Y-16704198D02*
X10024825Y-16704198D01*
X10024825Y-16704198D02*
X10005777Y-16713722D01*
X10005777Y-16713722D02*
X9996253Y-16723246D01*
X9996253Y-16723246D02*
X9986730Y-16742293D01*
X9986730Y-16742293D02*
X9986730Y-16780389D01*
X9986730Y-16780389D02*
X9996253Y-16799436D01*
X9996253Y-16799436D02*
X10005777Y-16808960D01*
X10005777Y-16808960D02*
X10024825Y-16818484D01*
X10024825Y-16818484D02*
X10062920Y-16818484D01*
X10062920Y-16818484D02*
X10081968Y-16808960D01*
X10081968Y-16808960D02*
X10091491Y-16799436D01*
X10091491Y-16799436D02*
X10101015Y-16780389D01*
X10101015Y-16780389D02*
X10101015Y-16742293D01*
X10101015Y-16742293D02*
X10091491Y-16723246D01*
X10091491Y-16723246D02*
X10081968Y-16713722D01*
X10081968Y-16713722D02*
X10062920Y-16704198D01*
X10339111Y-16818484D02*
X10339111Y-16618484D01*
X10424825Y-16818484D02*
X10424825Y-16713722D01*
X10424825Y-16713722D02*
X10415301Y-16694674D01*
X10415301Y-16694674D02*
X10396253Y-16685150D01*
X10396253Y-16685150D02*
X10367682Y-16685150D01*
X10367682Y-16685150D02*
X10348634Y-16694674D01*
X10348634Y-16694674D02*
X10339111Y-16704198D01*
X10548634Y-16818484D02*
X10529587Y-16808960D01*
X10529587Y-16808960D02*
X10520063Y-16799436D01*
X10520063Y-16799436D02*
X10510539Y-16780389D01*
X10510539Y-16780389D02*
X10510539Y-16723246D01*
X10510539Y-16723246D02*
X10520063Y-16704198D01*
X10520063Y-16704198D02*
X10529587Y-16694674D01*
X10529587Y-16694674D02*
X10548634Y-16685150D01*
X10548634Y-16685150D02*
X10577206Y-16685150D01*
X10577206Y-16685150D02*
X10596253Y-16694674D01*
X10596253Y-16694674D02*
X10605777Y-16704198D01*
X10605777Y-16704198D02*
X10615301Y-16723246D01*
X10615301Y-16723246D02*
X10615301Y-16780389D01*
X10615301Y-16780389D02*
X10605777Y-16799436D01*
X10605777Y-16799436D02*
X10596253Y-16808960D01*
X10596253Y-16808960D02*
X10577206Y-16818484D01*
X10577206Y-16818484D02*
X10548634Y-16818484D01*
X10729587Y-16818484D02*
X10710539Y-16808960D01*
X10710539Y-16808960D02*
X10701015Y-16789912D01*
X10701015Y-16789912D02*
X10701015Y-16618484D01*
X10881968Y-16808960D02*
X10862920Y-16818484D01*
X10862920Y-16818484D02*
X10824825Y-16818484D01*
X10824825Y-16818484D02*
X10805777Y-16808960D01*
X10805777Y-16808960D02*
X10796253Y-16789912D01*
X10796253Y-16789912D02*
X10796253Y-16713722D01*
X10796253Y-16713722D02*
X10805777Y-16694674D01*
X10805777Y-16694674D02*
X10824825Y-16685150D01*
X10824825Y-16685150D02*
X10862920Y-16685150D01*
X10862920Y-16685150D02*
X10881968Y-16694674D01*
X10881968Y-16694674D02*
X10891492Y-16713722D01*
X10891492Y-16713722D02*
X10891492Y-16732769D01*
X10891492Y-16732769D02*
X10796253Y-16751817D01*
X10967682Y-16808960D02*
X10986730Y-16818484D01*
X10986730Y-16818484D02*
X11024825Y-16818484D01*
X11024825Y-16818484D02*
X11043873Y-16808960D01*
X11043873Y-16808960D02*
X11053396Y-16789912D01*
X11053396Y-16789912D02*
X11053396Y-16780389D01*
X11053396Y-16780389D02*
X11043873Y-16761341D01*
X11043873Y-16761341D02*
X11024825Y-16751817D01*
X11024825Y-16751817D02*
X10996253Y-16751817D01*
X10996253Y-16751817D02*
X10977206Y-16742293D01*
X10977206Y-16742293D02*
X10967682Y-16723246D01*
X10967682Y-16723246D02*
X10967682Y-16713722D01*
X10967682Y-16713722D02*
X10977206Y-16694674D01*
X10977206Y-16694674D02*
X10996253Y-16685150D01*
X10996253Y-16685150D02*
X11024825Y-16685150D01*
X11024825Y-16685150D02*
X11043873Y-16694674D01*
X11120063Y-16894674D02*
X11129587Y-16885150D01*
X11129587Y-16885150D02*
X11148634Y-16856579D01*
X11148634Y-16856579D02*
X11158158Y-16837531D01*
X11158158Y-16837531D02*
X11167682Y-16808960D01*
X11167682Y-16808960D02*
X11177206Y-16761341D01*
X11177206Y-16761341D02*
X11177206Y-16723246D01*
X11177206Y-16723246D02*
X11167682Y-16675627D01*
X11167682Y-16675627D02*
X11158158Y-16647055D01*
X11158158Y-16647055D02*
X11148634Y-16628008D01*
X11148634Y-16628008D02*
X11129587Y-16599436D01*
X11129587Y-16599436D02*
X11120063Y-16589912D01*
X6245000Y-16891000D02*
X6245000Y-17091000D01*
X6145000Y-16991000D02*
X6345000Y-16991000D01*
X6345000Y-16991000D02*
G75*
G03*
X6345000Y-16991000I-100000J0D01*
G01*
X6596253Y-16901531D02*
X6605777Y-16892008D01*
X6605777Y-16892008D02*
X6624824Y-16882484D01*
X6624824Y-16882484D02*
X6672443Y-16882484D01*
X6672443Y-16882484D02*
X6691491Y-16892008D01*
X6691491Y-16892008D02*
X6701015Y-16901531D01*
X6701015Y-16901531D02*
X6710539Y-16920579D01*
X6710539Y-16920579D02*
X6710539Y-16939627D01*
X6710539Y-16939627D02*
X6701015Y-16968198D01*
X6701015Y-16968198D02*
X6586729Y-17082484D01*
X6586729Y-17082484D02*
X6710539Y-17082484D01*
X6796253Y-17063436D02*
X6805777Y-17072960D01*
X6805777Y-17072960D02*
X6796253Y-17082484D01*
X6796253Y-17082484D02*
X6786729Y-17072960D01*
X6786729Y-17072960D02*
X6796253Y-17063436D01*
X6796253Y-17063436D02*
X6796253Y-17082484D01*
X6986729Y-16882484D02*
X6891491Y-16882484D01*
X6891491Y-16882484D02*
X6881967Y-16977722D01*
X6881967Y-16977722D02*
X6891491Y-16968198D01*
X6891491Y-16968198D02*
X6910539Y-16958674D01*
X6910539Y-16958674D02*
X6958158Y-16958674D01*
X6958158Y-16958674D02*
X6977205Y-16968198D01*
X6977205Y-16968198D02*
X6986729Y-16977722D01*
X6986729Y-16977722D02*
X6996253Y-16996770D01*
X6996253Y-16996770D02*
X6996253Y-17044389D01*
X6996253Y-17044389D02*
X6986729Y-17063436D01*
X6986729Y-17063436D02*
X6977205Y-17072960D01*
X6977205Y-17072960D02*
X6958158Y-17082484D01*
X6958158Y-17082484D02*
X6910539Y-17082484D01*
X6910539Y-17082484D02*
X6891491Y-17072960D01*
X6891491Y-17072960D02*
X6881967Y-17063436D01*
X7120062Y-16882484D02*
X7139110Y-16882484D01*
X7139110Y-16882484D02*
X7158158Y-16892008D01*
X7158158Y-16892008D02*
X7167682Y-16901531D01*
X7167682Y-16901531D02*
X7177205Y-16920579D01*
X7177205Y-16920579D02*
X7186729Y-16958674D01*
X7186729Y-16958674D02*
X7186729Y-17006293D01*
X7186729Y-17006293D02*
X7177205Y-17044389D01*
X7177205Y-17044389D02*
X7167682Y-17063436D01*
X7167682Y-17063436D02*
X7158158Y-17072960D01*
X7158158Y-17072960D02*
X7139110Y-17082484D01*
X7139110Y-17082484D02*
X7120062Y-17082484D01*
X7120062Y-17082484D02*
X7101015Y-17072960D01*
X7101015Y-17072960D02*
X7091491Y-17063436D01*
X7091491Y-17063436D02*
X7081967Y-17044389D01*
X7081967Y-17044389D02*
X7072443Y-17006293D01*
X7072443Y-17006293D02*
X7072443Y-16958674D01*
X7072443Y-16958674D02*
X7081967Y-16920579D01*
X7081967Y-16920579D02*
X7091491Y-16901531D01*
X7091491Y-16901531D02*
X7101015Y-16892008D01*
X7101015Y-16892008D02*
X7120062Y-16882484D01*
X7310539Y-16882484D02*
X7329586Y-16882484D01*
X7329586Y-16882484D02*
X7348634Y-16892008D01*
X7348634Y-16892008D02*
X7358158Y-16901531D01*
X7358158Y-16901531D02*
X7367682Y-16920579D01*
X7367682Y-16920579D02*
X7377205Y-16958674D01*
X7377205Y-16958674D02*
X7377205Y-17006293D01*
X7377205Y-17006293D02*
X7367682Y-17044389D01*
X7367682Y-17044389D02*
X7358158Y-17063436D01*
X7358158Y-17063436D02*
X7348634Y-17072960D01*
X7348634Y-17072960D02*
X7329586Y-17082484D01*
X7329586Y-17082484D02*
X7310539Y-17082484D01*
X7310539Y-17082484D02*
X7291491Y-17072960D01*
X7291491Y-17072960D02*
X7281967Y-17063436D01*
X7281967Y-17063436D02*
X7272443Y-17044389D01*
X7272443Y-17044389D02*
X7262920Y-17006293D01*
X7262920Y-17006293D02*
X7262920Y-16958674D01*
X7262920Y-16958674D02*
X7272443Y-16920579D01*
X7272443Y-16920579D02*
X7281967Y-16901531D01*
X7281967Y-16901531D02*
X7291491Y-16892008D01*
X7291491Y-16892008D02*
X7310539Y-16882484D01*
X7462920Y-17082484D02*
X7462920Y-16949150D01*
X7462920Y-16968198D02*
X7472443Y-16958674D01*
X7472443Y-16958674D02*
X7491491Y-16949150D01*
X7491491Y-16949150D02*
X7520063Y-16949150D01*
X7520063Y-16949150D02*
X7539110Y-16958674D01*
X7539110Y-16958674D02*
X7548634Y-16977722D01*
X7548634Y-16977722D02*
X7548634Y-17082484D01*
X7548634Y-16977722D02*
X7558158Y-16958674D01*
X7558158Y-16958674D02*
X7577205Y-16949150D01*
X7577205Y-16949150D02*
X7605777Y-16949150D01*
X7605777Y-16949150D02*
X7624824Y-16958674D01*
X7624824Y-16958674D02*
X7634348Y-16977722D01*
X7634348Y-16977722D02*
X7634348Y-17082484D01*
X7729586Y-17082484D02*
X7729586Y-16949150D01*
X7729586Y-16968198D02*
X7739110Y-16958674D01*
X7739110Y-16958674D02*
X7758158Y-16949150D01*
X7758158Y-16949150D02*
X7786729Y-16949150D01*
X7786729Y-16949150D02*
X7805777Y-16958674D01*
X7805777Y-16958674D02*
X7815301Y-16977722D01*
X7815301Y-16977722D02*
X7815301Y-17082484D01*
X7815301Y-16977722D02*
X7824824Y-16958674D01*
X7824824Y-16958674D02*
X7843872Y-16949150D01*
X7843872Y-16949150D02*
X7872443Y-16949150D01*
X7872443Y-16949150D02*
X7891491Y-16958674D01*
X7891491Y-16958674D02*
X7901015Y-16977722D01*
X7901015Y-16977722D02*
X7901015Y-17082484D01*
X8291491Y-16872960D02*
X8120063Y-17130103D01*
X8548634Y-16882484D02*
X8567682Y-16882484D01*
X8567682Y-16882484D02*
X8586729Y-16892008D01*
X8586729Y-16892008D02*
X8596253Y-16901531D01*
X8596253Y-16901531D02*
X8605777Y-16920579D01*
X8605777Y-16920579D02*
X8615301Y-16958674D01*
X8615301Y-16958674D02*
X8615301Y-17006293D01*
X8615301Y-17006293D02*
X8605777Y-17044389D01*
X8605777Y-17044389D02*
X8596253Y-17063436D01*
X8596253Y-17063436D02*
X8586729Y-17072960D01*
X8586729Y-17072960D02*
X8567682Y-17082484D01*
X8567682Y-17082484D02*
X8548634Y-17082484D01*
X8548634Y-17082484D02*
X8529587Y-17072960D01*
X8529587Y-17072960D02*
X8520063Y-17063436D01*
X8520063Y-17063436D02*
X8510539Y-17044389D01*
X8510539Y-17044389D02*
X8501015Y-17006293D01*
X8501015Y-17006293D02*
X8501015Y-16958674D01*
X8501015Y-16958674D02*
X8510539Y-16920579D01*
X8510539Y-16920579D02*
X8520063Y-16901531D01*
X8520063Y-16901531D02*
X8529587Y-16892008D01*
X8529587Y-16892008D02*
X8548634Y-16882484D01*
X8701015Y-17063436D02*
X8710539Y-17072960D01*
X8710539Y-17072960D02*
X8701015Y-17082484D01*
X8701015Y-17082484D02*
X8691491Y-17072960D01*
X8691491Y-17072960D02*
X8701015Y-17063436D01*
X8701015Y-17063436D02*
X8701015Y-17082484D01*
X8834348Y-16882484D02*
X8853396Y-16882484D01*
X8853396Y-16882484D02*
X8872444Y-16892008D01*
X8872444Y-16892008D02*
X8881968Y-16901531D01*
X8881968Y-16901531D02*
X8891491Y-16920579D01*
X8891491Y-16920579D02*
X8901015Y-16958674D01*
X8901015Y-16958674D02*
X8901015Y-17006293D01*
X8901015Y-17006293D02*
X8891491Y-17044389D01*
X8891491Y-17044389D02*
X8881968Y-17063436D01*
X8881968Y-17063436D02*
X8872444Y-17072960D01*
X8872444Y-17072960D02*
X8853396Y-17082484D01*
X8853396Y-17082484D02*
X8834348Y-17082484D01*
X8834348Y-17082484D02*
X8815301Y-17072960D01*
X8815301Y-17072960D02*
X8805777Y-17063436D01*
X8805777Y-17063436D02*
X8796253Y-17044389D01*
X8796253Y-17044389D02*
X8786729Y-17006293D01*
X8786729Y-17006293D02*
X8786729Y-16958674D01*
X8786729Y-16958674D02*
X8796253Y-16920579D01*
X8796253Y-16920579D02*
X8805777Y-16901531D01*
X8805777Y-16901531D02*
X8815301Y-16892008D01*
X8815301Y-16892008D02*
X8834348Y-16882484D01*
X8996253Y-17082484D02*
X9034348Y-17082484D01*
X9034348Y-17082484D02*
X9053396Y-17072960D01*
X9053396Y-17072960D02*
X9062920Y-17063436D01*
X9062920Y-17063436D02*
X9081968Y-17034865D01*
X9081968Y-17034865D02*
X9091491Y-16996770D01*
X9091491Y-16996770D02*
X9091491Y-16920579D01*
X9091491Y-16920579D02*
X9081968Y-16901531D01*
X9081968Y-16901531D02*
X9072444Y-16892008D01*
X9072444Y-16892008D02*
X9053396Y-16882484D01*
X9053396Y-16882484D02*
X9015301Y-16882484D01*
X9015301Y-16882484D02*
X8996253Y-16892008D01*
X8996253Y-16892008D02*
X8986729Y-16901531D01*
X8986729Y-16901531D02*
X8977206Y-16920579D01*
X8977206Y-16920579D02*
X8977206Y-16968198D01*
X8977206Y-16968198D02*
X8986729Y-16987246D01*
X8986729Y-16987246D02*
X8996253Y-16996770D01*
X8996253Y-16996770D02*
X9015301Y-17006293D01*
X9015301Y-17006293D02*
X9053396Y-17006293D01*
X9053396Y-17006293D02*
X9072444Y-16996770D01*
X9072444Y-16996770D02*
X9081968Y-16987246D01*
X9081968Y-16987246D02*
X9091491Y-16968198D01*
X9205777Y-16968198D02*
X9186729Y-16958674D01*
X9186729Y-16958674D02*
X9177206Y-16949150D01*
X9177206Y-16949150D02*
X9167682Y-16930103D01*
X9167682Y-16930103D02*
X9167682Y-16920579D01*
X9167682Y-16920579D02*
X9177206Y-16901531D01*
X9177206Y-16901531D02*
X9186729Y-16892008D01*
X9186729Y-16892008D02*
X9205777Y-16882484D01*
X9205777Y-16882484D02*
X9243872Y-16882484D01*
X9243872Y-16882484D02*
X9262920Y-16892008D01*
X9262920Y-16892008D02*
X9272444Y-16901531D01*
X9272444Y-16901531D02*
X9281968Y-16920579D01*
X9281968Y-16920579D02*
X9281968Y-16930103D01*
X9281968Y-16930103D02*
X9272444Y-16949150D01*
X9272444Y-16949150D02*
X9262920Y-16958674D01*
X9262920Y-16958674D02*
X9243872Y-16968198D01*
X9243872Y-16968198D02*
X9205777Y-16968198D01*
X9205777Y-16968198D02*
X9186729Y-16977722D01*
X9186729Y-16977722D02*
X9177206Y-16987246D01*
X9177206Y-16987246D02*
X9167682Y-17006293D01*
X9167682Y-17006293D02*
X9167682Y-17044389D01*
X9167682Y-17044389D02*
X9177206Y-17063436D01*
X9177206Y-17063436D02*
X9186729Y-17072960D01*
X9186729Y-17072960D02*
X9205777Y-17082484D01*
X9205777Y-17082484D02*
X9243872Y-17082484D01*
X9243872Y-17082484D02*
X9262920Y-17072960D01*
X9262920Y-17072960D02*
X9272444Y-17063436D01*
X9272444Y-17063436D02*
X9281968Y-17044389D01*
X9281968Y-17044389D02*
X9281968Y-17006293D01*
X9281968Y-17006293D02*
X9272444Y-16987246D01*
X9272444Y-16987246D02*
X9262920Y-16977722D01*
X9262920Y-16977722D02*
X9243872Y-16968198D01*
X9453396Y-16949150D02*
X9453396Y-17082484D01*
X9405777Y-16872960D02*
X9358158Y-17015817D01*
X9358158Y-17015817D02*
X9481968Y-17015817D01*
X9548634Y-16882484D02*
X9548634Y-16920579D01*
X9624825Y-16882484D02*
X9624825Y-16920579D01*
X9920063Y-17158674D02*
X9910539Y-17149150D01*
X9910539Y-17149150D02*
X9891491Y-17120579D01*
X9891491Y-17120579D02*
X9881968Y-17101531D01*
X9881968Y-17101531D02*
X9872444Y-17072960D01*
X9872444Y-17072960D02*
X9862920Y-17025341D01*
X9862920Y-17025341D02*
X9862920Y-16987246D01*
X9862920Y-16987246D02*
X9872444Y-16939627D01*
X9872444Y-16939627D02*
X9881968Y-16911055D01*
X9881968Y-16911055D02*
X9891491Y-16892008D01*
X9891491Y-16892008D02*
X9910539Y-16863436D01*
X9910539Y-16863436D02*
X9920063Y-16853912D01*
X10081968Y-16949150D02*
X10081968Y-17082484D01*
X10034349Y-16872960D02*
X9986730Y-17015817D01*
X9986730Y-17015817D02*
X10110539Y-17015817D01*
X10339111Y-17082484D02*
X10339111Y-16882484D01*
X10424825Y-17082484D02*
X10424825Y-16977722D01*
X10424825Y-16977722D02*
X10415301Y-16958674D01*
X10415301Y-16958674D02*
X10396253Y-16949150D01*
X10396253Y-16949150D02*
X10367682Y-16949150D01*
X10367682Y-16949150D02*
X10348634Y-16958674D01*
X10348634Y-16958674D02*
X10339111Y-16968198D01*
X10548634Y-17082484D02*
X10529587Y-17072960D01*
X10529587Y-17072960D02*
X10520063Y-17063436D01*
X10520063Y-17063436D02*
X10510539Y-17044389D01*
X10510539Y-17044389D02*
X10510539Y-16987246D01*
X10510539Y-16987246D02*
X10520063Y-16968198D01*
X10520063Y-16968198D02*
X10529587Y-16958674D01*
X10529587Y-16958674D02*
X10548634Y-16949150D01*
X10548634Y-16949150D02*
X10577206Y-16949150D01*
X10577206Y-16949150D02*
X10596253Y-16958674D01*
X10596253Y-16958674D02*
X10605777Y-16968198D01*
X10605777Y-16968198D02*
X10615301Y-16987246D01*
X10615301Y-16987246D02*
X10615301Y-17044389D01*
X10615301Y-17044389D02*
X10605777Y-17063436D01*
X10605777Y-17063436D02*
X10596253Y-17072960D01*
X10596253Y-17072960D02*
X10577206Y-17082484D01*
X10577206Y-17082484D02*
X10548634Y-17082484D01*
X10729587Y-17082484D02*
X10710539Y-17072960D01*
X10710539Y-17072960D02*
X10701015Y-17053912D01*
X10701015Y-17053912D02*
X10701015Y-16882484D01*
X10881968Y-17072960D02*
X10862920Y-17082484D01*
X10862920Y-17082484D02*
X10824825Y-17082484D01*
X10824825Y-17082484D02*
X10805777Y-17072960D01*
X10805777Y-17072960D02*
X10796253Y-17053912D01*
X10796253Y-17053912D02*
X10796253Y-16977722D01*
X10796253Y-16977722D02*
X10805777Y-16958674D01*
X10805777Y-16958674D02*
X10824825Y-16949150D01*
X10824825Y-16949150D02*
X10862920Y-16949150D01*
X10862920Y-16949150D02*
X10881968Y-16958674D01*
X10881968Y-16958674D02*
X10891492Y-16977722D01*
X10891492Y-16977722D02*
X10891492Y-16996770D01*
X10891492Y-16996770D02*
X10796253Y-17015817D01*
X10967682Y-17072960D02*
X10986730Y-17082484D01*
X10986730Y-17082484D02*
X11024825Y-17082484D01*
X11024825Y-17082484D02*
X11043873Y-17072960D01*
X11043873Y-17072960D02*
X11053396Y-17053912D01*
X11053396Y-17053912D02*
X11053396Y-17044389D01*
X11053396Y-17044389D02*
X11043873Y-17025341D01*
X11043873Y-17025341D02*
X11024825Y-17015817D01*
X11024825Y-17015817D02*
X10996253Y-17015817D01*
X10996253Y-17015817D02*
X10977206Y-17006293D01*
X10977206Y-17006293D02*
X10967682Y-16987246D01*
X10967682Y-16987246D02*
X10967682Y-16977722D01*
X10967682Y-16977722D02*
X10977206Y-16958674D01*
X10977206Y-16958674D02*
X10996253Y-16949150D01*
X10996253Y-16949150D02*
X11024825Y-16949150D01*
X11024825Y-16949150D02*
X11043873Y-16958674D01*
X11120063Y-17158674D02*
X11129587Y-17149150D01*
X11129587Y-17149150D02*
X11148634Y-17120579D01*
X11148634Y-17120579D02*
X11158158Y-17101531D01*
X11158158Y-17101531D02*
X11167682Y-17072960D01*
X11167682Y-17072960D02*
X11177206Y-17025341D01*
X11177206Y-17025341D02*
X11177206Y-16987246D01*
X11177206Y-16987246D02*
X11167682Y-16939627D01*
X11167682Y-16939627D02*
X11158158Y-16911055D01*
X11158158Y-16911055D02*
X11148634Y-16892008D01*
X11148634Y-16892008D02*
X11129587Y-16863436D01*
X11129587Y-16863436D02*
X11120063Y-16853912D01*
M02*
